<?xml version="1.0" encoding="UTF-8" standalone="no"?>
<!DOCTYPE svg PUBLIC "-//W3C//DTD SVG 1.1//EN"
 "http://www.w3.org/Graphics/SVG/1.1/DTD/svg11.dtd">
<!-- Generated by graphviz version 2.40.1 (20161225.0304)
 -->
<!-- Title: teste_estoque Pages: 1 -->
<svg width="282pt" height="66pt"
 viewBox="0.00 0.00 282.00 66.00" xmlns="http://www.w3.org/2000/svg" xmlns:xlink="http://www.w3.org/1999/xlink">
<g id="graph0" class="graph" transform="scale(1 1) rotate(0) translate(4 62)">
<title>teste_estoque</title>
<!-- Node18 -->
<g id="node1" class="node">
<title>Node18</title>
<polygon fill="#bfbfbf" stroke="#000000" points="0,-19.5 0,-38.5 95,-38.5 95,-19.5 0,-19.5"/>
<text text-anchor="middle" x="47.5" y="-26.5" font-family="Fira Code" font-size="10.00" fill="#000000">teste_estoque</text>
</g>
<!-- Node19 -->
<g id="node2" class="node">
<title>Node19</title>
<g id="a_node2"><a xlink:href="../../db/dff/classEstoque.html#a2ee235ff9ba6088c94a93a0925477a1c" target="_top" xlink:title="Imprime na tela uma lista dos produtos cadastrados. ">
<polygon fill="none" stroke="#000000" points="131,-38.5 131,-57.5 274,-57.5 274,-38.5 131,-38.5"/>
<text text-anchor="middle" x="202.5" y="-45.5" font-family="Fira Code" font-size="10.00" fill="#000000">Estoque::estoque_dump</text>
</a>
</g>
</g>
<!-- Node18&#45;&gt;Node19 -->
<g id="edge1" class="edge">
<title>Node18&#45;&gt;Node19</title>
<path fill="none" stroke="#191970" d="M95.2699,-34.8557C103.4776,-35.8618 112.2098,-36.9322 121.0107,-38.011"/>
<polygon fill="#191970" stroke="#191970" points="120.6006,-41.4868 130.9522,-39.2296 121.4524,-34.5388 120.6006,-41.4868"/>
</g>
<!-- Node20 -->
<g id="node3" class="node">
<title>Node20</title>
<g id="a_node3"><a xlink:href="../../db/dff/classEstoque.html#ae981f8c5ceb2ff989161e456f7db68c7" target="_top" xlink:title="Função de inicialização do estoque com alguns produtos base. ">
<polygon fill="none" stroke="#000000" points="131,-.5 131,-19.5 274,-19.5 274,-.5 131,-.5"/>
<text text-anchor="middle" x="202.5" y="-7.5" font-family="Fira Code" font-size="10.00" fill="#000000">Estoque::estoque_init</text>
</a>
</g>
</g>
<!-- Node18&#45;&gt;Node20 -->
<g id="edge2" class="edge">
<title>Node18&#45;&gt;Node20</title>
<path fill="none" stroke="#191970" d="M95.2699,-23.1443C103.4776,-22.1382 112.2098,-21.0678 121.0107,-19.989"/>
<polygon fill="#191970" stroke="#191970" points="121.4524,-23.4612 130.9522,-18.7704 120.6006,-16.5132 121.4524,-23.4612"/>
</g>
</g>
</svg>
