<?xml version="1.0" encoding="UTF-8" standalone="no"?>
<!DOCTYPE svg PUBLIC "-//W3C//DTD SVG 1.1//EN"
 "http://www.w3.org/Graphics/SVG/1.1/DTD/svg11.dtd">
<!-- Generated by graphviz version 2.40.1 (20161225.0304)
 -->
<!-- Title: teste_estoque Pages: 1 -->
<svg width="574pt" height="88pt"
 viewBox="0.00 0.00 574.00 88.00" xmlns="http://www.w3.org/2000/svg" xmlns:xlink="http://www.w3.org/1999/xlink">
<g id="graph0" class="graph" transform="scale(1 1) rotate(0) translate(4 84)">
<title>teste_estoque</title>
<!-- Node11 -->
<g id="node1" class="node">
<title>Node11</title>
<polygon fill="#bfbfbf" stroke="#000000" points="0,-41.5 0,-60.5 95,-60.5 95,-41.5 0,-41.5"/>
<text text-anchor="middle" x="47.5" y="-48.5" font-family="Fira Code" font-size="10.00" fill="#000000">teste_estoque</text>
</g>
<!-- Node12 -->
<g id="node2" class="node">
<title>Node12</title>
<g id="a_node2"><a xlink:href="../../d5/d5c/estoque_8c.html#a2ee235ff9ba6088c94a93a0925477a1c" target="_top" xlink:title="estoque_dump">
<polygon fill="none" stroke="#000000" points="131,-60.5 131,-79.5 220,-79.5 220,-60.5 131,-60.5"/>
<text text-anchor="middle" x="175.5" y="-67.5" font-family="Fira Code" font-size="10.00" fill="#000000">estoque_dump</text>
</a>
</g>
</g>
<!-- Node11&#45;&gt;Node12 -->
<g id="edge1" class="edge">
<title>Node11&#45;&gt;Node12</title>
<path fill="none" stroke="#191970" d="M95.1625,-58.0749C103.5409,-59.3186 112.3196,-60.6217 120.8702,-61.8909"/>
<polygon fill="#191970" stroke="#191970" points="120.36,-65.3534 130.7655,-63.3597 121.3878,-58.4293 120.36,-65.3534"/>
</g>
<!-- Node13 -->
<g id="node3" class="node">
<title>Node13</title>
<g id="a_node3"><a xlink:href="../../d5/d5c/estoque_8c.html#ae981f8c5ceb2ff989161e456f7db68c7" target="_top" xlink:title="estoque_init">
<polygon fill="none" stroke="#000000" points="131,-22.5 131,-41.5 220,-41.5 220,-22.5 131,-22.5"/>
<text text-anchor="middle" x="175.5" y="-29.5" font-family="Fira Code" font-size="10.00" fill="#000000">estoque_init</text>
</a>
</g>
</g>
<!-- Node11&#45;&gt;Node13 -->
<g id="edge2" class="edge">
<title>Node11&#45;&gt;Node13</title>
<path fill="none" stroke="#191970" d="M95.1625,-43.9251C103.5409,-42.6814 112.3196,-41.3783 120.8702,-40.1091"/>
<polygon fill="#191970" stroke="#191970" points="121.3878,-43.5707 130.7655,-38.6403 120.36,-36.6466 121.3878,-43.5707"/>
</g>
<!-- Node14 -->
<g id="node4" class="node">
<title>Node14</title>
<g id="a_node4"><a xlink:href="../../d5/d5c/estoque_8c.html#aa09ee2ee9e6e6bc43b8e3ca43eca8ac6" target="_top" xlink:title="estoque_produto_add">
<polygon fill="none" stroke="#000000" points="256,-22.5 256,-41.5 387,-41.5 387,-22.5 256,-22.5"/>
<text text-anchor="middle" x="321.5" y="-29.5" font-family="Fira Code" font-size="10.00" fill="#000000">estoque_produto_add</text>
</a>
</g>
</g>
<!-- Node13&#45;&gt;Node14 -->
<g id="edge3" class="edge">
<title>Node13&#45;&gt;Node14</title>
<path fill="none" stroke="#191970" d="M220.0981,-32C228.2351,-32 236.9298,-32 245.6787,-32"/>
<polygon fill="#191970" stroke="#191970" points="245.9438,-35.5001 255.9438,-32 245.9437,-28.5001 245.9438,-35.5001"/>
</g>
<!-- Node15 -->
<g id="node5" class="node">
<title>Node15</title>
<g id="a_node5"><a xlink:href="../../d5/d5c/estoque_8c.html#a9758d57cd9fa7cad75d00d64c27dc80f" target="_top" xlink:title="estoque_encontra_pos\l_livre">
<polygon fill="none" stroke="#000000" points="426,-39 426,-69 563,-69 563,-39 426,-39"/>
<text text-anchor="start" x="434" y="-57" font-family="Fira Code" font-size="10.00" fill="#000000">estoque_encontra_pos</text>
<text text-anchor="middle" x="494.5" y="-46" font-family="Fira Code" font-size="10.00" fill="#000000">_livre</text>
</a>
</g>
</g>
<!-- Node14&#45;&gt;Node15 -->
<g id="edge4" class="edge">
<title>Node14&#45;&gt;Node15</title>
<path fill="none" stroke="#191970" d="M387.3974,-40.38C396.6537,-41.5571 406.2443,-42.7767 415.7107,-43.9805"/>
<polygon fill="#191970" stroke="#191970" points="415.5506,-47.4883 425.9123,-45.2779 416.4337,-40.5442 415.5506,-47.4883"/>
</g>
<!-- Node16 -->
<g id="node6" class="node">
<title>Node16</title>
<g id="a_node6"><a xlink:href="../../d5/d5c/estoque_8c.html#a65a97d14e6d4caebb236121f8f12679c" target="_top" xlink:title="estoque_index_from_id">
<polygon fill="none" stroke="#000000" points="423,-.5 423,-19.5 566,-19.5 566,-.5 423,-.5"/>
<text text-anchor="middle" x="494.5" y="-7.5" font-family="Fira Code" font-size="10.00" fill="#000000">estoque_index_from_id</text>
</a>
</g>
</g>
<!-- Node14&#45;&gt;Node16 -->
<g id="edge5" class="edge">
<title>Node14&#45;&gt;Node16</title>
<path fill="none" stroke="#191970" d="M387.3974,-23.62C395.7018,-22.5639 404.2753,-21.4737 412.7868,-20.3913"/>
<polygon fill="#191970" stroke="#191970" points="413.2516,-23.8604 422.7302,-19.1268 412.3685,-16.9164 413.2516,-23.8604"/>
</g>
</g>
</svg>
