<?xml version="1.0" encoding="UTF-8" standalone="no"?>
<!DOCTYPE svg PUBLIC "-//W3C//DTD SVG 1.1//EN"
 "http://www.w3.org/Graphics/SVG/1.1/DTD/svg11.dtd">
<!-- Generated by graphviz version 2.40.1 (20161225.0304)
 -->
<!-- Title: main Pages: 1 -->
<svg width="258pt" height="116pt"
 viewBox="0.00 0.00 258.00 115.50" xmlns="http://www.w3.org/2000/svg" xmlns:xlink="http://www.w3.org/1999/xlink">
<g id="graph0" class="graph" transform="scale(1 1) rotate(0) translate(4 111.5)">
<title>main</title>
<!-- Node0 -->
<g id="node1" class="node">
<title>Node0</title>
<polygon fill="#bfbfbf" stroke="#000000" points="0,-38.5 0,-57.5 41,-57.5 41,-38.5 0,-38.5"/>
<text text-anchor="middle" x="20.5" y="-45.5" font-family="Fira Code" font-size="10.00" fill="#000000">main</text>
</g>
<!-- Node1 -->
<g id="node2" class="node">
<title>Node1</title>
<g id="a_node2"><a xlink:href="../../d1/d1b/classAtuadores.html#abc1cd7f170c8442f5a7cb93353f98a1b" target="_top" xlink:title="Envia o comando de liberação do produto indicado. ">
<polygon fill="none" stroke="#000000" points="95,-77 95,-107 232,-107 232,-77 95,-77"/>
<text text-anchor="start" x="103" y="-95" font-family="Fira Code" font-size="10.00" fill="#000000">Atuadores::atuadores</text>
<text text-anchor="middle" x="163.5" y="-84" font-family="Fira Code" font-size="10.00" fill="#000000">_libera_produto</text>
</a>
</g>
</g>
<!-- Node0&#45;&gt;Node1 -->
<g id="edge1" class="edge">
<title>Node0&#45;&gt;Node1</title>
<path fill="none" stroke="#191970" d="M41.0938,-55.1626C51.772,-58.8161 65.0479,-63.2651 77,-67 84.4486,-69.3276 92.2815,-71.6981 100.0656,-74.0063"/>
<polygon fill="#191970" stroke="#191970" points="99.2856,-77.425 109.8668,-76.8887 101.2606,-70.7094 99.2856,-77.425"/>
</g>
<!-- Node2 -->
<g id="node3" class="node">
<title>Node2</title>
<g id="a_node3"><a xlink:href="../../d6/dd6/classDisplay.html#ab40bbdd654d01b8ee4e3318f96addb0d" target="_top" xlink:title="Exibe uma mensagem para o usuário por meio do display. ">
<polygon fill="none" stroke="#000000" points="77,-38.5 77,-57.5 250,-57.5 250,-38.5 77,-38.5"/>
<text text-anchor="middle" x="163.5" y="-45.5" font-family="Fira Code" font-size="10.00" fill="#000000">Display::display_exibe_msg</text>
</a>
</g>
</g>
<!-- Node0&#45;&gt;Node2 -->
<g id="edge2" class="edge">
<title>Node0&#45;&gt;Node2</title>
<path fill="none" stroke="#191970" d="M41.2934,-48C48.5949,-48 57.3497,-48 66.7755,-48"/>
<polygon fill="#191970" stroke="#191970" points="66.8081,-51.5001 76.8081,-48 66.8081,-44.5001 66.8081,-51.5001"/>
</g>
<!-- Node3 -->
<g id="node4" class="node">
<title>Node3</title>
<g id="a_node4"><a xlink:href="../../df/d99/teclado_8c.html#accc923a97665be4f8f473de70bf3641e" target="_top" xlink:title="teclado_le_prod_id">
<polygon fill="none" stroke="#000000" points="101,-.5 101,-19.5 226,-19.5 226,-.5 101,-.5"/>
<text text-anchor="middle" x="163.5" y="-7.5" font-family="Fira Code" font-size="10.00" fill="#000000">teclado_le_prod_id</text>
</a>
</g>
</g>
<!-- Node0&#45;&gt;Node3 -->
<g id="edge3" class="edge">
<title>Node0&#45;&gt;Node3</title>
<path fill="none" stroke="#191970" d="M41.2622,-40.4183C51.8698,-36.6982 65.0324,-32.3161 77,-29 86.2375,-26.4403 96.1058,-24.0006 105.7499,-21.7741"/>
<polygon fill="#191970" stroke="#191970" points="106.6975,-25.1484 115.683,-19.535 105.1581,-18.3197 106.6975,-25.1484"/>
</g>
</g>
</svg>
