<?xml version="1.0" encoding="UTF-8" standalone="no"?>
<!DOCTYPE svg PUBLIC "-//W3C//DTD SVG 1.1//EN"
 "http://www.w3.org/Graphics/SVG/1.1/DTD/svg11.dtd">
<!-- Generated by graphviz version 2.40.1 (20161225.0304)
 -->
<!-- Title: main Pages: 1 -->
<svg width="449pt" height="218pt"
 viewBox="0.00 0.00 449.00 218.00" xmlns="http://www.w3.org/2000/svg" xmlns:xlink="http://www.w3.org/1999/xlink">
<g id="graph0" class="graph" transform="scale(1 1) rotate(0) translate(4 214)">
<title>main</title>
<!-- Node0 -->
<g id="node1" class="node">
<title>Node0</title>
<polygon fill="#bfbfbf" stroke="#000000" points="0,-114.5 0,-133.5 41,-133.5 41,-114.5 0,-114.5"/>
<text text-anchor="middle" x="20.5" y="-121.5" font-family="Fira Code" font-size="10.00" fill="#000000">main</text>
</g>
<!-- Node1 -->
<g id="node2" class="node">
<title>Node1</title>
<g id="a_node2"><a xlink:href="../../d8/db8/fsm_8c.html#a17f1d0bc0f8f7d0e109dd45d28e72921" target="_top" xlink:title="fsm_obter_acao">
<polygon fill="none" stroke="#000000" points="107,-171.5 107,-190.5 208,-190.5 208,-171.5 107,-171.5"/>
<text text-anchor="middle" x="157.5" y="-178.5" font-family="Fira Code" font-size="10.00" fill="#000000">fsm_obter_acao</text>
</a>
</g>
</g>
<!-- Node0&#45;&gt;Node1 -->
<g id="edge1" class="edge">
<title>Node0&#45;&gt;Node1</title>
<path fill="none" stroke="#191970" d="M32.3161,-133.8192C43.2606,-142.4404 60.3182,-154.7113 77,-162 83.277,-164.7426 90.0099,-167.1228 96.8108,-169.1805"/>
<polygon fill="#191970" stroke="#191970" points="96.2051,-172.6454 106.7784,-171.969 98.0911,-165.9042 96.2051,-172.6454"/>
</g>
<!-- Node2 -->
<g id="node3" class="node">
<title>Node2</title>
<g id="a_node3"><a xlink:href="../../d8/db8/fsm_8c.html#ab1c78c9c801d6c70d674a1a040dd1662" target="_top" xlink:title="fsm_obter_proximo_estado">
<polygon fill="none" stroke="#000000" points="77,-133.5 77,-152.5 238,-152.5 238,-133.5 77,-133.5"/>
<text text-anchor="middle" x="157.5" y="-140.5" font-family="Fira Code" font-size="10.00" fill="#000000">fsm_obter_proximo_estado</text>
</a>
</g>
</g>
<!-- Node0&#45;&gt;Node2 -->
<g id="edge2" class="edge">
<title>Node0&#45;&gt;Node2</title>
<path fill="none" stroke="#191970" d="M41.0103,-126.8445C51.4017,-128.2856 64.7542,-130.1374 78.6893,-132.07"/>
<polygon fill="#191970" stroke="#191970" points="78.5191,-135.5799 88.9051,-133.4868 79.4808,-128.6462 78.5191,-135.5799"/>
</g>
<!-- Node3 -->
<g id="node4" class="node">
<title>Node3</title>
<g id="a_node4"><a xlink:href="../../d1/df5/classMachina.html#a17c3a5d0ed70dbc9fbecc9a9c737c075" target="_top" xlink:title="Inicializa componentes da vending machine. ">
<polygon fill="none" stroke="#000000" points="86,-95.5 86,-114.5 229,-114.5 229,-95.5 86,-95.5"/>
<text text-anchor="middle" x="157.5" y="-102.5" font-family="Fira Code" font-size="10.00" fill="#000000">Machina::machina_init</text>
</a>
</g>
</g>
<!-- Node0&#45;&gt;Node3 -->
<g id="edge3" class="edge">
<title>Node0&#45;&gt;Node3</title>
<path fill="none" stroke="#191970" d="M41.0103,-121.1555C51.4017,-119.7144 64.7542,-117.8626 78.6893,-115.93"/>
<polygon fill="#191970" stroke="#191970" points="79.4808,-119.3538 88.9051,-114.5132 78.5191,-112.4201 79.4808,-119.3538"/>
</g>
<!-- Node10 -->
<g id="node11" class="node">
<title>Node10</title>
<g id="a_node11"><a xlink:href="../../d0/d29/main_8c.html#a25a325d4158de41b2d0177e744e32e7f" target="_top" xlink:title="obter_evento">
<polygon fill="none" stroke="#000000" points="113,-57.5 113,-76.5 202,-76.5 202,-57.5 113,-57.5"/>
<text text-anchor="middle" x="157.5" y="-64.5" font-family="Fira Code" font-size="10.00" fill="#000000">obter_evento</text>
</a>
</g>
</g>
<!-- Node0&#45;&gt;Node10 -->
<g id="edge10" class="edge">
<title>Node0&#45;&gt;Node10</title>
<path fill="none" stroke="#191970" d="M32.3161,-114.1808C43.2606,-105.5596 60.3182,-93.2887 77,-86 85.1264,-82.4494 94.0169,-79.5061 102.8298,-77.0838"/>
<polygon fill="#191970" stroke="#191970" points="103.8773,-80.4287 112.702,-74.5657 102.1472,-73.6459 103.8773,-80.4287"/>
</g>
<!-- Node4 -->
<g id="node5" class="node">
<title>Node4</title>
<g id="a_node5"><a xlink:href="../../d8/db8/fsm_8c.html#a6d28dcad43166c03b061f129a8759018" target="_top" xlink:title="fsm_init">
<polygon fill="none" stroke="#000000" points="325,-190.5 325,-209.5 390,-209.5 390,-190.5 325,-190.5"/>
<text text-anchor="middle" x="357.5" y="-197.5" font-family="Fira Code" font-size="10.00" fill="#000000">fsm_init</text>
</a>
</g>
</g>
<!-- Node3&#45;&gt;Node4 -->
<g id="edge4" class="edge">
<title>Node3&#45;&gt;Node4</title>
<path fill="none" stroke="#191970" d="M220.2809,-114.6361C226.5785,-117.0931 232.6225,-120.164 238,-124 262.3926,-141.4005 249.5376,-163.6978 274,-181 285.9159,-189.4281 300.9722,-194.1863 315.008,-196.8498"/>
<polygon fill="#191970" stroke="#191970" points="314.5618,-200.3228 324.9883,-198.4416 315.6644,-193.4102 314.5618,-200.3228"/>
</g>
<!-- Node5 -->
<g id="node6" class="node">
<title>Node5</title>
<g id="a_node6"><a xlink:href="../../de/d0a/classBoca.html#ad0b071292b6c58df7adb93d30cc5a0fa" target="_top" xlink:title="Função de inicialização do componente. ">
<polygon fill="none" stroke="#000000" points="286,-152.5 286,-171.5 429,-171.5 429,-152.5 286,-152.5"/>
<text text-anchor="middle" x="357.5" y="-159.5" font-family="Fira Code" font-size="10.00" fill="#000000">Boca::boca_caixa_init</text>
</a>
</g>
</g>
<!-- Node3&#45;&gt;Node5 -->
<g id="edge5" class="edge">
<title>Node3&#45;&gt;Node5</title>
<path fill="none" stroke="#191970" d="M207.0487,-114.6047C217.4213,-117.1938 228.1846,-120.32 238,-124 254.9402,-130.3513 257.0344,-136.717 274,-143 280.9796,-145.5848 288.4226,-147.8853 295.8809,-149.9138"/>
<polygon fill="#191970" stroke="#191970" points="295.1003,-153.3268 305.6566,-152.4248 296.8418,-146.5469 295.1003,-153.3268"/>
</g>
<!-- Node6 -->
<g id="node7" class="node">
<title>Node6</title>
<g id="a_node7"><a xlink:href="../../d1/d1b/classAtuadores.html#a32b7777f9c06dafde01e55378c9e1af6" target="_top" xlink:title="Função de inicialização do componente. ">
<polygon fill="none" stroke="#000000" points="274,-114.5 274,-133.5 441,-133.5 441,-114.5 274,-114.5"/>
<text text-anchor="middle" x="357.5" y="-121.5" font-family="Fira Code" font-size="10.00" fill="#000000">Atuadores::atuadores_init</text>
</a>
</g>
</g>
<!-- Node3&#45;&gt;Node6 -->
<g id="edge6" class="edge">
<title>Node3&#45;&gt;Node6</title>
<path fill="none" stroke="#191970" d="M229.1397,-111.8058C240.3229,-112.8682 252.0219,-113.9796 263.6111,-115.0806"/>
<polygon fill="#191970" stroke="#191970" points="263.4653,-118.5824 273.7515,-116.0439 264.1274,-111.6137 263.4653,-118.5824"/>
</g>
<!-- Node7 -->
<g id="node8" class="node">
<title>Node7</title>
<g id="a_node8"><a xlink:href="../../d6/dd6/classDisplay.html#a8d41c12af4f6e6faad84e1f21f99b3e1" target="_top" xlink:title="Função de inicialização do componente. ">
<polygon fill="none" stroke="#000000" points="286,-76.5 286,-95.5 429,-95.5 429,-76.5 286,-76.5"/>
<text text-anchor="middle" x="357.5" y="-83.5" font-family="Fira Code" font-size="10.00" fill="#000000">Display::display_init</text>
</a>
</g>
</g>
<!-- Node3&#45;&gt;Node7 -->
<g id="edge7" class="edge">
<title>Node3&#45;&gt;Node7</title>
<path fill="none" stroke="#191970" d="M229.1397,-98.1942C244.2187,-96.7617 260.2356,-95.2401 275.6565,-93.7751"/>
<polygon fill="#191970" stroke="#191970" points="276.0642,-97.2523 285.6883,-92.8221 275.4021,-90.2836 276.0642,-97.2523"/>
</g>
<!-- Node8 -->
<g id="node9" class="node">
<title>Node8</title>
<g id="a_node9"><a xlink:href="../../de/dcb/classTeclado.html#ab96e8a4130d807871058321aa4ab0630" target="_top" xlink:title="Função de inicialização do componente. ">
<polygon fill="none" stroke="#000000" points="286,-38.5 286,-57.5 429,-57.5 429,-38.5 286,-38.5"/>
<text text-anchor="middle" x="357.5" y="-45.5" font-family="Fira Code" font-size="10.00" fill="#000000">Teclado::teclado_init</text>
</a>
</g>
</g>
<!-- Node3&#45;&gt;Node8 -->
<g id="edge8" class="edge">
<title>Node3&#45;&gt;Node8</title>
<path fill="none" stroke="#191970" d="M207.0487,-95.3953C217.4213,-92.8062 228.1846,-89.68 238,-86 254.9402,-79.6487 257.0344,-73.283 274,-67 280.9796,-64.4152 288.4226,-62.1147 295.8809,-60.0862"/>
<polygon fill="#191970" stroke="#191970" points="296.8418,-63.4531 305.6566,-57.5752 295.1003,-56.6732 296.8418,-63.4531"/>
</g>
<!-- Node9 -->
<g id="node10" class="node">
<title>Node9</title>
<g id="a_node10"><a xlink:href="../../df/d87/classTrava.html#a525662648702cd87a3832730d7e37223" target="_top" xlink:title="Função de inicialização do componente. ">
<polygon fill="none" stroke="#000000" points="298,-.5 298,-19.5 417,-19.5 417,-.5 298,-.5"/>
<text text-anchor="middle" x="357.5" y="-7.5" font-family="Fira Code" font-size="10.00" fill="#000000">Trava::trava_init</text>
</a>
</g>
</g>
<!-- Node3&#45;&gt;Node9 -->
<g id="edge9" class="edge">
<title>Node3&#45;&gt;Node9</title>
<path fill="none" stroke="#191970" d="M220.2809,-95.3639C226.5785,-92.9069 232.6225,-89.836 238,-86 262.3926,-68.5995 249.5376,-46.3022 274,-29 278.4758,-25.8343 283.3947,-23.1863 288.5362,-20.9726"/>
<polygon fill="#191970" stroke="#191970" points="289.8434,-24.2206 297.9835,-17.4391 287.3911,-17.6642 289.8434,-24.2206"/>
</g>
</g>
</svg>
