<?xml version="1.0" encoding="UTF-8" standalone="no"?>
<!DOCTYPE svg PUBLIC "-//W3C//DTD SVG 1.1//EN"
 "http://www.w3.org/Graphics/SVG/1.1/DTD/svg11.dtd">
<!-- Generated by graphviz version 2.40.1 (20161225.0304)
 -->
<!-- Title: machina_init Pages: 1 -->
<svg width="234pt" height="142pt"
 viewBox="0.00 0.00 234.00 142.00" xmlns="http://www.w3.org/2000/svg" xmlns:xlink="http://www.w3.org/1999/xlink">
<g id="graph0" class="graph" transform="scale(1 1) rotate(0) translate(4 138)">
<title>machina_init</title>
<!-- Node0 -->
<g id="node1" class="node">
<title>Node0</title>
<polygon fill="#bfbfbf" stroke="#000000" points="0,-57.5 0,-76.5 89,-76.5 89,-57.5 0,-57.5"/>
<text text-anchor="middle" x="44.5" y="-64.5" font-family="Fira Code" font-size="10.00" fill="#000000">machina_init</text>
</g>
<!-- Node1 -->
<g id="node2" class="node">
<title>Node1</title>
<g id="a_node2"><a xlink:href="../../dd/d4e/atuadores_8c.html#a32b7777f9c06dafde01e55378c9e1af6" target="_top" xlink:title="Função de inicialização do componente. ">
<polygon fill="none" stroke="#000000" points="125,-114.5 125,-133.5 226,-133.5 226,-114.5 125,-114.5"/>
<text text-anchor="middle" x="175.5" y="-121.5" font-family="Fira Code" font-size="10.00" fill="#000000">atuadores_init</text>
</a>
</g>
</g>
<!-- Node0&#45;&gt;Node1 -->
<g id="edge1" class="edge">
<title>Node0&#45;&gt;Node1</title>
<path fill="none" stroke="#191970" d="M63.4951,-76.5017C79.6838,-84.47 103.6521,-95.963 125,-105 129.5584,-106.9297 134.3868,-108.8723 139.1793,-110.7403"/>
<polygon fill="#191970" stroke="#191970" points="138.2778,-114.1425 148.8685,-114.4417 140.7759,-107.6034 138.2778,-114.1425"/>
</g>
<!-- Node2 -->
<g id="node3" class="node">
<title>Node2</title>
<g id="a_node3"><a xlink:href="../../db/d85/display_8c.html#a8d41c12af4f6e6faad84e1f21f99b3e1" target="_top" xlink:title="Função de inicialização do componente. ">
<polygon fill="none" stroke="#000000" points="131,-76.5 131,-95.5 220,-95.5 220,-76.5 131,-76.5"/>
<text text-anchor="middle" x="175.5" y="-83.5" font-family="Fira Code" font-size="10.00" fill="#000000">display_init</text>
</a>
</g>
</g>
<!-- Node0&#45;&gt;Node2 -->
<g id="edge2" class="edge">
<title>Node0&#45;&gt;Node2</title>
<path fill="none" stroke="#191970" d="M89.2164,-73.4856C99.4392,-74.9683 110.4156,-76.5603 120.9977,-78.0951"/>
<polygon fill="#191970" stroke="#191970" points="120.5863,-81.572 130.9852,-79.5436 121.5911,-74.6444 120.5863,-81.572"/>
</g>
<!-- Node3 -->
<g id="node4" class="node">
<title>Node3</title>
<g id="a_node4"><a xlink:href="../../df/d99/teclado_8c.html#ab96e8a4130d807871058321aa4ab0630" target="_top" xlink:title="Função de inicialização do componente. ">
<polygon fill="none" stroke="#000000" points="131,-38.5 131,-57.5 220,-57.5 220,-38.5 131,-38.5"/>
<text text-anchor="middle" x="175.5" y="-45.5" font-family="Fira Code" font-size="10.00" fill="#000000">teclado_init</text>
</a>
</g>
</g>
<!-- Node0&#45;&gt;Node3 -->
<g id="edge3" class="edge">
<title>Node0&#45;&gt;Node3</title>
<path fill="none" stroke="#191970" d="M89.2164,-60.5144C99.4392,-59.0317 110.4156,-57.4397 120.9977,-55.9049"/>
<polygon fill="#191970" stroke="#191970" points="121.5911,-59.3556 130.9852,-54.4564 120.5863,-52.428 121.5911,-59.3556"/>
</g>
<!-- Node4 -->
<g id="node5" class="node">
<title>Node4</title>
<g id="a_node5"><a xlink:href="../../d5/dcc/trava_8c.html#a525662648702cd87a3832730d7e37223" target="_top" xlink:title="trava_init">
<polygon fill="none" stroke="#000000" points="137,-.5 137,-19.5 214,-19.5 214,-.5 137,-.5"/>
<text text-anchor="middle" x="175.5" y="-7.5" font-family="Fira Code" font-size="10.00" fill="#000000">trava_init</text>
</a>
</g>
</g>
<!-- Node0&#45;&gt;Node4 -->
<g id="edge4" class="edge">
<title>Node0&#45;&gt;Node4</title>
<path fill="none" stroke="#191970" d="M63.4951,-57.4983C79.6838,-49.53 103.6521,-38.037 125,-29 129.5584,-27.0703 134.3868,-25.1277 139.1793,-23.2597"/>
<polygon fill="#191970" stroke="#191970" points="140.7759,-26.3966 148.8685,-19.5583 138.2778,-19.8575 140.7759,-26.3966"/>
</g>
</g>
</svg>
