<?xml version="1.0" encoding="UTF-8" standalone="no"?>
<!DOCTYPE svg PUBLIC "-//W3C//DTD SVG 1.1//EN"
 "http://www.w3.org/Graphics/SVG/1.1/DTD/svg11.dtd">
<!-- Generated by graphviz version 2.40.1 (20161225.0304)
 -->
<!-- Title: main Pages: 1 -->
<svg width="651pt" height="94pt"
 viewBox="0.00 0.00 651.00 93.50" xmlns="http://www.w3.org/2000/svg" xmlns:xlink="http://www.w3.org/1999/xlink">
<g id="graph0" class="graph" transform="scale(1 1) rotate(0) translate(4 89.5)">
<title>main</title>
<!-- Node0 -->
<g id="node1" class="node">
<title>Node0</title>
<polygon fill="#bfbfbf" stroke="#000000" points="0,-19.5 0,-38.5 41,-38.5 41,-19.5 0,-19.5"/>
<text text-anchor="middle" x="20.5" y="-26.5" font-family="Fira Code" font-size="10.00" fill="#000000">main</text>
</g>
<!-- Node1 -->
<g id="node2" class="node">
<title>Node1</title>
<g id="a_node2"><a xlink:href="../../d0/d29/main_8c.html#af1d291eb446787a4df1bbe841497dade" target="_top" xlink:title="teste_estoque">
<polygon fill="none" stroke="#000000" points="77,-19.5 77,-38.5 172,-38.5 172,-19.5 77,-19.5"/>
<text text-anchor="middle" x="124.5" y="-26.5" font-family="Fira Code" font-size="10.00" fill="#000000">teste_estoque</text>
</a>
</g>
</g>
<!-- Node0&#45;&gt;Node1 -->
<g id="edge1" class="edge">
<title>Node0&#45;&gt;Node1</title>
<path fill="none" stroke="#191970" d="M41.0471,-29C48.6113,-29 57.5979,-29 66.8257,-29"/>
<polygon fill="#191970" stroke="#191970" points="66.8777,-32.5001 76.8777,-29 66.8776,-25.5001 66.8777,-32.5001"/>
</g>
<!-- Node2 -->
<g id="node3" class="node">
<title>Node2</title>
<g id="a_node3"><a xlink:href="../../d5/d5c/estoque_8c.html#ae981f8c5ceb2ff989161e456f7db68c7" target="_top" xlink:title="estoque_init">
<polygon fill="none" stroke="#000000" points="208,-38.5 208,-57.5 297,-57.5 297,-38.5 208,-38.5"/>
<text text-anchor="middle" x="252.5" y="-45.5" font-family="Fira Code" font-size="10.00" fill="#000000">estoque_init</text>
</a>
</g>
</g>
<!-- Node1&#45;&gt;Node2 -->
<g id="edge2" class="edge">
<title>Node1&#45;&gt;Node2</title>
<path fill="none" stroke="#191970" d="M172.1625,-36.0749C180.5409,-37.3186 189.3196,-38.6217 197.8702,-39.8909"/>
<polygon fill="#191970" stroke="#191970" points="197.36,-43.3534 207.7655,-41.3597 198.3878,-36.4293 197.36,-43.3534"/>
</g>
<!-- Node6 -->
<g id="node7" class="node">
<title>Node6</title>
<g id="a_node7"><a xlink:href="../../d5/d5c/estoque_8c.html#a2ee235ff9ba6088c94a93a0925477a1c" target="_top" xlink:title="estoque_dump">
<polygon fill="none" stroke="#000000" points="208,-.5 208,-19.5 297,-19.5 297,-.5 208,-.5"/>
<text text-anchor="middle" x="252.5" y="-7.5" font-family="Fira Code" font-size="10.00" fill="#000000">estoque_dump</text>
</a>
</g>
</g>
<!-- Node1&#45;&gt;Node6 -->
<g id="edge6" class="edge">
<title>Node1&#45;&gt;Node6</title>
<path fill="none" stroke="#191970" d="M172.1625,-21.9251C180.5409,-20.6814 189.3196,-19.3783 197.8702,-18.1091"/>
<polygon fill="#191970" stroke="#191970" points="198.3878,-21.5707 207.7655,-16.6403 197.36,-14.6466 198.3878,-21.5707"/>
</g>
<!-- Node3 -->
<g id="node4" class="node">
<title>Node3</title>
<g id="a_node4"><a xlink:href="../../d5/d5c/estoque_8c.html#aa09ee2ee9e6e6bc43b8e3ca43eca8ac6" target="_top" xlink:title="estoque_produto_add">
<polygon fill="none" stroke="#000000" points="333,-38.5 333,-57.5 464,-57.5 464,-38.5 333,-38.5"/>
<text text-anchor="middle" x="398.5" y="-45.5" font-family="Fira Code" font-size="10.00" fill="#000000">estoque_produto_add</text>
</a>
</g>
</g>
<!-- Node2&#45;&gt;Node3 -->
<g id="edge3" class="edge">
<title>Node2&#45;&gt;Node3</title>
<path fill="none" stroke="#191970" d="M297.0981,-48C305.2351,-48 313.9298,-48 322.6787,-48"/>
<polygon fill="#191970" stroke="#191970" points="322.9438,-51.5001 332.9438,-48 322.9437,-44.5001 322.9438,-51.5001"/>
</g>
<!-- Node4 -->
<g id="node5" class="node">
<title>Node4</title>
<g id="a_node5"><a xlink:href="../../d5/d5c/estoque_8c.html#a9758d57cd9fa7cad75d00d64c27dc80f" target="_top" xlink:title="estoque_encontra_pos\l_livre">
<polygon fill="none" stroke="#000000" points="503,-55 503,-85 640,-85 640,-55 503,-55"/>
<text text-anchor="start" x="511" y="-73" font-family="Fira Code" font-size="10.00" fill="#000000">estoque_encontra_pos</text>
<text text-anchor="middle" x="571.5" y="-62" font-family="Fira Code" font-size="10.00" fill="#000000">_livre</text>
</a>
</g>
</g>
<!-- Node3&#45;&gt;Node4 -->
<g id="edge4" class="edge">
<title>Node3&#45;&gt;Node4</title>
<path fill="none" stroke="#191970" d="M464.3974,-56.38C473.6537,-57.5571 483.2443,-58.7767 492.7107,-59.9805"/>
<polygon fill="#191970" stroke="#191970" points="492.5506,-63.4883 502.9123,-61.2779 493.4337,-56.5442 492.5506,-63.4883"/>
</g>
<!-- Node5 -->
<g id="node6" class="node">
<title>Node5</title>
<g id="a_node6"><a xlink:href="../../d5/d5c/estoque_8c.html#a65a97d14e6d4caebb236121f8f12679c" target="_top" xlink:title="estoque_index_from_id">
<polygon fill="none" stroke="#000000" points="500,-16.5 500,-35.5 643,-35.5 643,-16.5 500,-16.5"/>
<text text-anchor="middle" x="571.5" y="-23.5" font-family="Fira Code" font-size="10.00" fill="#000000">estoque_index_from_id</text>
</a>
</g>
</g>
<!-- Node3&#45;&gt;Node5 -->
<g id="edge5" class="edge">
<title>Node3&#45;&gt;Node5</title>
<path fill="none" stroke="#191970" d="M464.3974,-39.62C472.7018,-38.5639 481.2753,-37.4737 489.7868,-36.3913"/>
<polygon fill="#191970" stroke="#191970" points="490.2516,-39.8604 499.7302,-35.1268 489.3685,-32.9164 490.2516,-39.8604"/>
</g>
</g>
</svg>
