<?xml version="1.0" encoding="UTF-8" standalone="no"?>
<!DOCTYPE svg PUBLIC "-//W3C//DTD SVG 1.1//EN"
 "http://www.w3.org/Graphics/SVG/1.1/DTD/svg11.dtd">
<!-- Generated by graphviz version 2.40.1 (20161225.0304)
 -->
<!-- Title: main Pages: 1 -->
<svg width="628pt" height="753pt"
 viewBox="0.00 0.00 628.00 753.00" xmlns="http://www.w3.org/2000/svg" xmlns:xlink="http://www.w3.org/1999/xlink">
<g id="graph0" class="graph" transform="scale(1 1) rotate(0) translate(4 749)">
<title>main</title>
<!-- Node14 -->
<g id="node1" class="node">
<title>Node14</title>
<polygon fill="#bfbfbf" stroke="#000000" points="0,-471.5 0,-490.5 41,-490.5 41,-471.5 0,-471.5"/>
<text text-anchor="middle" x="20.5" y="-478.5" font-family="Fira Code" font-size="10.00" fill="#000000">main</text>
</g>
<!-- Node15 -->
<g id="node2" class="node">
<title>Node15</title>
<g id="a_node2"><a xlink:href="../../db/dff/classEstoque.html#a2ee235ff9ba6088c94a93a0925477a1c" target="_top" xlink:title="Imprime na tela uma lista dos produtos cadastrados. ">
<polygon fill="none" stroke="#000000" points="277,-725.5 277,-744.5 420,-744.5 420,-725.5 277,-725.5"/>
<text text-anchor="middle" x="348.5" y="-732.5" font-family="Fira Code" font-size="10.00" fill="#000000">Estoque::estoque_dump</text>
</a>
</g>
</g>
<!-- Node14&#45;&gt;Node15 -->
<g id="edge1" class="edge">
<title>Node14&#45;&gt;Node15</title>
<path fill="none" stroke="#191970" d="M27.0963,-490.5211C52.6078,-526.5533 149.0278,-655.5724 262,-716 266.4613,-718.3863 271.205,-720.4731 276.0846,-722.2979"/>
<polygon fill="#191970" stroke="#191970" points="275.0036,-725.6269 285.5976,-725.4941 277.233,-718.9914 275.0036,-725.6269"/>
</g>
<!-- Node16 -->
<g id="node3" class="node">
<title>Node16</title>
<g id="a_node3"><a xlink:href="../../d0/d29/main_8c.html#a5422318cb6d27f076643e8e0161dbc6b" target="_top" xlink:title="executar_acao">
<polygon fill="none" stroke="#000000" points="104,-509.5 104,-528.5 199,-528.5 199,-509.5 104,-509.5"/>
<text text-anchor="middle" x="151.5" y="-516.5" font-family="Fira Code" font-size="10.00" fill="#000000">executar_acao</text>
</a>
</g>
</g>
<!-- Node14&#45;&gt;Node16 -->
<g id="edge2" class="edge">
<title>Node14&#45;&gt;Node16</title>
<path fill="none" stroke="#191970" d="M41.0457,-488.3207C51.7112,-492.0161 64.9903,-496.4546 77,-500 85.0972,-502.3904 93.741,-504.7594 102.167,-506.9717"/>
<polygon fill="#191970" stroke="#191970" points="101.355,-510.3768 111.9126,-509.4886 103.1055,-503.5992 101.355,-510.3768"/>
</g>
<!-- Node27 -->
<g id="node14" class="node">
<title>Node27</title>
<g id="a_node14"><a xlink:href="../../d7/da5/classFSM.html#a6333686f3fb3b86490c72432702aec5f" target="_top" xlink:title="Retorna qual ação deve ser executada a partir de um estado e um evento. ">
<polygon fill="none" stroke="#000000" points="86,-471.5 86,-490.5 217,-490.5 217,-471.5 86,-471.5"/>
<text text-anchor="middle" x="151.5" y="-478.5" font-family="Fira Code" font-size="10.00" fill="#000000">FSM::fsm_obter_acao</text>
</a>
</g>
</g>
<!-- Node14&#45;&gt;Node27 -->
<g id="edge14" class="edge">
<title>Node14&#45;&gt;Node27</title>
<path fill="none" stroke="#191970" d="M41.2573,-481C50.878,-481 62.9656,-481 75.5825,-481"/>
<polygon fill="#191970" stroke="#191970" points="75.7774,-484.5001 85.7774,-481 75.7773,-477.5001 75.7774,-484.5001"/>
</g>
<!-- Node28 -->
<g id="node15" class="node">
<title>Node28</title>
<g id="a_node15"><a xlink:href="../../d7/da5/classFSM.html#a46ac18de87ce6e6447811e2b506a5f19" target="_top" xlink:title="Retorna qual o próximo estado a partir do estado atual e um evento. ">
<polygon fill="none" stroke="#000000" points="77,-422 77,-452 226,-452 226,-422 77,-422"/>
<text text-anchor="start" x="85" y="-440" font-family="Fira Code" font-size="10.00" fill="#000000">FSM::fsm_obter_proximo</text>
<text text-anchor="middle" x="151.5" y="-429" font-family="Fira Code" font-size="10.00" fill="#000000">_estado</text>
</a>
</g>
</g>
<!-- Node14&#45;&gt;Node28 -->
<g id="edge15" class="edge">
<title>Node14&#45;&gt;Node28</title>
<path fill="none" stroke="#191970" d="M41.1621,-474.0482C51.8583,-470.4503 65.1298,-465.9875 77,-462 83.4299,-459.84 90.1724,-457.576 96.8634,-455.33"/>
<polygon fill="#191970" stroke="#191970" points="98.2208,-458.5663 106.5874,-452.0662 95.9934,-451.9301 98.2208,-458.5663"/>
</g>
<!-- Node29 -->
<g id="node16" class="node">
<title>Node29</title>
<g id="a_node16"><a xlink:href="../../d1/df5/classMachina.html#a17c3a5d0ed70dbc9fbecc9a9c737c075" target="_top" xlink:title="Inicializa componentes da vending machine. ">
<polygon fill="none" stroke="#000000" points="80,-152.5 80,-171.5 223,-171.5 223,-152.5 80,-152.5"/>
<text text-anchor="middle" x="151.5" y="-159.5" font-family="Fira Code" font-size="10.00" fill="#000000">Machina::machina_init</text>
</a>
</g>
</g>
<!-- Node14&#45;&gt;Node29 -->
<g id="edge16" class="edge">
<title>Node14&#45;&gt;Node29</title>
<path fill="none" stroke="#191970" d="M24.4206,-471.453C42.6133,-427.1516 118.9659,-241.2242 143.7181,-180.9499"/>
<polygon fill="#191970" stroke="#191970" points="147.0335,-182.0898 147.5947,-171.5098 140.5583,-179.4306 147.0335,-182.0898"/>
</g>
<!-- Node16&#45;&gt;Node15 -->
<g id="edge12" class="edge">
<title>Node16&#45;&gt;Node15</title>
<path fill="none" stroke="#191970" d="M157.5428,-528.5837C170.5559,-549.3391 201.9938,-600.1154 226,-644 243.17,-675.3877 233.7734,-694.0169 262,-716 264.1228,-717.6533 266.3597,-719.1693 268.685,-720.5591"/>
<polygon fill="#191970" stroke="#191970" points="267.5386,-723.9028 278.0386,-725.3175 270.7126,-717.6637 267.5386,-723.9028"/>
</g>
<!-- Node17 -->
<g id="node4" class="node">
<title>Node17</title>
<g id="a_node4"><a xlink:href="../../d1/d1b/classAtuadores.html#abc1cd7f170c8442f5a7cb93353f98a1b" target="_top" xlink:title="Envia o comando de liberação do produto indicado. ">
<polygon fill="none" stroke="#000000" points="280,-676 280,-706 417,-706 417,-676 280,-676"/>
<text text-anchor="start" x="288" y="-694" font-family="Fira Code" font-size="10.00" fill="#000000">Atuadores::atuadores</text>
<text text-anchor="middle" x="348.5" y="-683" font-family="Fira Code" font-size="10.00" fill="#000000">_libera_produto</text>
</a>
</g>
</g>
<!-- Node16&#45;&gt;Node17 -->
<g id="edge3" class="edge">
<title>Node16&#45;&gt;Node17</title>
<path fill="none" stroke="#191970" d="M155.8919,-528.6859C168.4106,-555.1732 206.9543,-629.3368 262,-667 264.7654,-668.8921 267.6763,-670.6357 270.689,-672.2423"/>
<polygon fill="#191970" stroke="#191970" points="269.4538,-675.5304 279.9879,-676.663 272.4593,-669.2085 269.4538,-675.5304"/>
</g>
<!-- Node18 -->
<g id="node5" class="node">
<title>Node18</title>
<g id="a_node5"><a xlink:href="../../de/d0a/classBoca.html#ad9c22e6b5d16bbaf19d1a18c345a74ee" target="_top" xlink:title="Recebe uma quantia de dinheiro. ">
<polygon fill="none" stroke="#000000" points="271,-627 271,-657 426,-657 426,-627 271,-627"/>
<text text-anchor="start" x="279" y="-645" font-family="Fira Code" font-size="10.00" fill="#000000">Boca::boca_caixa_recebe</text>
<text text-anchor="middle" x="348.5" y="-634" font-family="Fira Code" font-size="10.00" fill="#000000">_moedas</text>
</a>
</g>
</g>
<!-- Node16&#45;&gt;Node18 -->
<g id="edge4" class="edge">
<title>Node16&#45;&gt;Node18</title>
<path fill="none" stroke="#191970" d="M159.5659,-528.7725C176.4662,-548.6101 217.7105,-593.7698 262,-618 265.4394,-619.8817 269.0382,-621.6253 272.7317,-623.2398"/>
<polygon fill="#191970" stroke="#191970" points="271.4874,-626.5117 282.0713,-626.9923 274.0971,-620.0164 271.4874,-626.5117"/>
</g>
<!-- Node19 -->
<g id="node6" class="node">
<title>Node19</title>
<g id="a_node6"><a xlink:href="../../de/d0a/classBoca.html#a27c6c473ad1d185ca454c35a1b5c2ed7" target="_top" xlink:title="Recebe uma quantia de dinheiro. ">
<polygon fill="none" stroke="#000000" points="271,-578 271,-608 426,-608 426,-578 271,-578"/>
<text text-anchor="start" x="279" y="-596" font-family="Fira Code" font-size="10.00" fill="#000000">Boca::boca_caixa_recebe</text>
<text text-anchor="middle" x="348.5" y="-585" font-family="Fira Code" font-size="10.00" fill="#000000">_notas</text>
</a>
</g>
</g>
<!-- Node16&#45;&gt;Node19 -->
<g id="edge5" class="edge">
<title>Node16&#45;&gt;Node19</title>
<path fill="none" stroke="#191970" d="M170.2933,-528.5822C191.99,-539.3893 228.9408,-557.0154 262,-569 267.7691,-571.0914 273.8098,-573.1072 279.9022,-575.0213"/>
<polygon fill="#191970" stroke="#191970" points="278.9008,-578.3749 289.4868,-577.9414 280.941,-571.6788 278.9008,-578.3749"/>
</g>
<!-- Node20 -->
<g id="node7" class="node">
<title>Node20</title>
<g id="a_node7"><a xlink:href="../../d4/d7f/classCaixa.html#a41e7c35f4803f6c8423fde1b37553fea" target="_top" xlink:title="Libera uma quantia de dinheiro correspondente ao troco da compra. ">
<polygon fill="none" stroke="#000000" points="286,-529 286,-559 411,-559 411,-529 286,-529"/>
<text text-anchor="start" x="294" y="-547" font-family="Fira Code" font-size="10.00" fill="#000000">Caixa::caixa_troco</text>
<text text-anchor="middle" x="348.5" y="-536" font-family="Fira Code" font-size="10.00" fill="#000000">_emite_troco</text>
</a>
</g>
</g>
<!-- Node16&#45;&gt;Node20 -->
<g id="edge6" class="edge">
<title>Node16&#45;&gt;Node20</title>
<path fill="none" stroke="#191970" d="M199.1882,-525.0518C222.2091,-527.9732 250.3292,-531.5418 275.9325,-534.7909"/>
<polygon fill="#191970" stroke="#191970" points="275.6166,-538.2788 285.9777,-536.0657 276.4979,-531.3345 275.6166,-538.2788"/>
</g>
<!-- Node21 -->
<g id="node8" class="node">
<title>Node21</title>
<g id="a_node8"><a xlink:href="../../d4/d7f/classCaixa.html#a10ed306a1ac30130747a2b76751f0e8d" target="_top" xlink:title="Acrescenta uma quantia de dinheiro ao troco disponível. ">
<polygon fill="none" stroke="#000000" points="286,-480 286,-510 411,-510 411,-480 286,-480"/>
<text text-anchor="start" x="294" y="-498" font-family="Fira Code" font-size="10.00" fill="#000000">Caixa::caixa_troco</text>
<text text-anchor="middle" x="348.5" y="-487" font-family="Fira Code" font-size="10.00" fill="#000000">_insere_troco</text>
</a>
</g>
</g>
<!-- Node16&#45;&gt;Node21 -->
<g id="edge7" class="edge">
<title>Node16&#45;&gt;Node21</title>
<path fill="none" stroke="#191970" d="M199.1882,-513.1903C222.2091,-510.3857 250.3292,-506.9599 275.9325,-503.8407"/>
<polygon fill="#191970" stroke="#191970" points="276.4744,-507.3007 285.9777,-502.6169 275.6278,-500.352 276.4744,-507.3007"/>
</g>
<!-- Node22 -->
<g id="node9" class="node">
<title>Node22</title>
<g id="a_node9"><a xlink:href="../../d6/dd6/classDisplay.html#a5ad5c75a47069f4c7f5548c9381684d5" target="_top" xlink:title="Exibe uma mensagem para o usuário por meio do display. ">
<polygon fill="none" stroke="#000000" points="262,-441.5 262,-460.5 435,-460.5 435,-441.5 262,-441.5"/>
<text text-anchor="middle" x="348.5" y="-448.5" font-family="Fira Code" font-size="10.00" fill="#000000">Display::display_exibe_msg</text>
</a>
</g>
</g>
<!-- Node16&#45;&gt;Node22 -->
<g id="edge8" class="edge">
<title>Node16&#45;&gt;Node22</title>
<path fill="none" stroke="#191970" d="M199.1022,-510.106C208.2874,-507.4959 217.6439,-504.1808 226,-500 244.3741,-490.8068 243.5237,-479.986 262,-471 267.9603,-468.1012 274.3588,-465.6119 280.8801,-463.4764"/>
<polygon fill="#191970" stroke="#191970" points="281.9134,-466.8206 290.4856,-460.5943 279.9016,-460.1159 281.9134,-466.8206"/>
</g>
<!-- Node23 -->
<g id="node10" class="node">
<title>Node23</title>
<g id="a_node10"><a xlink:href="../../d5/d5c/estoque_8c.html#a5e2fb15ec177cdbc857d88cd0cfa1b3e" target="_top" xlink:title="estoque_calcula_troco">
<polygon fill="none" stroke="#000000" points="277,-403.5 277,-422.5 420,-422.5 420,-403.5 277,-403.5"/>
<text text-anchor="middle" x="348.5" y="-410.5" font-family="Fira Code" font-size="10.00" fill="#000000">estoque_calcula_troco</text>
</a>
</g>
</g>
<!-- Node16&#45;&gt;Node23 -->
<g id="edge9" class="edge">
<title>Node16&#45;&gt;Node23</title>
<path fill="none" stroke="#191970" d="M199.1546,-513.108C208.7387,-510.2739 218.2382,-506.109 226,-500 252.8715,-478.8504 234.7781,-452.6967 262,-432 264.3523,-430.2116 266.8389,-428.5846 269.4264,-427.1049"/>
<polygon fill="#191970" stroke="#191970" points="271.1287,-430.1683 278.5641,-422.6208 268.0448,-423.8842 271.1287,-430.1683"/>
</g>
<!-- Node25 -->
<g id="node12" class="node">
<title>Node25</title>
<g id="a_node12"><a xlink:href="../../db/dff/classEstoque.html#a2d93887a8d89def26bd091fd3bc4e4d7" target="_top" xlink:title="Define se os dados inseridos pelos clientes configuram uma compra válida. ">
<polygon fill="none" stroke="#000000" points="271,-354 271,-384 426,-384 426,-354 271,-354"/>
<text text-anchor="start" x="279" y="-372" font-family="Fira Code" font-size="10.00" fill="#000000">Estoque::estoque_compra</text>
<text text-anchor="middle" x="348.5" y="-361" font-family="Fira Code" font-size="10.00" fill="#000000">_valida</text>
</a>
</g>
</g>
<!-- Node16&#45;&gt;Node25 -->
<g id="edge11" class="edge">
<title>Node16&#45;&gt;Node25</title>
<path fill="none" stroke="#191970" d="M199.1563,-514.2472C208.9624,-511.3626 218.5536,-506.8893 226,-500 262.5211,-466.2114 226.018,-428.3621 262,-394 263.6534,-392.4211 265.4001,-390.941 267.2242,-389.5535"/>
<polygon fill="#191970" stroke="#191970" points="269.2049,-392.4404 275.6676,-384.0449 265.38,-386.5777 269.2049,-392.4404"/>
</g>
<!-- Node26 -->
<g id="node13" class="node">
<title>Node26</title>
<g id="a_node13"><a xlink:href="../../de/dcb/classTeclado.html#accc923a97665be4f8f473de70bf3641e" target="_top" xlink:title="Lê o código de produto digitado pelo usuário. ">
<polygon fill="none" stroke="#000000" points="283,-305 283,-335 414,-335 414,-305 283,-305"/>
<text text-anchor="start" x="291" y="-323" font-family="Fira Code" font-size="10.00" fill="#000000">Teclado::teclado_le</text>
<text text-anchor="middle" x="348.5" y="-312" font-family="Fira Code" font-size="10.00" fill="#000000">_prod_id</text>
</a>
</g>
</g>
<!-- Node16&#45;&gt;Node26 -->
<g id="edge13" class="edge">
<title>Node16&#45;&gt;Node26</title>
<path fill="none" stroke="#191970" d="M199.2978,-514.9037C209.2138,-511.998 218.8161,-507.3504 226,-500 275.7349,-449.1124 212.8006,-395.4055 262,-344 265.455,-340.3901 269.4014,-337.308 273.6619,-334.678"/>
<polygon fill="#191970" stroke="#191970" points="275.5608,-337.6344 282.7916,-329.8906 272.3099,-331.435 275.5608,-337.6344"/>
</g>
<!-- Node24 -->
<g id="node11" class="node">
<title>Node24</title>
<g id="a_node11"><a xlink:href="../../db/dff/classEstoque.html#a65a97d14e6d4caebb236121f8f12679c" target="_top" xlink:title="Realiza uma busca no estoque a partir de um id de produto. ">
<polygon fill="none" stroke="#000000" points="471,-398 471,-428 620,-428 620,-398 471,-398"/>
<text text-anchor="start" x="479" y="-416" font-family="Fira Code" font-size="10.00" fill="#000000">Estoque::estoque_index</text>
<text text-anchor="middle" x="545.5" y="-405" font-family="Fira Code" font-size="10.00" fill="#000000">_from_id</text>
</a>
</g>
</g>
<!-- Node23&#45;&gt;Node24 -->
<g id="edge10" class="edge">
<title>Node23&#45;&gt;Node24</title>
<path fill="none" stroke="#191970" d="M420.1788,-413C433.3289,-413 447.1694,-413 460.6612,-413"/>
<polygon fill="#191970" stroke="#191970" points="460.8933,-416.5001 470.8933,-413 460.8933,-409.5001 460.8933,-416.5001"/>
</g>
<!-- Node30 -->
<g id="node17" class="node">
<title>Node30</title>
<g id="a_node17"><a xlink:href="../../d7/da5/classFSM.html#a6d28dcad43166c03b061f129a8759018" target="_top" xlink:title="Função de inicialização da máquina de estados. ">
<polygon fill="none" stroke="#000000" points="301,-266.5 301,-285.5 396,-285.5 396,-266.5 301,-266.5"/>
<text text-anchor="middle" x="348.5" y="-273.5" font-family="Fira Code" font-size="10.00" fill="#000000">FSM::fsm_init</text>
</a>
</g>
</g>
<!-- Node29&#45;&gt;Node30 -->
<g id="edge17" class="edge">
<title>Node29&#45;&gt;Node30</title>
<path fill="none" stroke="#191970" d="M159.5539,-171.5584C176.4322,-190.9279 217.638,-234.8456 262,-257 270.9754,-261.4823 280.995,-264.9141 290.9433,-267.5396"/>
<polygon fill="#191970" stroke="#191970" points="290.2865,-270.9811 300.8266,-269.9054 291.9162,-264.1735 290.2865,-270.9811"/>
</g>
<!-- Node31 -->
<g id="node18" class="node">
<title>Node31</title>
<g id="a_node18"><a xlink:href="../../db/dff/classEstoque.html#ae981f8c5ceb2ff989161e456f7db68c7" target="_top" xlink:title="Função de inicialização do estoque com alguns produtos base. ">
<polygon fill="none" stroke="#000000" points="277,-228.5 277,-247.5 420,-247.5 420,-228.5 277,-228.5"/>
<text text-anchor="middle" x="348.5" y="-235.5" font-family="Fira Code" font-size="10.00" fill="#000000">Estoque::estoque_init</text>
</a>
</g>
</g>
<!-- Node29&#45;&gt;Node31 -->
<g id="edge18" class="edge">
<title>Node29&#45;&gt;Node31</title>
<path fill="none" stroke="#191970" d="M167.0148,-171.6581C187.877,-184.2517 226.4662,-206.1808 262,-219 269.3219,-221.6414 277.1306,-223.9812 284.9473,-226.0353"/>
<polygon fill="#191970" stroke="#191970" points="284.268,-229.4728 294.8167,-228.4856 285.9547,-222.6791 284.268,-229.4728"/>
</g>
<!-- Node32 -->
<g id="node19" class="node">
<title>Node32</title>
<g id="a_node19"><a xlink:href="../../de/d0a/classBoca.html#ad0b071292b6c58df7adb93d30cc5a0fa" target="_top" xlink:title="Função de inicialização do componente. ">
<polygon fill="none" stroke="#000000" points="277,-190.5 277,-209.5 420,-209.5 420,-190.5 277,-190.5"/>
<text text-anchor="middle" x="348.5" y="-197.5" font-family="Fira Code" font-size="10.00" fill="#000000">Boca::boca_caixa_init</text>
</a>
</g>
</g>
<!-- Node29&#45;&gt;Node32 -->
<g id="edge19" class="edge">
<title>Node29&#45;&gt;Node32</title>
<path fill="none" stroke="#191970" d="M200.9571,-171.54C227.654,-176.6896 260.804,-183.084 288.9151,-188.5065"/>
<polygon fill="#191970" stroke="#191970" points="288.5406,-191.9987 299.0225,-190.4561 289.8665,-185.1254 288.5406,-191.9987"/>
</g>
<!-- Node33 -->
<g id="node20" class="node">
<title>Node33</title>
<g id="a_node20"><a xlink:href="../../d1/d1b/classAtuadores.html#a32b7777f9c06dafde01e55378c9e1af6" target="_top" xlink:title="Função de inicialização do componente. ">
<polygon fill="none" stroke="#000000" points="265,-152.5 265,-171.5 432,-171.5 432,-152.5 265,-152.5"/>
<text text-anchor="middle" x="348.5" y="-159.5" font-family="Fira Code" font-size="10.00" fill="#000000">Atuadores::atuadores_init</text>
</a>
</g>
</g>
<!-- Node29&#45;&gt;Node33 -->
<g id="edge20" class="edge">
<title>Node29&#45;&gt;Node33</title>
<path fill="none" stroke="#191970" d="M223.1788,-162C233.4333,-162 244.1076,-162 254.7091,-162"/>
<polygon fill="#191970" stroke="#191970" points="254.8349,-165.5001 264.8349,-162 254.8348,-158.5001 254.8349,-165.5001"/>
</g>
<!-- Node34 -->
<g id="node21" class="node">
<title>Node34</title>
<g id="a_node21"><a xlink:href="../../d6/dd6/classDisplay.html#a8d41c12af4f6e6faad84e1f21f99b3e1" target="_top" xlink:title="Função de inicialização do componente. ">
<polygon fill="none" stroke="#000000" points="277,-114.5 277,-133.5 420,-133.5 420,-114.5 277,-114.5"/>
<text text-anchor="middle" x="348.5" y="-121.5" font-family="Fira Code" font-size="10.00" fill="#000000">Display::display_init</text>
</a>
</g>
</g>
<!-- Node29&#45;&gt;Node34 -->
<g id="edge21" class="edge">
<title>Node29&#45;&gt;Node34</title>
<path fill="none" stroke="#191970" d="M200.9571,-152.46C227.654,-147.3104 260.804,-140.916 288.9151,-135.4935"/>
<polygon fill="#191970" stroke="#191970" points="289.8665,-138.8746 299.0225,-133.5439 288.5406,-132.0013 289.8665,-138.8746"/>
</g>
<!-- Node35 -->
<g id="node22" class="node">
<title>Node35</title>
<g id="a_node22"><a xlink:href="../../de/dcb/classTeclado.html#ab96e8a4130d807871058321aa4ab0630" target="_top" xlink:title="Função de inicialização do componente. ">
<polygon fill="none" stroke="#000000" points="277,-76.5 277,-95.5 420,-95.5 420,-76.5 277,-76.5"/>
<text text-anchor="middle" x="348.5" y="-83.5" font-family="Fira Code" font-size="10.00" fill="#000000">Teclado::teclado_init</text>
</a>
</g>
</g>
<!-- Node29&#45;&gt;Node35 -->
<g id="edge22" class="edge">
<title>Node29&#45;&gt;Node35</title>
<path fill="none" stroke="#191970" d="M167.0148,-152.3419C187.877,-139.7483 226.4662,-117.8192 262,-105 269.3219,-102.3586 277.1306,-100.0188 284.9473,-97.9647"/>
<polygon fill="#191970" stroke="#191970" points="285.9547,-101.3209 294.8167,-95.5144 284.268,-94.5272 285.9547,-101.3209"/>
</g>
<!-- Node36 -->
<g id="node23" class="node">
<title>Node36</title>
<g id="a_node23"><a xlink:href="../../df/d87/classTrava.html#a525662648702cd87a3832730d7e37223" target="_top" xlink:title="Função de inicialização do componente. ">
<polygon fill="none" stroke="#000000" points="289,-38.5 289,-57.5 408,-57.5 408,-38.5 289,-38.5"/>
<text text-anchor="middle" x="348.5" y="-45.5" font-family="Fira Code" font-size="10.00" fill="#000000">Trava::trava_init</text>
</a>
</g>
</g>
<!-- Node29&#45;&gt;Node36 -->
<g id="edge23" class="edge">
<title>Node29&#45;&gt;Node36</title>
<path fill="none" stroke="#191970" d="M159.5539,-152.4416C176.4322,-133.0721 217.638,-89.1544 262,-67 267.3754,-64.3155 273.1253,-62.0079 279.01,-60.0246"/>
<polygon fill="#191970" stroke="#191970" points="280.4516,-63.2444 288.9988,-56.9838 278.4129,-56.5479 280.4516,-63.2444"/>
</g>
<!-- Node37 -->
<g id="node24" class="node">
<title>Node37</title>
<g id="a_node24"><a xlink:href="../../d4/d7f/classCaixa.html#ae73fa20544755e13bae7f29f98718026" target="_top" xlink:title="Função de inicialização do componente. ">
<polygon fill="none" stroke="#000000" points="271,-.5 271,-19.5 426,-19.5 426,-.5 271,-.5"/>
<text text-anchor="middle" x="348.5" y="-7.5" font-family="Fira Code" font-size="10.00" fill="#000000">Caixa::caixa_troco_init</text>
</a>
</g>
</g>
<!-- Node29&#45;&gt;Node37 -->
<g id="edge24" class="edge">
<title>Node29&#45;&gt;Node37</title>
<path fill="none" stroke="#191970" d="M156.4542,-152.4415C169.8155,-127.6824 209.1786,-61.1587 262,-29 265.4474,-26.9012 269.0973,-25.033 272.8719,-23.3702"/>
<polygon fill="#191970" stroke="#191970" points="274.4113,-26.5272 282.4671,-19.6458 271.8783,-20.0015 274.4113,-26.5272"/>
</g>
</g>
</svg>
