<?xml version="1.0" encoding="UTF-8" standalone="no"?>
<!DOCTYPE svg PUBLIC "-//W3C//DTD SVG 1.1//EN"
 "http://www.w3.org/Graphics/SVG/1.1/DTD/svg11.dtd">
<!-- Generated by graphviz version 2.40.1 (20161225.0304)
 -->
<!-- Title: main Pages: 1 -->
<svg width="246pt" height="104pt"
 viewBox="0.00 0.00 246.00 104.00" xmlns="http://www.w3.org/2000/svg" xmlns:xlink="http://www.w3.org/1999/xlink">
<g id="graph0" class="graph" transform="scale(1 1) rotate(0) translate(4 100)">
<title>main</title>
<!-- Node6 -->
<g id="node1" class="node">
<title>Node6</title>
<polygon fill="#bfbfbf" stroke="#000000" points="0,-38.5 0,-57.5 41,-57.5 41,-38.5 0,-38.5"/>
<text text-anchor="middle" x="20.5" y="-45.5" font-family="Fira Code" font-size="10.00" fill="#000000">main</text>
</g>
<!-- Node7 -->
<g id="node2" class="node">
<title>Node7</title>
<g id="a_node2"><a xlink:href="../../dd/d4e/atuadores_8c.html#abc1cd7f170c8442f5a7cb93353f98a1b" target="_top" xlink:title="Envia o comando de liberação do produto indicado. ">
<polygon fill="none" stroke="#000000" points="77,-76.5 77,-95.5 238,-95.5 238,-76.5 77,-76.5"/>
<text text-anchor="middle" x="157.5" y="-83.5" font-family="Fira Code" font-size="10.00" fill="#000000">atuadores_libera_produto</text>
</a>
</g>
</g>
<!-- Node6&#45;&gt;Node7 -->
<g id="edge1" class="edge">
<title>Node6&#45;&gt;Node7</title>
<path fill="none" stroke="#191970" d="M41.0196,-55.4106C51.6782,-59.1297 64.959,-63.5624 77,-67 85.7206,-69.4897 95.0379,-71.9073 104.1266,-74.1369"/>
<polygon fill="#191970" stroke="#191970" points="103.319,-77.5424 113.8602,-76.477 104.9554,-70.7363 103.319,-77.5424"/>
</g>
<!-- Node8 -->
<g id="node3" class="node">
<title>Node8</title>
<g id="a_node3"><a xlink:href="../../db/d85/display_8c.html#ab40bbdd654d01b8ee4e3318f96addb0d" target="_top" xlink:title="Exibe uma mensagem para o usuário por meio do display. ">
<polygon fill="none" stroke="#000000" points="98,-38.5 98,-57.5 217,-57.5 217,-38.5 98,-38.5"/>
<text text-anchor="middle" x="157.5" y="-45.5" font-family="Fira Code" font-size="10.00" fill="#000000">display_exibe_msg</text>
</a>
</g>
</g>
<!-- Node6&#45;&gt;Node8 -->
<g id="edge2" class="edge">
<title>Node6&#45;&gt;Node8</title>
<path fill="none" stroke="#191970" d="M41.0103,-48C53.6772,-48 70.744,-48 87.9026,-48"/>
<polygon fill="#191970" stroke="#191970" points="87.9834,-51.5001 97.9834,-48 87.9834,-44.5001 87.9834,-51.5001"/>
</g>
<!-- Node9 -->
<g id="node4" class="node">
<title>Node9</title>
<g id="a_node4"><a xlink:href="../../df/d99/teclado_8c.html#accc923a97665be4f8f473de70bf3641e" target="_top" xlink:title="Lê o código de produto digitado pelo usuário. ">
<polygon fill="none" stroke="#000000" points="95,-.5 95,-19.5 220,-19.5 220,-.5 95,-.5"/>
<text text-anchor="middle" x="157.5" y="-7.5" font-family="Fira Code" font-size="10.00" fill="#000000">teclado_le_prod_id</text>
</a>
</g>
</g>
<!-- Node6&#45;&gt;Node9 -->
<g id="edge3" class="edge">
<title>Node6&#45;&gt;Node9</title>
<path fill="none" stroke="#191970" d="M41.0196,-40.5894C51.6782,-36.8703 64.959,-32.4376 77,-29 85.7206,-26.5103 95.0379,-24.0927 104.1266,-21.8631"/>
<polygon fill="#191970" stroke="#191970" points="104.9554,-25.2637 113.8602,-19.523 103.319,-18.4576 104.9554,-25.2637"/>
</g>
</g>
</svg>
