<?xml version="1.0" encoding="UTF-8" standalone="no"?>
<!DOCTYPE svg PUBLIC "-//W3C//DTD SVG 1.1//EN"
 "http://www.w3.org/Graphics/SVG/1.1/DTD/svg11.dtd">
<!-- Generated by graphviz version 2.40.1 (20161225.0304)
 -->
<!-- Title: executar_acao Pages: 1 -->
<svg width="497pt" height="449pt"
 viewBox="0.00 0.00 497.00 449.00" xmlns="http://www.w3.org/2000/svg" xmlns:xlink="http://www.w3.org/1999/xlink">
<g id="graph0" class="graph" transform="scale(1 1) rotate(0) translate(4 445)">
<title>executar_acao</title>
<!-- Node0 -->
<g id="node1" class="node">
<title>Node0</title>
<polygon fill="#bfbfbf" stroke="#000000" points="0,-198 0,-217 95,-217 95,-198 0,-198"/>
<text text-anchor="middle" x="47.5" y="-205" font-family="Fira Code" font-size="10.00" fill="#000000">executar_acao</text>
</g>
<!-- Node1 -->
<g id="node2" class="node">
<title>Node1</title>
<g id="a_node2"><a xlink:href="../../d1/d1b/classAtuadores.html#abc1cd7f170c8442f5a7cb93353f98a1b" target="_top" xlink:title="Envia o comando de liberação do produto indicado. ">
<polygon fill="none" stroke="#000000" points="149,-410.5 149,-440.5 286,-440.5 286,-410.5 149,-410.5"/>
<text text-anchor="start" x="157" y="-428.5" font-family="Fira Code" font-size="10.00" fill="#000000">Atuadores::atuadores</text>
<text text-anchor="middle" x="217.5" y="-417.5" font-family="Fira Code" font-size="10.00" fill="#000000">_libera_produto</text>
</a>
</g>
</g>
<!-- Node0&#45;&gt;Node1 -->
<g id="edge1" class="edge">
<title>Node0&#45;&gt;Node1</title>
<path fill="none" stroke="#191970" d="M48.731,-217.2858C53.2513,-249.0053 71.8773,-349.9063 131,-401.5 133.7246,-403.8776 136.6659,-406.0214 139.7622,-407.9542"/>
<polygon fill="#191970" stroke="#191970" points="138.3857,-411.1886 148.8476,-412.8616 141.7124,-405.0296 138.3857,-411.1886"/>
</g>
<!-- Node2 -->
<g id="node3" class="node">
<title>Node2</title>
<g id="a_node3"><a xlink:href="../../de/d0a/classBoca.html#ad9c22e6b5d16bbaf19d1a18c345a74ee" target="_top" xlink:title="Recebe uma quantia de dinheiro. ">
<polygon fill="none" stroke="#000000" points="140,-361.5 140,-391.5 295,-391.5 295,-361.5 140,-361.5"/>
<text text-anchor="start" x="148" y="-379.5" font-family="Fira Code" font-size="10.00" fill="#000000">Boca::boca_caixa_recebe</text>
<text text-anchor="middle" x="217.5" y="-368.5" font-family="Fira Code" font-size="10.00" fill="#000000">_moedas</text>
</a>
</g>
</g>
<!-- Node0&#45;&gt;Node2 -->
<g id="edge2" class="edge">
<title>Node0&#45;&gt;Node2</title>
<path fill="none" stroke="#191970" d="M50.2831,-217.3538C58.2133,-243.5915 83.4771,-315.6567 131,-352.5 132.8013,-353.8965 134.6791,-355.2118 136.6188,-356.4506"/>
<polygon fill="#191970" stroke="#191970" points="135.0388,-359.5771 145.4745,-361.4066 138.4574,-353.4686 135.0388,-359.5771"/>
</g>
<!-- Node3 -->
<g id="node4" class="node">
<title>Node3</title>
<g id="a_node4"><a xlink:href="../../de/d0a/classBoca.html#a27c6c473ad1d185ca454c35a1b5c2ed7" target="_top" xlink:title="Recebe uma quantia de dinheiro. ">
<polygon fill="none" stroke="#000000" points="140,-312.5 140,-342.5 295,-342.5 295,-312.5 140,-312.5"/>
<text text-anchor="start" x="148" y="-330.5" font-family="Fira Code" font-size="10.00" fill="#000000">Boca::boca_caixa_recebe</text>
<text text-anchor="middle" x="217.5" y="-319.5" font-family="Fira Code" font-size="10.00" fill="#000000">_notas</text>
</a>
</g>
</g>
<!-- Node0&#45;&gt;Node3 -->
<g id="edge3" class="edge">
<title>Node0&#45;&gt;Node3</title>
<path fill="none" stroke="#191970" d="M53.076,-217.0417C64.8895,-236.3986 94.3827,-280.4004 131,-303.5 133.6177,-305.1513 136.3498,-306.6909 139.1628,-308.1261"/>
<polygon fill="#191970" stroke="#191970" points="137.8331,-311.3669 148.3809,-312.3635 140.7568,-305.0067 137.8331,-311.3669"/>
</g>
<!-- Node4 -->
<g id="node5" class="node">
<title>Node4</title>
<g id="a_node5"><a xlink:href="../../d4/d7f/classCaixa.html#a41e7c35f4803f6c8423fde1b37553fea" target="_top" xlink:title="Libera uma quantia de dinheiro correspondente ao troco da compra. ">
<polygon fill="none" stroke="#000000" points="155,-263.5 155,-293.5 280,-293.5 280,-263.5 155,-263.5"/>
<text text-anchor="start" x="163" y="-281.5" font-family="Fira Code" font-size="10.00" fill="#000000">Caixa::caixa_troco</text>
<text text-anchor="middle" x="217.5" y="-270.5" font-family="Fira Code" font-size="10.00" fill="#000000">_emite_troco</text>
</a>
</g>
</g>
<!-- Node0&#45;&gt;Node4 -->
<g id="edge4" class="edge">
<title>Node0&#45;&gt;Node4</title>
<path fill="none" stroke="#191970" d="M62.0347,-217.1226C78.2762,-227.5263 105.6304,-244.0224 131,-254.5 135.9516,-256.545 141.133,-258.4735 146.3933,-260.28"/>
<polygon fill="#191970" stroke="#191970" points="145.3216,-263.6119 155.9143,-263.3986 147.5006,-256.9596 145.3216,-263.6119"/>
</g>
<!-- Node5 -->
<g id="node6" class="node">
<title>Node5</title>
<g id="a_node6"><a xlink:href="../../d4/d7f/classCaixa.html#a10ed306a1ac30130747a2b76751f0e8d" target="_top" xlink:title="Acrescenta uma quantia de dinheiro ao troco disponível. ">
<polygon fill="none" stroke="#000000" points="155,-214.5 155,-244.5 280,-244.5 280,-214.5 155,-214.5"/>
<text text-anchor="start" x="163" y="-232.5" font-family="Fira Code" font-size="10.00" fill="#000000">Caixa::caixa_troco</text>
<text text-anchor="middle" x="217.5" y="-221.5" font-family="Fira Code" font-size="10.00" fill="#000000">_insere_troco</text>
</a>
</g>
</g>
<!-- Node0&#45;&gt;Node5 -->
<g id="edge5" class="edge">
<title>Node0&#45;&gt;Node5</title>
<path fill="none" stroke="#191970" d="M95.3069,-213.6868C110.5964,-215.6654 127.8859,-217.9029 144.5453,-220.0588"/>
<polygon fill="#191970" stroke="#191970" points="144.4467,-223.5751 154.8132,-221.3876 145.3451,-216.633 144.4467,-223.5751"/>
</g>
<!-- Node6 -->
<g id="node7" class="node">
<title>Node6</title>
<g id="a_node7"><a xlink:href="../../d6/dd6/classDisplay.html#a5ad5c75a47069f4c7f5548c9381684d5" target="_top" xlink:title="Exibe uma mensagem para o usuário por meio do display. ">
<polygon fill="none" stroke="#000000" points="131,-176 131,-195 304,-195 304,-176 131,-176"/>
<text text-anchor="middle" x="217.5" y="-183" font-family="Fira Code" font-size="10.00" fill="#000000">Display::display_exibe_msg</text>
</a>
</g>
</g>
<!-- Node0&#45;&gt;Node6 -->
<g id="edge6" class="edge">
<title>Node0&#45;&gt;Node6</title>
<path fill="none" stroke="#191970" d="M95.3069,-201.3132C107.3587,-199.7536 120.6531,-198.0331 133.902,-196.3186"/>
<polygon fill="#191970" stroke="#191970" points="134.5353,-199.7659 144.0034,-195.0113 133.6368,-192.8238 134.5353,-199.7659"/>
</g>
<!-- Node7 -->
<g id="node8" class="node">
<title>Node7</title>
<g id="a_node8"><a xlink:href="../../d5/d5c/estoque_8c.html#a5e2fb15ec177cdbc857d88cd0cfa1b3e" target="_top" xlink:title="estoque_calcula_troco">
<polygon fill="none" stroke="#000000" points="146,-138 146,-157 289,-157 289,-138 146,-138"/>
<text text-anchor="middle" x="217.5" y="-145" font-family="Fira Code" font-size="10.00" fill="#000000">estoque_calcula_troco</text>
</a>
</g>
</g>
<!-- Node0&#45;&gt;Node7 -->
<g id="edge7" class="edge">
<title>Node0&#45;&gt;Node7</title>
<path fill="none" stroke="#191970" d="M63.9394,-197.9517C80.4203,-188.7381 106.7605,-174.9744 131,-166.5 138.5325,-163.8666 146.5659,-161.52 154.5876,-159.4522"/>
<polygon fill="#191970" stroke="#191970" points="155.4506,-162.8444 164.3321,-157.0677 153.7867,-156.045 155.4506,-162.8444"/>
</g>
<!-- Node9 -->
<g id="node10" class="node">
<title>Node9</title>
<g id="a_node10"><a xlink:href="../../db/dff/classEstoque.html#a2d93887a8d89def26bd091fd3bc4e4d7" target="_top" xlink:title="Define se os dados inseridos pelos clientes configuram uma compra válida. ">
<polygon fill="none" stroke="#000000" points="140,-88.5 140,-118.5 295,-118.5 295,-88.5 140,-88.5"/>
<text text-anchor="start" x="148" y="-106.5" font-family="Fira Code" font-size="10.00" fill="#000000">Estoque::estoque_compra</text>
<text text-anchor="middle" x="217.5" y="-95.5" font-family="Fira Code" font-size="10.00" fill="#000000">_valida</text>
</a>
</g>
</g>
<!-- Node0&#45;&gt;Node9 -->
<g id="edge9" class="edge">
<title>Node0&#45;&gt;Node9</title>
<path fill="none" stroke="#191970" d="M54.9367,-197.9467C68.3498,-181.3615 98.2592,-147.2258 131,-128.5 134.8439,-126.3015 138.8964,-124.2834 143.064,-122.4328"/>
<polygon fill="#191970" stroke="#191970" points="144.403,-125.6666 152.3358,-118.6438 141.7549,-119.1868 144.403,-125.6666"/>
</g>
<!-- Node10 -->
<g id="node11" class="node">
<title>Node10</title>
<g id="a_node11"><a xlink:href="../../db/dff/classEstoque.html#a2ee235ff9ba6088c94a93a0925477a1c" target="_top" xlink:title="Imprime na tela uma lista dos produtos cadastrados. ">
<polygon fill="none" stroke="#000000" points="146,-50 146,-69 289,-69 289,-50 146,-50"/>
<text text-anchor="middle" x="217.5" y="-57" font-family="Fira Code" font-size="10.00" fill="#000000">Estoque::estoque_dump</text>
</a>
</g>
</g>
<!-- Node0&#45;&gt;Node10 -->
<g id="edge10" class="edge">
<title>Node0&#45;&gt;Node10</title>
<path fill="none" stroke="#191970" d="M52.612,-197.747C67.0009,-170.6467 108.274,-95.3836 131,-79.5 134.4822,-77.0663 138.2172,-74.9247 142.1103,-73.0407"/>
<polygon fill="#191970" stroke="#191970" points="143.5901,-76.2151 151.4365,-69.0957 140.863,-69.7681 143.5901,-76.2151"/>
</g>
<!-- Node11 -->
<g id="node12" class="node">
<title>Node11</title>
<g id="a_node12"><a xlink:href="../../de/dcb/classTeclado.html#accc923a97665be4f8f473de70bf3641e" target="_top" xlink:title="Lê o código de produto digitado pelo usuário. ">
<polygon fill="none" stroke="#000000" points="152,-.5 152,-30.5 283,-30.5 283,-.5 152,-.5"/>
<text text-anchor="start" x="160" y="-18.5" font-family="Fira Code" font-size="10.00" fill="#000000">Teclado::teclado_le</text>
<text text-anchor="middle" x="217.5" y="-7.5" font-family="Fira Code" font-size="10.00" fill="#000000">_prod_id</text>
</a>
</g>
</g>
<!-- Node0&#45;&gt;Node11 -->
<g id="edge11" class="edge">
<title>Node0&#45;&gt;Node11</title>
<path fill="none" stroke="#191970" d="M49.4606,-197.8902C55.7956,-169.3337 78.4353,-84.2605 131,-40.5 134.5422,-37.5511 138.4158,-34.9499 142.4976,-32.6553"/>
<polygon fill="#191970" stroke="#191970" points="144.2988,-35.6696 151.718,-28.1061 141.2015,-29.392 144.2988,-35.6696"/>
</g>
<!-- Node8 -->
<g id="node9" class="node">
<title>Node8</title>
<g id="a_node9"><a xlink:href="../../db/dff/classEstoque.html#a65a97d14e6d4caebb236121f8f12679c" target="_top" xlink:title="Realiza uma busca no estoque a partir de um id de produto. ">
<polygon fill="none" stroke="#000000" points="340,-132.5 340,-162.5 489,-162.5 489,-132.5 340,-132.5"/>
<text text-anchor="start" x="348" y="-150.5" font-family="Fira Code" font-size="10.00" fill="#000000">Estoque::estoque_index</text>
<text text-anchor="middle" x="414.5" y="-139.5" font-family="Fira Code" font-size="10.00" fill="#000000">_from_id</text>
</a>
</g>
</g>
<!-- Node7&#45;&gt;Node8 -->
<g id="edge8" class="edge">
<title>Node7&#45;&gt;Node8</title>
<path fill="none" stroke="#191970" d="M289.1788,-147.5C302.3289,-147.5 316.1694,-147.5 329.6612,-147.5"/>
<polygon fill="#191970" stroke="#191970" points="329.8933,-151.0001 339.8933,-147.5 329.8933,-144.0001 329.8933,-151.0001"/>
</g>
</g>
</svg>
