<?xml version="1.0" encoding="UTF-8" standalone="no"?>
<!DOCTYPE svg PUBLIC "-//W3C//DTD SVG 1.1//EN"
 "http://www.w3.org/Graphics/SVG/1.1/DTD/svg11.dtd">
<!-- Generated by graphviz version 2.40.1 (20161225.0304)
 -->
<!-- Title: Machina::machina_init Pages: 1 -->
<svg width="354pt" height="294pt"
 viewBox="0.00 0.00 354.00 294.00" xmlns="http://www.w3.org/2000/svg" xmlns:xlink="http://www.w3.org/1999/xlink">
<g id="graph0" class="graph" transform="scale(1 1) rotate(0) translate(4 290)">
<title>Machina::machina_init</title>
<!-- Node0 -->
<g id="node1" class="node">
<title>Node0</title>
<polygon fill="#bfbfbf" stroke="#000000" points="0,-133.5 0,-152.5 143,-152.5 143,-133.5 0,-133.5"/>
<text text-anchor="middle" x="71.5" y="-140.5" font-family="Fira Code" font-size="10.00" fill="#000000">Machina::machina_init</text>
</g>
<!-- Node1 -->
<g id="node2" class="node">
<title>Node1</title>
<g id="a_node2"><a xlink:href="../../d1/d1b/classAtuadores.html#a32b7777f9c06dafde01e55378c9e1af6" target="_top" xlink:title="Função de inicialização do componente. ">
<polygon fill="none" stroke="#000000" points="179,-266.5 179,-285.5 346,-285.5 346,-266.5 179,-266.5"/>
<text text-anchor="middle" x="262.5" y="-273.5" font-family="Fira Code" font-size="10.00" fill="#000000">Atuadores::atuadores_init</text>
</a>
</g>
</g>
<!-- Node0&#45;&gt;Node1 -->
<g id="edge1" class="edge">
<title>Node0&#45;&gt;Node1</title>
<path fill="none" stroke="#191970" d="M77.6802,-152.7678C92.3313,-175.0639 131.5279,-229.8675 179,-257 182.955,-259.2604 187.1594,-261.252 191.4969,-263.0066"/>
<polygon fill="#191970" stroke="#191970" points="190.5654,-266.391 201.1599,-266.4817 192.9344,-259.804 190.5654,-266.391"/>
</g>
<!-- Node2 -->
<g id="node3" class="node">
<title>Node2</title>
<g id="a_node3"><a xlink:href="../../de/d0a/classBoca.html#ad0b071292b6c58df7adb93d30cc5a0fa" target="_top" xlink:title="Função de inicialização do componente. ">
<polygon fill="none" stroke="#000000" points="191,-228.5 191,-247.5 334,-247.5 334,-228.5 191,-228.5"/>
<text text-anchor="middle" x="262.5" y="-235.5" font-family="Fira Code" font-size="10.00" fill="#000000">Boca::boca_caixa_init</text>
</a>
</g>
</g>
<!-- Node0&#45;&gt;Node2 -->
<g id="edge2" class="edge">
<title>Node0&#45;&gt;Node2</title>
<path fill="none" stroke="#191970" d="M81.9185,-152.5331C100.1768,-168.7136 139.7572,-201.4957 179,-219 184.4798,-221.4443 190.3072,-223.5901 196.2363,-225.4708"/>
<polygon fill="#191970" stroke="#191970" points="195.6875,-228.9563 206.2673,-228.3915 197.6445,-222.2354 195.6875,-228.9563"/>
</g>
<!-- Node3 -->
<g id="node4" class="node">
<title>Node3</title>
<g id="a_node4"><a xlink:href="../../d4/d7f/classCaixa.html#ae73fa20544755e13bae7f29f98718026" target="_top" xlink:title="Função de inicialização do componente. ">
<polygon fill="none" stroke="#000000" points="185,-190.5 185,-209.5 340,-209.5 340,-190.5 185,-190.5"/>
<text text-anchor="middle" x="262.5" y="-197.5" font-family="Fira Code" font-size="10.00" fill="#000000">Caixa::caixa_troco_init</text>
</a>
</g>
</g>
<!-- Node0&#45;&gt;Node3 -->
<g id="edge3" class="edge">
<title>Node0&#45;&gt;Node3</title>
<path fill="none" stroke="#191970" d="M96.0002,-152.5768C117.6193,-160.8063 150.0982,-172.6341 179,-181 187.8095,-183.55 197.2218,-185.9743 206.4349,-188.1854"/>
<polygon fill="#191970" stroke="#191970" points="205.7816,-191.627 216.316,-190.4969 207.3762,-184.811 205.7816,-191.627"/>
</g>
<!-- Node4 -->
<g id="node5" class="node">
<title>Node4</title>
<g id="a_node5"><a xlink:href="../../d6/dd6/classDisplay.html#a8d41c12af4f6e6faad84e1f21f99b3e1" target="_top" xlink:title="Função de inicialização do componente. ">
<polygon fill="none" stroke="#000000" points="191,-152.5 191,-171.5 334,-171.5 334,-152.5 191,-152.5"/>
<text text-anchor="middle" x="262.5" y="-159.5" font-family="Fira Code" font-size="10.00" fill="#000000">Display::display_init</text>
</a>
</g>
</g>
<!-- Node0&#45;&gt;Node4 -->
<g id="edge4" class="edge">
<title>Node0&#45;&gt;Node4</title>
<path fill="none" stroke="#191970" d="M143.1648,-150.129C155.443,-151.3503 168.2827,-152.6276 180.7994,-153.8727"/>
<polygon fill="#191970" stroke="#191970" points="180.4539,-157.3555 190.7513,-154.8627 181.1469,-150.3899 180.4539,-157.3555"/>
</g>
<!-- Node5 -->
<g id="node6" class="node">
<title>Node5</title>
<g id="a_node6"><a xlink:href="../../db/dff/classEstoque.html#ae981f8c5ceb2ff989161e456f7db68c7" target="_top" xlink:title="Função de inicialização do estoque com alguns produtos base. ">
<polygon fill="none" stroke="#000000" points="191,-114.5 191,-133.5 334,-133.5 334,-114.5 191,-114.5"/>
<text text-anchor="middle" x="262.5" y="-121.5" font-family="Fira Code" font-size="10.00" fill="#000000">Estoque::estoque_init</text>
</a>
</g>
</g>
<!-- Node0&#45;&gt;Node5 -->
<g id="edge5" class="edge">
<title>Node0&#45;&gt;Node5</title>
<path fill="none" stroke="#191970" d="M143.1648,-135.871C155.443,-134.6497 168.2827,-133.3724 180.7994,-132.1273"/>
<polygon fill="#191970" stroke="#191970" points="181.1469,-135.6101 190.7513,-131.1373 180.4539,-128.6445 181.1469,-135.6101"/>
</g>
<!-- Node6 -->
<g id="node7" class="node">
<title>Node6</title>
<g id="a_node7"><a xlink:href="../../d7/da5/classFSM.html#a6d28dcad43166c03b061f129a8759018" target="_top" xlink:title="Função de inicialização da máquina de estados. ">
<polygon fill="none" stroke="#000000" points="215,-76.5 215,-95.5 310,-95.5 310,-76.5 215,-76.5"/>
<text text-anchor="middle" x="262.5" y="-83.5" font-family="Fira Code" font-size="10.00" fill="#000000">FSM::fsm_init</text>
</a>
</g>
</g>
<!-- Node0&#45;&gt;Node6 -->
<g id="edge6" class="edge">
<title>Node0&#45;&gt;Node6</title>
<path fill="none" stroke="#191970" d="M96.0002,-133.4232C117.6193,-125.1937 150.0982,-113.3659 179,-105 187.8095,-102.45 197.2218,-100.0257 206.4349,-97.8146"/>
<polygon fill="#191970" stroke="#191970" points="207.3762,-101.189 216.316,-95.5031 205.7816,-94.373 207.3762,-101.189"/>
</g>
<!-- Node7 -->
<g id="node8" class="node">
<title>Node7</title>
<g id="a_node8"><a xlink:href="../../de/dcb/classTeclado.html#ab96e8a4130d807871058321aa4ab0630" target="_top" xlink:title="Função de inicialização do componente. ">
<polygon fill="none" stroke="#000000" points="191,-38.5 191,-57.5 334,-57.5 334,-38.5 191,-38.5"/>
<text text-anchor="middle" x="262.5" y="-45.5" font-family="Fira Code" font-size="10.00" fill="#000000">Teclado::teclado_init</text>
</a>
</g>
</g>
<!-- Node0&#45;&gt;Node7 -->
<g id="edge7" class="edge">
<title>Node0&#45;&gt;Node7</title>
<path fill="none" stroke="#191970" d="M81.9185,-133.4669C100.1768,-117.2864 139.7572,-84.5043 179,-67 184.4798,-64.5557 190.3072,-62.4099 196.2363,-60.5292"/>
<polygon fill="#191970" stroke="#191970" points="197.6445,-63.7646 206.2673,-57.6085 195.6875,-57.0437 197.6445,-63.7646"/>
</g>
<!-- Node8 -->
<g id="node9" class="node">
<title>Node8</title>
<g id="a_node9"><a xlink:href="../../df/d87/classTrava.html#a525662648702cd87a3832730d7e37223" target="_top" xlink:title="Função de inicialização do componente. ">
<polygon fill="none" stroke="#000000" points="203,-.5 203,-19.5 322,-19.5 322,-.5 203,-.5"/>
<text text-anchor="middle" x="262.5" y="-7.5" font-family="Fira Code" font-size="10.00" fill="#000000">Trava::trava_init</text>
</a>
</g>
</g>
<!-- Node0&#45;&gt;Node8 -->
<g id="edge8" class="edge">
<title>Node0&#45;&gt;Node8</title>
<path fill="none" stroke="#191970" d="M77.6802,-133.2322C92.3313,-110.9361 131.5279,-56.1325 179,-29 183.4834,-26.4375 188.2873,-24.2207 193.2423,-22.3028"/>
<polygon fill="#191970" stroke="#191970" points="194.5983,-25.5375 202.9126,-18.9708 192.3179,-18.9194 194.5983,-25.5375"/>
</g>
</g>
</svg>
