<?xml version="1.0" encoding="UTF-8" standalone="no"?>
<!DOCTYPE svg PUBLIC "-//W3C//DTD SVG 1.1//EN"
 "http://www.w3.org/Graphics/SVG/1.1/DTD/svg11.dtd">
<!-- Generated by graphviz version 2.40.1 (20161225.0304)
 -->
<!-- Title: Machina::machina_init Pages: 1 -->
<svg width="354pt" height="218pt"
 viewBox="0.00 0.00 354.00 218.00" xmlns="http://www.w3.org/2000/svg" xmlns:xlink="http://www.w3.org/1999/xlink">
<g id="graph0" class="graph" transform="scale(1 1) rotate(0) translate(4 214)">
<title>Machina::machina_init</title>
<!-- Node0 -->
<g id="node1" class="node">
<title>Node0</title>
<polygon fill="#bfbfbf" stroke="#000000" points="0,-95.5 0,-114.5 143,-114.5 143,-95.5 0,-95.5"/>
<text text-anchor="middle" x="71.5" y="-102.5" font-family="Fira Code" font-size="10.00" fill="#000000">Machina::machina_init</text>
</g>
<!-- Node1 -->
<g id="node2" class="node">
<title>Node1</title>
<g id="a_node2"><a xlink:href="../../d1/d1b/classAtuadores.html#a32b7777f9c06dafde01e55378c9e1af6" target="_top" xlink:title="Função de inicialização do componente. ">
<polygon fill="none" stroke="#000000" points="179,-190.5 179,-209.5 346,-209.5 346,-190.5 179,-190.5"/>
<text text-anchor="middle" x="262.5" y="-197.5" font-family="Fira Code" font-size="10.00" fill="#000000">Atuadores::atuadores_init</text>
</a>
</g>
</g>
<!-- Node0&#45;&gt;Node1 -->
<g id="edge1" class="edge">
<title>Node0&#45;&gt;Node1</title>
<path fill="none" stroke="#191970" d="M81.9185,-114.5331C100.1768,-130.7136 139.7572,-163.4957 179,-181 184.4798,-183.4443 190.3072,-185.5901 196.2363,-187.4708"/>
<polygon fill="#191970" stroke="#191970" points="195.6875,-190.9563 206.2673,-190.3915 197.6445,-184.2354 195.6875,-190.9563"/>
</g>
<!-- Node2 -->
<g id="node3" class="node">
<title>Node2</title>
<g id="a_node3"><a xlink:href="../../de/d0a/classBoca.html#ad0b071292b6c58df7adb93d30cc5a0fa" target="_top" xlink:title="Função de inicialização do componente. ">
<polygon fill="none" stroke="#000000" points="191,-152.5 191,-171.5 334,-171.5 334,-152.5 191,-152.5"/>
<text text-anchor="middle" x="262.5" y="-159.5" font-family="Fira Code" font-size="10.00" fill="#000000">Boca::boca_caixa_init</text>
</a>
</g>
</g>
<!-- Node0&#45;&gt;Node2 -->
<g id="edge2" class="edge">
<title>Node0&#45;&gt;Node2</title>
<path fill="none" stroke="#191970" d="M96.0002,-114.5768C117.6193,-122.8063 150.0982,-134.6341 179,-143 187.8095,-145.55 197.2218,-147.9743 206.4349,-150.1854"/>
<polygon fill="#191970" stroke="#191970" points="205.7816,-153.627 216.316,-152.4969 207.3762,-146.811 205.7816,-153.627"/>
</g>
<!-- Node3 -->
<g id="node4" class="node">
<title>Node3</title>
<g id="a_node4"><a xlink:href="../../d6/dd6/classDisplay.html#a8d41c12af4f6e6faad84e1f21f99b3e1" target="_top" xlink:title="Função de inicialização do componente. ">
<polygon fill="none" stroke="#000000" points="191,-114.5 191,-133.5 334,-133.5 334,-114.5 191,-114.5"/>
<text text-anchor="middle" x="262.5" y="-121.5" font-family="Fira Code" font-size="10.00" fill="#000000">Display::display_init</text>
</a>
</g>
</g>
<!-- Node0&#45;&gt;Node3 -->
<g id="edge3" class="edge">
<title>Node0&#45;&gt;Node3</title>
<path fill="none" stroke="#191970" d="M143.1648,-112.129C155.443,-113.3503 168.2827,-114.6276 180.7994,-115.8727"/>
<polygon fill="#191970" stroke="#191970" points="180.4539,-119.3555 190.7513,-116.8627 181.1469,-112.3899 180.4539,-119.3555"/>
</g>
<!-- Node4 -->
<g id="node5" class="node">
<title>Node4</title>
<g id="a_node5"><a xlink:href="../../d8/db8/fsm_8c.html#a6d28dcad43166c03b061f129a8759018" target="_top" xlink:title="fsm_init">
<polygon fill="none" stroke="#000000" points="230,-76.5 230,-95.5 295,-95.5 295,-76.5 230,-76.5"/>
<text text-anchor="middle" x="262.5" y="-83.5" font-family="Fira Code" font-size="10.00" fill="#000000">fsm_init</text>
</a>
</g>
</g>
<!-- Node0&#45;&gt;Node4 -->
<g id="edge4" class="edge">
<title>Node0&#45;&gt;Node4</title>
<path fill="none" stroke="#191970" d="M143.1648,-97.871C168.9343,-95.3076 197.1775,-92.4981 219.7159,-90.256"/>
<polygon fill="#191970" stroke="#191970" points="220.3581,-93.7095 229.9625,-89.2367 219.6651,-86.7439 220.3581,-93.7095"/>
</g>
<!-- Node5 -->
<g id="node6" class="node">
<title>Node5</title>
<g id="a_node6"><a xlink:href="../../de/dcb/classTeclado.html#ab96e8a4130d807871058321aa4ab0630" target="_top" xlink:title="Função de inicialização do componente. ">
<polygon fill="none" stroke="#000000" points="191,-38.5 191,-57.5 334,-57.5 334,-38.5 191,-38.5"/>
<text text-anchor="middle" x="262.5" y="-45.5" font-family="Fira Code" font-size="10.00" fill="#000000">Teclado::teclado_init</text>
</a>
</g>
</g>
<!-- Node0&#45;&gt;Node5 -->
<g id="edge5" class="edge">
<title>Node0&#45;&gt;Node5</title>
<path fill="none" stroke="#191970" d="M96.0002,-95.4232C117.6193,-87.1937 150.0982,-75.3659 179,-67 187.8095,-64.45 197.2218,-62.0257 206.4349,-59.8146"/>
<polygon fill="#191970" stroke="#191970" points="207.3762,-63.189 216.316,-57.5031 205.7816,-56.373 207.3762,-63.189"/>
</g>
<!-- Node6 -->
<g id="node7" class="node">
<title>Node6</title>
<g id="a_node7"><a xlink:href="../../df/d87/classTrava.html#a525662648702cd87a3832730d7e37223" target="_top" xlink:title="Função de inicialização do componente. ">
<polygon fill="none" stroke="#000000" points="203,-.5 203,-19.5 322,-19.5 322,-.5 203,-.5"/>
<text text-anchor="middle" x="262.5" y="-7.5" font-family="Fira Code" font-size="10.00" fill="#000000">Trava::trava_init</text>
</a>
</g>
</g>
<!-- Node0&#45;&gt;Node6 -->
<g id="edge6" class="edge">
<title>Node0&#45;&gt;Node6</title>
<path fill="none" stroke="#191970" d="M81.9185,-95.4669C100.1768,-79.2864 139.7572,-46.5043 179,-29 184.4798,-26.5557 190.3072,-24.4099 196.2363,-22.5292"/>
<polygon fill="#191970" stroke="#191970" points="197.6445,-25.7646 206.2673,-19.6085 195.6875,-19.0437 197.6445,-25.7646"/>
</g>
</g>
</svg>
