<?xml version="1.0" encoding="UTF-8" standalone="no"?>
<!DOCTYPE svg PUBLIC "-//W3C//DTD SVG 1.1//EN"
 "http://www.w3.org/Graphics/SVG/1.1/DTD/svg11.dtd">
<!-- Generated by graphviz version 2.40.1 (20161225.0304)
 -->
<!-- Title: Machina::machina_init Pages: 1 -->
<svg width="354pt" height="142pt"
 viewBox="0.00 0.00 354.00 142.00" xmlns="http://www.w3.org/2000/svg" xmlns:xlink="http://www.w3.org/1999/xlink">
<g id="graph0" class="graph" transform="scale(1 1) rotate(0) translate(4 138)">
<title>Machina::machina_init</title>
<!-- Node0 -->
<g id="node1" class="node">
<title>Node0</title>
<polygon fill="#bfbfbf" stroke="#000000" points="0,-57.5 0,-76.5 143,-76.5 143,-57.5 0,-57.5"/>
<text text-anchor="middle" x="71.5" y="-64.5" font-family="Fira Code" font-size="10.00" fill="#000000">Machina::machina_init</text>
</g>
<!-- Node1 -->
<g id="node2" class="node">
<title>Node1</title>
<g id="a_node2"><a xlink:href="../../d1/d1b/classAtuadores.html#a32b7777f9c06dafde01e55378c9e1af6" target="_top" xlink:title="Função de inicialização do componente. ">
<polygon fill="none" stroke="#000000" points="179,-114.5 179,-133.5 346,-133.5 346,-114.5 179,-114.5"/>
<text text-anchor="middle" x="262.5" y="-121.5" font-family="Fira Code" font-size="10.00" fill="#000000">Atuadores::atuadores_init</text>
</a>
</g>
</g>
<!-- Node0&#45;&gt;Node1 -->
<g id="edge1" class="edge">
<title>Node0&#45;&gt;Node1</title>
<path fill="none" stroke="#191970" d="M96.0002,-76.5768C117.6193,-84.8063 150.0982,-96.6341 179,-105 187.8095,-107.55 197.2218,-109.9743 206.4349,-112.1854"/>
<polygon fill="#191970" stroke="#191970" points="205.7816,-115.627 216.316,-114.4969 207.3762,-108.811 205.7816,-115.627"/>
</g>
<!-- Node2 -->
<g id="node3" class="node">
<title>Node2</title>
<g id="a_node3"><a xlink:href="../../d6/dd6/classDisplay.html#a8d41c12af4f6e6faad84e1f21f99b3e1" target="_top" xlink:title="Função de inicialização do componente. ">
<polygon fill="none" stroke="#000000" points="191,-76.5 191,-95.5 334,-95.5 334,-76.5 191,-76.5"/>
<text text-anchor="middle" x="262.5" y="-83.5" font-family="Fira Code" font-size="10.00" fill="#000000">Display::display_init</text>
</a>
</g>
</g>
<!-- Node0&#45;&gt;Node2 -->
<g id="edge2" class="edge">
<title>Node0&#45;&gt;Node2</title>
<path fill="none" stroke="#191970" d="M143.1648,-74.129C155.443,-75.3503 168.2827,-76.6276 180.7994,-77.8727"/>
<polygon fill="#191970" stroke="#191970" points="180.4539,-81.3555 190.7513,-78.8627 181.1469,-74.3899 180.4539,-81.3555"/>
</g>
<!-- Node3 -->
<g id="node4" class="node">
<title>Node3</title>
<g id="a_node4"><a xlink:href="../../de/dcb/classTeclado.html#ab96e8a4130d807871058321aa4ab0630" target="_top" xlink:title="Função de inicialização do componente. ">
<polygon fill="none" stroke="#000000" points="191,-38.5 191,-57.5 334,-57.5 334,-38.5 191,-38.5"/>
<text text-anchor="middle" x="262.5" y="-45.5" font-family="Fira Code" font-size="10.00" fill="#000000">Teclado::teclado_init</text>
</a>
</g>
</g>
<!-- Node0&#45;&gt;Node3 -->
<g id="edge3" class="edge">
<title>Node0&#45;&gt;Node3</title>
<path fill="none" stroke="#191970" d="M143.1648,-59.871C155.443,-58.6497 168.2827,-57.3724 180.7994,-56.1273"/>
<polygon fill="#191970" stroke="#191970" points="181.1469,-59.6101 190.7513,-55.1373 180.4539,-52.6445 181.1469,-59.6101"/>
</g>
<!-- Node4 -->
<g id="node5" class="node">
<title>Node4</title>
<g id="a_node5"><a xlink:href="../../d5/dcc/trava_8c.html#a525662648702cd87a3832730d7e37223" target="_top" xlink:title="trava_init">
<polygon fill="none" stroke="#000000" points="224,-.5 224,-19.5 301,-19.5 301,-.5 224,-.5"/>
<text text-anchor="middle" x="262.5" y="-7.5" font-family="Fira Code" font-size="10.00" fill="#000000">trava_init</text>
</a>
</g>
</g>
<!-- Node0&#45;&gt;Node4 -->
<g id="edge4" class="edge">
<title>Node0&#45;&gt;Node4</title>
<path fill="none" stroke="#191970" d="M96.0002,-57.4232C117.6193,-49.1937 150.0982,-37.3659 179,-29 190.1558,-25.7709 202.2783,-22.7433 213.7388,-20.0949"/>
<polygon fill="#191970" stroke="#191970" points="214.6147,-23.4854 223.5988,-17.8697 213.0736,-16.6571 214.6147,-23.4854"/>
</g>
</g>
</svg>
