<?xml version="1.0" encoding="UTF-8" standalone="no"?>
<!DOCTYPE svg PUBLIC "-//W3C//DTD SVG 1.1//EN"
 "http://www.w3.org/Graphics/SVG/1.1/DTD/svg11.dtd">
<!-- Generated by graphviz version 2.40.1 (20161225.0304)
 -->
<!-- Title: estoque_init Pages: 1 -->
<svg width="305pt" height="28pt"
 viewBox="0.00 0.00 305.00 28.00" xmlns="http://www.w3.org/2000/svg" xmlns:xlink="http://www.w3.org/1999/xlink">
<g id="graph0" class="graph" transform="scale(1 1) rotate(0) translate(4 24)">
<title>estoque_init</title>
<!-- Node14 -->
<g id="node1" class="node">
<title>Node14</title>
<polygon fill="#bfbfbf" stroke="#000000" points="0,-.5 0,-19.5 89,-19.5 89,-.5 0,-.5"/>
<text text-anchor="middle" x="44.5" y="-7.5" font-family="Fira Code" font-size="10.00" fill="#000000">estoque_init</text>
</g>
<!-- Node15 -->
<g id="node2" class="node">
<title>Node15</title>
<g id="a_node2"><a xlink:href="../../d0/d29/main_8c.html#af1d291eb446787a4df1bbe841497dade" target="_top" xlink:title="teste_estoque">
<polygon fill="none" stroke="#000000" points="125,-.5 125,-19.5 220,-19.5 220,-.5 125,-.5"/>
<text text-anchor="middle" x="172.5" y="-7.5" font-family="Fira Code" font-size="10.00" fill="#000000">teste_estoque</text>
</a>
</g>
</g>
<!-- Node14&#45;&gt;Node15 -->
<g id="edge1" class="edge">
<title>Node14&#45;&gt;Node15</title>
<path fill="none" stroke="#191970" d="M99.4603,-10C107.9375,-10 116.6306,-10 124.9285,-10"/>
<polygon fill="#191970" stroke="#191970" points="99.2682,-6.5001 89.2682,-10 99.2682,-13.5001 99.2682,-6.5001"/>
</g>
<!-- Node16 -->
<g id="node3" class="node">
<title>Node16</title>
<g id="a_node3"><a xlink:href="../../d0/d29/main_8c.html#ae66f6b31b5ad750f1fe042a706a4e3d4" target="_top" xlink:title="main">
<polygon fill="none" stroke="#000000" points="256,-.5 256,-19.5 297,-19.5 297,-.5 256,-.5"/>
<text text-anchor="middle" x="276.5" y="-7.5" font-family="Fira Code" font-size="10.00" fill="#000000">main</text>
</a>
</g>
</g>
<!-- Node15&#45;&gt;Node16 -->
<g id="edge2" class="edge">
<title>Node15&#45;&gt;Node16</title>
<path fill="none" stroke="#191970" d="M230.5031,-10C239.5547,-10 248.3604,-10 255.8033,-10"/>
<polygon fill="#191970" stroke="#191970" points="230.2387,-6.5001 220.2386,-10 230.2386,-13.5001 230.2387,-6.5001"/>
</g>
</g>
</svg>
