<?xml version="1.0" encoding="UTF-8" standalone="no"?>
<!DOCTYPE svg PUBLIC "-//W3C//DTD SVG 1.1//EN"
 "http://www.w3.org/Graphics/SVG/1.1/DTD/svg11.dtd">
<!-- Generated by graphviz version 2.40.1 (20161225.0304)
 -->
<!-- Title: estoque_produto_add Pages: 1 -->
<svg width="318pt" height="78pt"
 viewBox="0.00 0.00 318.00 77.50" xmlns="http://www.w3.org/2000/svg" xmlns:xlink="http://www.w3.org/1999/xlink">
<g id="graph0" class="graph" transform="scale(1 1) rotate(0) translate(4 73.5)">
<title>estoque_produto_add</title>
<!-- Node17 -->
<g id="node1" class="node">
<title>Node17</title>
<polygon fill="#bfbfbf" stroke="#000000" points="0,-22.5 0,-41.5 131,-41.5 131,-22.5 0,-22.5"/>
<text text-anchor="middle" x="65.5" y="-29.5" font-family="Fira Code" font-size="10.00" fill="#000000">estoque_produto_add</text>
</g>
<!-- Node18 -->
<g id="node2" class="node">
<title>Node18</title>
<g id="a_node2"><a xlink:href="../../d5/d5c/estoque_8c.html#a9758d57cd9fa7cad75d00d64c27dc80f" target="_top" xlink:title="estoque_encontra_pos\l_livre">
<polygon fill="none" stroke="#000000" points="170,-39 170,-69 307,-69 307,-39 170,-39"/>
<text text-anchor="start" x="178" y="-57" font-family="Fira Code" font-size="10.00" fill="#000000">estoque_encontra_pos</text>
<text text-anchor="middle" x="238.5" y="-46" font-family="Fira Code" font-size="10.00" fill="#000000">_livre</text>
</a>
</g>
</g>
<!-- Node17&#45;&gt;Node18 -->
<g id="edge1" class="edge">
<title>Node17&#45;&gt;Node18</title>
<path fill="none" stroke="#191970" d="M131.3974,-40.38C140.6537,-41.5571 150.2443,-42.7767 159.7107,-43.9805"/>
<polygon fill="#191970" stroke="#191970" points="159.5506,-47.4883 169.9123,-45.2779 160.4337,-40.5442 159.5506,-47.4883"/>
</g>
<!-- Node19 -->
<g id="node3" class="node">
<title>Node19</title>
<g id="a_node3"><a xlink:href="../../d5/d5c/estoque_8c.html#a65a97d14e6d4caebb236121f8f12679c" target="_top" xlink:title="estoque_index_from_id">
<polygon fill="none" stroke="#000000" points="167,-.5 167,-19.5 310,-19.5 310,-.5 167,-.5"/>
<text text-anchor="middle" x="238.5" y="-7.5" font-family="Fira Code" font-size="10.00" fill="#000000">estoque_index_from_id</text>
</a>
</g>
</g>
<!-- Node17&#45;&gt;Node19 -->
<g id="edge2" class="edge">
<title>Node17&#45;&gt;Node19</title>
<path fill="none" stroke="#191970" d="M131.3974,-23.62C139.7018,-22.5639 148.2753,-21.4737 156.7868,-20.3913"/>
<polygon fill="#191970" stroke="#191970" points="157.2516,-23.8604 166.7302,-19.1268 156.3685,-16.9164 157.2516,-23.8604"/>
</g>
</g>
</svg>
