<?xml version="1.0" encoding="UTF-8" standalone="no"?>
<!DOCTYPE svg PUBLIC "-//W3C//DTD SVG 1.1//EN"
 "http://www.w3.org/Graphics/SVG/1.1/DTD/svg11.dtd">
<!-- Generated by graphviz version 2.40.1 (20161225.0304)
 -->
<!-- Title: estoque_produto_add Pages: 1 -->
<svg width="472pt" height="28pt"
 viewBox="0.00 0.00 472.00 28.00" xmlns="http://www.w3.org/2000/svg" xmlns:xlink="http://www.w3.org/1999/xlink">
<g id="graph0" class="graph" transform="scale(1 1) rotate(0) translate(4 24)">
<title>estoque_produto_add</title>
<!-- Node20 -->
<g id="node1" class="node">
<title>Node20</title>
<polygon fill="#bfbfbf" stroke="#000000" points="0,-.5 0,-19.5 131,-19.5 131,-.5 0,-.5"/>
<text text-anchor="middle" x="65.5" y="-7.5" font-family="Fira Code" font-size="10.00" fill="#000000">estoque_produto_add</text>
</g>
<!-- Node21 -->
<g id="node2" class="node">
<title>Node21</title>
<g id="a_node2"><a xlink:href="../../d3/d86/estoque_8h.html#ae981f8c5ceb2ff989161e456f7db68c7" target="_top" xlink:title="estoque_init">
<polygon fill="none" stroke="#000000" points="167,-.5 167,-19.5 256,-19.5 256,-.5 167,-.5"/>
<text text-anchor="middle" x="211.5" y="-7.5" font-family="Fira Code" font-size="10.00" fill="#000000">estoque_init</text>
</a>
</g>
</g>
<!-- Node20&#45;&gt;Node21 -->
<g id="edge1" class="edge">
<title>Node20&#45;&gt;Node21</title>
<path fill="none" stroke="#191970" d="M141.3627,-10C149.9902,-10 158.5642,-10 166.6019,-10"/>
<polygon fill="#191970" stroke="#191970" points="141.2392,-6.5001 131.2392,-10 141.2392,-13.5001 141.2392,-6.5001"/>
</g>
<!-- Node22 -->
<g id="node3" class="node">
<title>Node22</title>
<g id="a_node3"><a xlink:href="../../d0/d29/main_8c.html#af1d291eb446787a4df1bbe841497dade" target="_top" xlink:title="teste_estoque">
<polygon fill="none" stroke="#000000" points="292,-.5 292,-19.5 387,-19.5 387,-.5 292,-.5"/>
<text text-anchor="middle" x="339.5" y="-7.5" font-family="Fira Code" font-size="10.00" fill="#000000">teste_estoque</text>
</a>
</g>
</g>
<!-- Node21&#45;&gt;Node22 -->
<g id="edge2" class="edge">
<title>Node21&#45;&gt;Node22</title>
<path fill="none" stroke="#191970" d="M266.4603,-10C274.9375,-10 283.6306,-10 291.9285,-10"/>
<polygon fill="#191970" stroke="#191970" points="266.2682,-6.5001 256.2682,-10 266.2682,-13.5001 266.2682,-6.5001"/>
</g>
<!-- Node23 -->
<g id="node4" class="node">
<title>Node23</title>
<g id="a_node4"><a xlink:href="../../d0/d29/main_8c.html#ae66f6b31b5ad750f1fe042a706a4e3d4" target="_top" xlink:title="main">
<polygon fill="none" stroke="#000000" points="423,-.5 423,-19.5 464,-19.5 464,-.5 423,-.5"/>
<text text-anchor="middle" x="443.5" y="-7.5" font-family="Fira Code" font-size="10.00" fill="#000000">main</text>
</a>
</g>
</g>
<!-- Node22&#45;&gt;Node23 -->
<g id="edge3" class="edge">
<title>Node22&#45;&gt;Node23</title>
<path fill="none" stroke="#191970" d="M397.5031,-10C406.5547,-10 415.3604,-10 422.8033,-10"/>
<polygon fill="#191970" stroke="#191970" points="397.2387,-6.5001 387.2386,-10 397.2386,-13.5001 397.2387,-6.5001"/>
</g>
</g>
</svg>
