<?xml version="1.0" encoding="UTF-8" standalone="no"?>
<!DOCTYPE svg PUBLIC "-//W3C//DTD SVG 1.1//EN"
 "http://www.w3.org/Graphics/SVG/1.1/DTD/svg11.dtd">
<!-- Generated by graphviz version 2.40.1 (20161225.0304)
 -->
<!-- Title: Trava::trava_init Pages: 1 -->
<svg width="383pt" height="28pt"
 viewBox="0.00 0.00 383.00 28.00" xmlns="http://www.w3.org/2000/svg" xmlns:xlink="http://www.w3.org/1999/xlink">
<g id="graph0" class="graph" transform="scale(1 1) rotate(0) translate(4 24)">
<title>Trava::trava_init</title>
<!-- Node3 -->
<g id="node1" class="node">
<title>Node3</title>
<polygon fill="#bfbfbf" stroke="#000000" points="0,-.5 0,-19.5 119,-19.5 119,-.5 0,-.5"/>
<text text-anchor="middle" x="59.5" y="-7.5" font-family="Fira Code" font-size="10.00" fill="#000000">Trava::trava_init</text>
</g>
<!-- Node4 -->
<g id="node2" class="node">
<title>Node4</title>
<g id="a_node2"><a xlink:href="../../d1/df5/classMachina.html#a17c3a5d0ed70dbc9fbecc9a9c737c075" target="_top" xlink:title="Inicializa componentes da vending machine. ">
<polygon fill="none" stroke="#000000" points="155,-.5 155,-19.5 298,-19.5 298,-.5 155,-.5"/>
<text text-anchor="middle" x="226.5" y="-7.5" font-family="Fira Code" font-size="10.00" fill="#000000">Machina::machina_init</text>
</a>
</g>
</g>
<!-- Node3&#45;&gt;Node4 -->
<g id="edge1" class="edge">
<title>Node3&#45;&gt;Node4</title>
<path fill="none" stroke="#191970" d="M129.4424,-10C137.8375,-10 146.4204,-10 154.8394,-10"/>
<polygon fill="#191970" stroke="#191970" points="129.3192,-6.5001 119.3191,-10 129.3191,-13.5001 129.3192,-6.5001"/>
</g>
<!-- Node5 -->
<g id="node3" class="node">
<title>Node5</title>
<g id="a_node3"><a xlink:href="../../d0/d29/main_8c.html#ae66f6b31b5ad750f1fe042a706a4e3d4" target="_top" xlink:title="main">
<polygon fill="none" stroke="#000000" points="334,-.5 334,-19.5 375,-19.5 375,-.5 334,-.5"/>
<text text-anchor="middle" x="354.5" y="-7.5" font-family="Fira Code" font-size="10.00" fill="#000000">main</text>
</a>
</g>
</g>
<!-- Node4&#45;&gt;Node5 -->
<g id="edge2" class="edge">
<title>Node4&#45;&gt;Node5</title>
<path fill="none" stroke="#191970" d="M308.5773,-10C317.8347,-10 326.5424,-10 333.8346,-10"/>
<polygon fill="#191970" stroke="#191970" points="308.3574,-6.5001 298.3573,-10 308.3573,-13.5001 308.3574,-6.5001"/>
</g>
</g>
</svg>
