<?xml version="1.0" encoding="UTF-8" standalone="no"?>
<!DOCTYPE svg PUBLIC "-//W3C//DTD SVG 1.1//EN"
 "http://www.w3.org/Graphics/SVG/1.1/DTD/svg11.dtd">
<!-- Generated by graphviz version 2.40.1 (20161225.0304)
 -->
<!-- Title: src/boca_caixa.c Pages: 1 -->
<svg width="290pt" height="196pt"
 viewBox="0.00 0.00 290.00 196.00" xmlns="http://www.w3.org/2000/svg" xmlns:xlink="http://www.w3.org/1999/xlink">
<g id="graph0" class="graph" transform="scale(1 1) rotate(0) translate(4 192)">
<title>src/boca_caixa.c</title>
<!-- Node0 -->
<g id="node1" class="node">
<title>Node0</title>
<polygon fill="#bfbfbf" stroke="#000000" points="90,-168.5 90,-187.5 203,-187.5 203,-168.5 90,-168.5"/>
<text text-anchor="middle" x="146.5" y="-175.5" font-family="Fira Code" font-size="10.00" fill="#000000">src/boca_caixa.c</text>
</g>
<!-- Node1 -->
<g id="node2" class="node">
<title>Node1</title>
<g id="a_node2"><a xlink:href="../../d8/d1d/boca__caixa_8h.html" target="_top" xlink:title="boca_caixa.h">
<polygon fill="none" stroke="#000000" points="0,-112.5 0,-131.5 89,-131.5 89,-112.5 0,-112.5"/>
<text text-anchor="middle" x="44.5" y="-119.5" font-family="Fira Code" font-size="10.00" fill="#000000">boca_caixa.h</text>
</a>
</g>
</g>
<!-- Node0&#45;&gt;Node1 -->
<g id="edge1" class="edge">
<title>Node0&#45;&gt;Node1</title>
<path fill="none" stroke="#191970" d="M128.733,-168.2455C112.7905,-159.4928 89.1741,-146.527 71.0011,-136.5496"/>
<polygon fill="#191970" stroke="#191970" points="72.5137,-133.3873 62.0634,-131.6427 69.1448,-139.5233 72.5137,-133.3873"/>
</g>
<!-- Node2 -->
<g id="node3" class="node">
<title>Node2</title>
<g id="a_node3"><a xlink:href="../../db/db0/sistema_8h.html" target="_top" xlink:title="sistema.h">
<polygon fill="none" stroke="#000000" points="45,-56.5 45,-75.5 116,-75.5 116,-56.5 45,-56.5"/>
<text text-anchor="middle" x="80.5" y="-63.5" font-family="Fira Code" font-size="10.00" fill="#000000">sistema.h</text>
</a>
</g>
</g>
<!-- Node0&#45;&gt;Node2 -->
<g id="edge4" class="edge">
<title>Node0&#45;&gt;Node2</title>
<path fill="none" stroke="#191970" d="M140.8729,-168.4509C129.9136,-149.8533 105.5399,-108.4919 91.3407,-84.3964"/>
<polygon fill="#191970" stroke="#191970" points="94.2052,-82.3633 86.1129,-75.5249 88.1745,-85.9172 94.2052,-82.3633"/>
</g>
<!-- Node4 -->
<g id="node5" class="node">
<title>Node4</title>
<g id="a_node5"><a xlink:href="../../d5/d60/utils_8h.html" target="_top" xlink:title="Mathematic utilitary functions globally available. ">
<polygon fill="none" stroke="#000000" points="146,-112.5 146,-131.5 205,-131.5 205,-112.5 146,-112.5"/>
<text text-anchor="middle" x="175.5" y="-119.5" font-family="Fira Code" font-size="10.00" fill="#000000">utils.h</text>
</a>
</g>
</g>
<!-- Node0&#45;&gt;Node4 -->
<g id="edge5" class="edge">
<title>Node0&#45;&gt;Node4</title>
<path fill="none" stroke="#191970" d="M151.5514,-168.2455C155.5019,-160.617 161.1097,-149.7881 165.9058,-140.5267"/>
<polygon fill="#191970" stroke="#191970" points="169.0159,-142.1321 170.5065,-131.6427 162.7999,-138.9131 169.0159,-142.1321"/>
</g>
<!-- Node5 -->
<g id="node6" class="node">
<title>Node5</title>
<polygon fill="none" stroke="#bfbfbf" points="223,-112.5 223,-131.5 282,-131.5 282,-112.5 223,-112.5"/>
<text text-anchor="middle" x="252.5" y="-119.5" font-family="Fira Code" font-size="10.00" fill="#000000">stdio.h</text>
</g>
<!-- Node0&#45;&gt;Node5 -->
<g id="edge6" class="edge">
<title>Node0&#45;&gt;Node5</title>
<path fill="none" stroke="#191970" d="M164.9638,-168.2455C181.6074,-159.4527 206.2993,-146.4079 225.2192,-136.4125"/>
<polygon fill="#191970" stroke="#191970" points="227.0408,-139.4086 234.2478,-131.6427 223.7709,-133.2193 227.0408,-139.4086"/>
</g>
<!-- Node1&#45;&gt;Node2 -->
<g id="edge2" class="edge">
<title>Node1&#45;&gt;Node2</title>
<path fill="none" stroke="#191970" d="M50.7707,-112.2455C55.7264,-104.5367 62.783,-93.5598 68.7776,-84.2348"/>
<polygon fill="#191970" stroke="#191970" points="71.8376,-85.9471 74.3011,-75.6427 65.9494,-82.1618 71.8376,-85.9471"/>
</g>
<!-- Node3 -->
<g id="node4" class="node">
<title>Node3</title>
<polygon fill="none" stroke="#bfbfbf" points="48,-.5 48,-19.5 113,-19.5 113,-.5 48,-.5"/>
<text text-anchor="middle" x="80.5" y="-7.5" font-family="Fira Code" font-size="10.00" fill="#000000">stdint.h</text>
</g>
<!-- Node2&#45;&gt;Node3 -->
<g id="edge3" class="edge">
<title>Node2&#45;&gt;Node3</title>
<path fill="none" stroke="#191970" d="M80.5,-56.2455C80.5,-48.9382 80.5,-38.6944 80.5,-29.7046"/>
<polygon fill="#191970" stroke="#191970" points="84.0001,-29.6426 80.5,-19.6427 77.0001,-29.6427 84.0001,-29.6426"/>
</g>
</g>
</svg>
