<?xml version="1.0" encoding="UTF-8" standalone="no"?>
<!DOCTYPE svg PUBLIC "-//W3C//DTD SVG 1.1//EN"
 "http://www.w3.org/Graphics/SVG/1.1/DTD/svg11.dtd">
<!-- Generated by graphviz version 2.40.1 (20161225.0304)
 -->
<!-- Title: src/boca_caixa.c Pages: 1 -->
<svg width="341pt" height="196pt"
 viewBox="0.00 0.00 341.00 196.00" xmlns="http://www.w3.org/2000/svg" xmlns:xlink="http://www.w3.org/1999/xlink">
<g id="graph0" class="graph" transform="scale(1 1) rotate(0) translate(4 192)">
<title>src/boca_caixa.c</title>
<!-- Node0 -->
<g id="node1" class="node">
<title>Node0</title>
<polygon fill="#bfbfbf" stroke="#000000" points="116,-168.5 116,-187.5 229,-187.5 229,-168.5 116,-168.5"/>
<text text-anchor="middle" x="172.5" y="-175.5" font-family="Fira Code" font-size="10.00" fill="#000000">src/boca_caixa.c</text>
</g>
<!-- Node1 -->
<g id="node2" class="node">
<title>Node1</title>
<g id="a_node2"><a xlink:href="../../d4/d68/display_8h.html" target="_top" xlink:title="display.h">
<polygon fill="none" stroke="#000000" points="0,-112.5 0,-131.5 71,-131.5 71,-112.5 0,-112.5"/>
<text text-anchor="middle" x="35.5" y="-119.5" font-family="Fira Code" font-size="10.00" fill="#000000">display.h</text>
</a>
</g>
</g>
<!-- Node0&#45;&gt;Node1 -->
<g id="edge1" class="edge">
<title>Node0&#45;&gt;Node1</title>
<path fill="none" stroke="#191970" d="M148.9489,-168.3733C126.6609,-159.2629 93.0063,-145.5062 68.1363,-135.3404"/>
<polygon fill="#191970" stroke="#191970" points="69.3247,-132.0451 58.7438,-131.5011 66.6761,-138.5247 69.3247,-132.0451"/>
</g>
<!-- Node3 -->
<g id="node4" class="node">
<title>Node3</title>
<polygon fill="none" stroke="#bfbfbf" points="64,-56.5 64,-75.5 123,-75.5 123,-56.5 64,-56.5"/>
<text text-anchor="middle" x="93.5" y="-63.5" font-family="Fira Code" font-size="10.00" fill="#000000">stdio.h</text>
</g>
<!-- Node0&#45;&gt;Node3 -->
<g id="edge9" class="edge">
<title>Node0&#45;&gt;Node3</title>
<path fill="none" stroke="#191970" d="M157.7202,-168.2071C146,-159.7957 129.9129,-146.7215 119.5,-132 109.5113,-117.8783 102.6568,-99.3854 98.5041,-85.5686"/>
<polygon fill="#191970" stroke="#191970" points="101.7999,-84.3571 95.7447,-75.6632 95.0567,-86.2357 101.7999,-84.3571"/>
</g>
<!-- Node4 -->
<g id="node5" class="node">
<title>Node4</title>
<g id="a_node5"><a xlink:href="../../d8/d1d/boca__caixa_8h.html" target="_top" xlink:title="boca_caixa.h">
<polygon fill="none" stroke="#000000" points="128,-112.5 128,-131.5 217,-131.5 217,-112.5 128,-112.5"/>
<text text-anchor="middle" x="172.5" y="-119.5" font-family="Fira Code" font-size="10.00" fill="#000000">boca_caixa.h</text>
</a>
</g>
</g>
<!-- Node0&#45;&gt;Node4 -->
<g id="edge4" class="edge">
<title>Node0&#45;&gt;Node4</title>
<path fill="none" stroke="#191970" d="M172.5,-168.2455C172.5,-160.9382 172.5,-150.6944 172.5,-141.7046"/>
<polygon fill="#191970" stroke="#191970" points="176.0001,-141.6426 172.5,-131.6427 169.0001,-141.6427 176.0001,-141.6426"/>
</g>
<!-- Node5 -->
<g id="node6" class="node">
<title>Node5</title>
<g id="a_node6"><a xlink:href="../../db/db0/sistema_8h.html" target="_top" xlink:title="sistema.h">
<polygon fill="none" stroke="#000000" points="141,-56.5 141,-75.5 212,-75.5 212,-56.5 141,-56.5"/>
<text text-anchor="middle" x="176.5" y="-63.5" font-family="Fira Code" font-size="10.00" fill="#000000">sistema.h</text>
</a>
</g>
</g>
<!-- Node0&#45;&gt;Node5 -->
<g id="edge7" class="edge">
<title>Node0&#45;&gt;Node5</title>
<path fill="none" stroke="#191970" d="M189.8758,-168.4558C202.3589,-160.5215 218.2182,-147.9621 225.5,-132 234.1251,-113.0934 217.0839,-94.3411 200.7846,-81.6849"/>
<polygon fill="#191970" stroke="#191970" points="202.6186,-78.6914 192.4686,-75.6536 198.5088,-84.358 202.6186,-78.6914"/>
</g>
<!-- Node6 -->
<g id="node7" class="node">
<title>Node6</title>
<g id="a_node7"><a xlink:href="../../d5/d60/utils_8h.html" target="_top" xlink:title="Mathematic utilitary functions globally available. ">
<polygon fill="none" stroke="#000000" points="274,-112.5 274,-131.5 333,-131.5 333,-112.5 274,-112.5"/>
<text text-anchor="middle" x="303.5" y="-119.5" font-family="Fira Code" font-size="10.00" fill="#000000">utils.h</text>
</a>
</g>
</g>
<!-- Node0&#45;&gt;Node6 -->
<g id="edge8" class="edge">
<title>Node0&#45;&gt;Node6</title>
<path fill="none" stroke="#191970" d="M195.0197,-168.3733C216.2372,-159.3032 248.2276,-145.6279 271.9769,-135.4755"/>
<polygon fill="#191970" stroke="#191970" points="273.4548,-138.6502 281.2742,-131.5011 270.7033,-132.2136 273.4548,-138.6502"/>
</g>
<!-- Node2 -->
<g id="node3" class="node">
<title>Node2</title>
<polygon fill="none" stroke="#bfbfbf" points="73,-.5 73,-19.5 138,-19.5 138,-.5 73,-.5"/>
<text text-anchor="middle" x="105.5" y="-7.5" font-family="Fira Code" font-size="10.00" fill="#000000">stdint.h</text>
</g>
<!-- Node1&#45;&gt;Node2 -->
<g id="edge2" class="edge">
<title>Node1&#45;&gt;Node2</title>
<path fill="none" stroke="#191970" d="M36.5839,-112.365C38.4595,-98.8759 43.2512,-73.998 54.5,-56 61.807,-44.3089 72.9172,-33.7947 82.9046,-25.7793"/>
<polygon fill="#191970" stroke="#191970" points="85.0941,-28.5112 90.9218,-19.6631 80.8483,-22.9458 85.0941,-28.5112"/>
</g>
<!-- Node1&#45;&gt;Node3 -->
<g id="edge3" class="edge">
<title>Node1&#45;&gt;Node3</title>
<path fill="none" stroke="#191970" d="M45.6028,-112.2455C54.0028,-104.1352 66.1494,-92.4075 76.1084,-82.7919"/>
<polygon fill="#191970" stroke="#191970" points="78.75,-85.1066 83.5129,-75.6427 73.8878,-80.0707 78.75,-85.1066"/>
</g>
<!-- Node4&#45;&gt;Node5 -->
<g id="edge5" class="edge">
<title>Node4&#45;&gt;Node5</title>
<path fill="none" stroke="#191970" d="M173.1967,-112.2455C173.7187,-104.9382 174.4504,-94.6944 175.0925,-85.7046"/>
<polygon fill="#191970" stroke="#191970" points="178.5898,-85.8667 175.8112,-75.6427 171.6076,-85.3679 178.5898,-85.8667"/>
</g>
<!-- Node5&#45;&gt;Node2 -->
<g id="edge6" class="edge">
<title>Node5&#45;&gt;Node2</title>
<path fill="none" stroke="#191970" d="M164.1327,-56.2455C153.5446,-47.8943 138.0936,-35.7076 125.7107,-25.9408"/>
<polygon fill="#191970" stroke="#191970" points="127.7447,-23.0875 117.7255,-19.6427 123.4097,-28.5837 127.7447,-23.0875"/>
</g>
</g>
</svg>
