<?xml version="1.0" encoding="UTF-8" standalone="no"?>
<!DOCTYPE svg PUBLIC "-//W3C//DTD SVG 1.1//EN"
 "http://www.w3.org/Graphics/SVG/1.1/DTD/svg11.dtd">
<!-- Generated by graphviz version 2.40.1 (20161225.0304)
 -->
<!-- Title: src/fsm.c Pages: 1 -->
<svg width="119pt" height="196pt"
 viewBox="0.00 0.00 119.00 196.00" xmlns="http://www.w3.org/2000/svg" xmlns:xlink="http://www.w3.org/1999/xlink">
<g id="graph0" class="graph" transform="scale(1 1) rotate(0) translate(4 192)">
<title>src/fsm.c</title>
<!-- Node0 -->
<g id="node1" class="node">
<title>Node0</title>
<polygon fill="#bfbfbf" stroke="#000000" points="14,-168.5 14,-187.5 85,-187.5 85,-168.5 14,-168.5"/>
<text text-anchor="middle" x="49.5" y="-175.5" font-family="Fira Code" font-size="10.00" fill="#000000">src/fsm.c</text>
</g>
<!-- Node1 -->
<g id="node2" class="node">
<title>Node1</title>
<g id="a_node2"><a xlink:href="../../dd/d81/fsm_8h.html" target="_top" xlink:title="fsm.h">
<polygon fill="none" stroke="#000000" points="0,-112.5 0,-131.5 47,-131.5 47,-112.5 0,-112.5"/>
<text text-anchor="middle" x="23.5" y="-119.5" font-family="Fira Code" font-size="10.00" fill="#000000">fsm.h</text>
</a>
</g>
</g>
<!-- Node0&#45;&gt;Node1 -->
<g id="edge1" class="edge">
<title>Node0&#45;&gt;Node1</title>
<path fill="none" stroke="#191970" d="M44.9711,-168.2455C41.4666,-160.6973 36.5073,-150.0158 32.2377,-140.8197"/>
<polygon fill="#191970" stroke="#191970" points="35.3627,-139.2389 27.977,-131.6427 29.0136,-142.1867 35.3627,-139.2389"/>
</g>
<!-- Node3 -->
<g id="node4" class="node">
<title>Node3</title>
<g id="a_node4"><a xlink:href="../../db/db0/sistema_8h.html" target="_top" xlink:title="sistema.h">
<polygon fill="none" stroke="#000000" points="40,-56.5 40,-75.5 111,-75.5 111,-56.5 40,-56.5"/>
<text text-anchor="middle" x="75.5" y="-63.5" font-family="Fira Code" font-size="10.00" fill="#000000">sistema.h</text>
</a>
</g>
</g>
<!-- Node0&#45;&gt;Node3 -->
<g id="edge5" class="edge">
<title>Node0&#45;&gt;Node3</title>
<path fill="none" stroke="#191970" d="M51.7167,-168.4509C55.9765,-150.1013 65.3807,-109.5908 71.0035,-85.3693"/>
<polygon fill="#191970" stroke="#191970" points="74.4368,-86.0573 73.2889,-75.5249 67.6182,-84.4744 74.4368,-86.0573"/>
</g>
<!-- Node2 -->
<g id="node3" class="node">
<title>Node2</title>
<polygon fill="none" stroke="#bfbfbf" points="11,-.5 11,-19.5 76,-19.5 76,-.5 11,-.5"/>
<text text-anchor="middle" x="43.5" y="-7.5" font-family="Fira Code" font-size="10.00" fill="#000000">stdint.h</text>
</g>
<!-- Node1&#45;&gt;Node2 -->
<g id="edge2" class="edge">
<title>Node1&#45;&gt;Node2</title>
<path fill="none" stroke="#191970" d="M24.2818,-112.0961C25.4008,-99.1298 27.7484,-75.7299 31.5,-56 33.1723,-47.2052 35.5818,-37.605 37.8035,-29.4608"/>
<polygon fill="#191970" stroke="#191970" points="41.1869,-30.3584 40.5383,-19.7834 34.4507,-28.4547 41.1869,-30.3584"/>
</g>
<!-- Node1&#45;&gt;Node3 -->
<g id="edge3" class="edge">
<title>Node1&#45;&gt;Node3</title>
<path fill="none" stroke="#191970" d="M32.5577,-112.2455C40.0142,-104.2155 50.7634,-92.6394 59.6417,-83.0781"/>
<polygon fill="#191970" stroke="#191970" points="62.3063,-85.3522 66.5461,-75.6427 57.1768,-80.589 62.3063,-85.3522"/>
</g>
<!-- Node3&#45;&gt;Node2 -->
<g id="edge4" class="edge">
<title>Node3&#45;&gt;Node2</title>
<path fill="none" stroke="#191970" d="M69.926,-56.2455C65.5669,-48.617 59.3789,-37.7881 54.0867,-28.5267"/>
<polygon fill="#191970" stroke="#191970" points="57.0104,-26.5886 49.0101,-19.6427 50.9327,-30.0616 57.0104,-26.5886"/>
</g>
</g>
</svg>
