<?xml version="1.0" encoding="UTF-8" standalone="no"?>
<!DOCTYPE svg PUBLIC "-//W3C//DTD SVG 1.1//EN"
 "http://www.w3.org/Graphics/SVG/1.1/DTD/svg11.dtd">
<!-- Generated by graphviz version 2.40.1 (20161225.0304)
 -->
<!-- Title: Teclado::teclado_le_prod_id Pages: 1 -->
<svg width="347pt" height="39pt"
 viewBox="0.00 0.00 347.00 39.00" xmlns="http://www.w3.org/2000/svg" xmlns:xlink="http://www.w3.org/1999/xlink">
<g id="graph0" class="graph" transform="scale(1 1) rotate(0) translate(4 35)">
<title>Teclado::teclado_le_prod_id</title>
<!-- Node5 -->
<g id="node1" class="node">
<title>Node5</title>
<polygon fill="#bfbfbf" stroke="#000000" points="0,-.5 0,-30.5 131,-30.5 131,-.5 0,-.5"/>
<text text-anchor="start" x="8" y="-18.5" font-family="Fira Code" font-size="10.00" fill="#000000">Teclado::teclado_le</text>
<text text-anchor="middle" x="65.5" y="-7.5" font-family="Fira Code" font-size="10.00" fill="#000000">_prod_id</text>
</g>
<!-- Node6 -->
<g id="node2" class="node">
<title>Node6</title>
<g id="a_node2"><a xlink:href="../../d0/d29/main_8c.html#a5422318cb6d27f076643e8e0161dbc6b" target="_top" xlink:title="executar_acao">
<polygon fill="none" stroke="#000000" points="167,-6 167,-25 262,-25 262,-6 167,-6"/>
<text text-anchor="middle" x="214.5" y="-13" font-family="Fira Code" font-size="10.00" fill="#000000">executar_acao</text>
</a>
</g>
</g>
<!-- Node5&#45;&gt;Node6 -->
<g id="edge1" class="edge">
<title>Node5&#45;&gt;Node6</title>
<path fill="none" stroke="#191970" d="M141.4615,-15.5C150.1421,-15.5 158.7962,-15.5 166.9522,-15.5"/>
<polygon fill="#191970" stroke="#191970" points="141.2873,-12.0001 131.2873,-15.5 141.2873,-19.0001 141.2873,-12.0001"/>
</g>
<!-- Node7 -->
<g id="node3" class="node">
<title>Node7</title>
<g id="a_node3"><a xlink:href="../../d0/d29/main_8c.html#ae66f6b31b5ad750f1fe042a706a4e3d4" target="_top" xlink:title="main">
<polygon fill="none" stroke="#000000" points="298,-6 298,-25 339,-25 339,-6 298,-6"/>
<text text-anchor="middle" x="318.5" y="-13" font-family="Fira Code" font-size="10.00" fill="#000000">main</text>
</a>
</g>
</g>
<!-- Node6&#45;&gt;Node7 -->
<g id="edge2" class="edge">
<title>Node6&#45;&gt;Node7</title>
<path fill="none" stroke="#191970" d="M272.5031,-15.5C281.5547,-15.5 290.3604,-15.5 297.8033,-15.5"/>
<polygon fill="#191970" stroke="#191970" points="272.2387,-12.0001 262.2386,-15.5 272.2386,-19.0001 272.2387,-12.0001"/>
</g>
</g>
</svg>
