<?xml version="1.0" encoding="UTF-8" standalone="no"?>
<!DOCTYPE svg PUBLIC "-//W3C//DTD SVG 1.1//EN"
 "http://www.w3.org/Graphics/SVG/1.1/DTD/svg11.dtd">
<!-- Generated by graphviz version 2.40.1 (20161225.0304)
 -->
<!-- Title: src/display.c Pages: 1 -->
<svg width="156pt" height="140pt"
 viewBox="0.00 0.00 156.00 140.00" xmlns="http://www.w3.org/2000/svg" xmlns:xlink="http://www.w3.org/1999/xlink">
<g id="graph0" class="graph" transform="scale(1 1) rotate(0) translate(4 136)">
<title>src/display.c</title>
<!-- Node0 -->
<g id="node1" class="node">
<title>Node0</title>
<polygon fill="#bfbfbf" stroke="#000000" points="29,-112.5 29,-131.5 124,-131.5 124,-112.5 29,-112.5"/>
<text text-anchor="middle" x="76.5" y="-119.5" font-family="Fira Code" font-size="10.00" fill="#000000">src/display.c</text>
</g>
<!-- Node1 -->
<g id="node2" class="node">
<title>Node1</title>
<g id="a_node2"><a xlink:href="../../d4/d68/display_8h.html" target="_top" xlink:title="Métodos para controle da interface de texto da vending machine. ">
<polygon fill="none" stroke="#000000" points="0,-56.5 0,-75.5 71,-75.5 71,-56.5 0,-56.5"/>
<text text-anchor="middle" x="35.5" y="-63.5" font-family="Fira Code" font-size="10.00" fill="#000000">display.h</text>
</a>
</g>
</g>
<!-- Node0&#45;&gt;Node1 -->
<g id="edge1" class="edge">
<title>Node0&#45;&gt;Node1</title>
<path fill="none" stroke="#191970" d="M69.3583,-112.2455C63.6556,-104.4564 55.51,-93.3308 48.6375,-83.9439"/>
<polygon fill="#191970" stroke="#191970" points="51.2913,-81.6437 42.5598,-75.6427 45.6432,-85.7789 51.2913,-81.6437"/>
</g>
<!-- Node3 -->
<g id="node4" class="node">
<title>Node3</title>
<polygon fill="none" stroke="#bfbfbf" points="89,-56.5 89,-75.5 148,-75.5 148,-56.5 89,-56.5"/>
<text text-anchor="middle" x="118.5" y="-63.5" font-family="Fira Code" font-size="10.00" fill="#000000">stdio.h</text>
</g>
<!-- Node0&#45;&gt;Node3 -->
<g id="edge3" class="edge">
<title>Node0&#45;&gt;Node3</title>
<path fill="none" stroke="#191970" d="M83.8158,-112.2455C89.7179,-104.3761 98.1742,-93.101 105.2594,-83.6542"/>
<polygon fill="#191970" stroke="#191970" points="108.068,-85.7427 111.268,-75.6427 102.4679,-81.5427 108.068,-85.7427"/>
</g>
<!-- Node2 -->
<g id="node3" class="node">
<title>Node2</title>
<polygon fill="none" stroke="#bfbfbf" points="3,-.5 3,-19.5 68,-19.5 68,-.5 3,-.5"/>
<text text-anchor="middle" x="35.5" y="-7.5" font-family="Fira Code" font-size="10.00" fill="#000000">stdint.h</text>
</g>
<!-- Node1&#45;&gt;Node2 -->
<g id="edge2" class="edge">
<title>Node1&#45;&gt;Node2</title>
<path fill="none" stroke="#191970" d="M35.5,-56.2455C35.5,-48.9382 35.5,-38.6944 35.5,-29.7046"/>
<polygon fill="#191970" stroke="#191970" points="39.0001,-29.6426 35.5,-19.6427 32.0001,-29.6427 39.0001,-29.6426"/>
</g>
</g>
</svg>
