<?xml version="1.0" encoding="UTF-8" standalone="no"?>
<!DOCTYPE svg PUBLIC "-//W3C//DTD SVG 1.1//EN"
 "http://www.w3.org/Graphics/SVG/1.1/DTD/svg11.dtd">
<!-- Generated by graphviz version 2.40.1 (20161225.0304)
 -->
<!-- Title: src/display.c Pages: 1 -->
<svg width="150pt" height="140pt"
 viewBox="0.00 0.00 150.00 140.00" xmlns="http://www.w3.org/2000/svg" xmlns:xlink="http://www.w3.org/1999/xlink">
<g id="graph0" class="graph" transform="scale(1 1) rotate(0) translate(4 136)">
<title>src/display.c</title>
<!-- Node0 -->
<g id="node1" class="node">
<title>Node0</title>
<polygon fill="#bfbfbf" stroke="#000000" points="33,-112.5 33,-131.5 128,-131.5 128,-112.5 33,-112.5"/>
<text text-anchor="middle" x="80.5" y="-119.5" font-family="Fira Code" font-size="10.00" fill="#000000">src/display.c</text>
</g>
<!-- Node1 -->
<g id="node2" class="node">
<title>Node1</title>
<g id="a_node2"><a xlink:href="../../d4/d68/display_8h.html" target="_top" xlink:title="display.h">
<polygon fill="none" stroke="#000000" points="13,-56.5 13,-75.5 84,-75.5 84,-56.5 13,-56.5"/>
<text text-anchor="middle" x="48.5" y="-63.5" font-family="Fira Code" font-size="10.00" fill="#000000">display.h</text>
</a>
</g>
</g>
<!-- Node0&#45;&gt;Node1 -->
<g id="edge1" class="edge">
<title>Node0&#45;&gt;Node1</title>
<path fill="none" stroke="#191970" d="M74.926,-112.2455C70.5669,-104.617 64.3789,-93.7881 59.0867,-84.5267"/>
<polygon fill="#191970" stroke="#191970" points="62.0104,-82.5886 54.0101,-75.6427 55.9327,-86.0616 62.0104,-82.5886"/>
</g>
<!-- Node3 -->
<g id="node4" class="node">
<title>Node3</title>
<polygon fill="none" stroke="#bfbfbf" points="83,-.5 83,-19.5 142,-19.5 142,-.5 83,-.5"/>
<text text-anchor="middle" x="112.5" y="-7.5" font-family="Fira Code" font-size="10.00" fill="#000000">stdio.h</text>
</g>
<!-- Node0&#45;&gt;Node3 -->
<g id="edge4" class="edge">
<title>Node0&#45;&gt;Node3</title>
<path fill="none" stroke="#191970" d="M83.2283,-112.4509C88.4711,-94.1013 100.0455,-53.5908 106.9659,-29.3693"/>
<polygon fill="#191970" stroke="#191970" points="110.3967,-30.1017 109.7786,-19.5249 103.666,-28.1786 110.3967,-30.1017"/>
</g>
<!-- Node2 -->
<g id="node3" class="node">
<title>Node2</title>
<polygon fill="none" stroke="#bfbfbf" points="0,-.5 0,-19.5 65,-19.5 65,-.5 0,-.5"/>
<text text-anchor="middle" x="32.5" y="-7.5" font-family="Fira Code" font-size="10.00" fill="#000000">stdint.h</text>
</g>
<!-- Node1&#45;&gt;Node2 -->
<g id="edge2" class="edge">
<title>Node1&#45;&gt;Node2</title>
<path fill="none" stroke="#191970" d="M45.713,-56.2455C43.6023,-48.8579 40.634,-38.4689 38.0453,-29.4087"/>
<polygon fill="#191970" stroke="#191970" points="41.3677,-28.2964 35.255,-19.6427 34.637,-30.2195 41.3677,-28.2964"/>
</g>
<!-- Node1&#45;&gt;Node3 -->
<g id="edge3" class="edge">
<title>Node1&#45;&gt;Node3</title>
<path fill="none" stroke="#191970" d="M59.6479,-56.2455C69.0087,-48.0549 82.5858,-36.1749 93.6349,-26.5069"/>
<polygon fill="#191970" stroke="#191970" points="96.2588,-28.8618 101.4798,-19.6427 91.6492,-23.5937 96.2588,-28.8618"/>
</g>
</g>
</svg>
