<?xml version="1.0" encoding="UTF-8" standalone="no"?>
<!DOCTYPE svg PUBLIC "-//W3C//DTD SVG 1.1//EN"
 "http://www.w3.org/Graphics/SVG/1.1/DTD/svg11.dtd">
<!-- Generated by graphviz version 2.40.1 (20161225.0304)
 -->
<!-- Title: inc/estoque.h Pages: 1 -->
<svg width="123pt" height="140pt"
 viewBox="0.00 0.00 123.00 140.00" xmlns="http://www.w3.org/2000/svg" xmlns:xlink="http://www.w3.org/1999/xlink">
<g id="graph0" class="graph" transform="scale(1 1) rotate(0) translate(4 136)">
<title>inc/estoque.h</title>
<!-- Node0 -->
<g id="node1" class="node">
<title>Node0</title>
<polygon fill="#bfbfbf" stroke="#000000" points="20,-112.5 20,-131.5 115,-131.5 115,-112.5 20,-112.5"/>
<text text-anchor="middle" x="67.5" y="-119.5" font-family="Fira Code" font-size="10.00" fill="#000000">inc/estoque.h</text>
</g>
<!-- Node1 -->
<g id="node2" class="node">
<title>Node1</title>
<g id="a_node2"><a xlink:href="../../db/db0/sistema_8h.html" target="_top" xlink:title="sistema.h">
<polygon fill="none" stroke="#000000" points="0,-56.5 0,-75.5 71,-75.5 71,-56.5 0,-56.5"/>
<text text-anchor="middle" x="35.5" y="-63.5" font-family="Fira Code" font-size="10.00" fill="#000000">sistema.h</text>
</a>
</g>
</g>
<!-- Node0&#45;&gt;Node1 -->
<g id="edge1" class="edge">
<title>Node0&#45;&gt;Node1</title>
<path fill="none" stroke="#191970" d="M61.926,-112.2455C57.5669,-104.617 51.3789,-93.7881 46.0867,-84.5267"/>
<polygon fill="#191970" stroke="#191970" points="49.0104,-82.5886 41.0101,-75.6427 42.9327,-86.0616 49.0104,-82.5886"/>
</g>
<!-- Node2 -->
<g id="node3" class="node">
<title>Node2</title>
<polygon fill="none" stroke="#bfbfbf" points="35,-.5 35,-19.5 100,-19.5 100,-.5 35,-.5"/>
<text text-anchor="middle" x="67.5" y="-7.5" font-family="Fira Code" font-size="10.00" fill="#000000">stdint.h</text>
</g>
<!-- Node0&#45;&gt;Node2 -->
<g id="edge3" class="edge">
<title>Node0&#45;&gt;Node2</title>
<path fill="none" stroke="#191970" d="M71.5056,-112.2187C76.2814,-99.385 83.2896,-76.1282 80.5,-56 79.2643,-47.0835 76.7419,-37.4647 74.245,-29.3395"/>
<polygon fill="#191970" stroke="#191970" points="77.5274,-28.1164 71.0876,-19.7033 70.8753,-30.296 77.5274,-28.1164"/>
</g>
<!-- Node1&#45;&gt;Node2 -->
<g id="edge2" class="edge">
<title>Node1&#45;&gt;Node2</title>
<path fill="none" stroke="#191970" d="M41.074,-56.2455C45.4331,-48.617 51.6211,-37.7881 56.9133,-28.5267"/>
<polygon fill="#191970" stroke="#191970" points="60.0673,-30.0616 61.9899,-19.6427 53.9896,-26.5886 60.0673,-30.0616"/>
</g>
</g>
</svg>
