<?xml version="1.0" encoding="UTF-8" standalone="no"?>
<!DOCTYPE svg PUBLIC "-//W3C//DTD SVG 1.1//EN"
 "http://www.w3.org/Graphics/SVG/1.1/DTD/svg11.dtd">
<!-- Generated by graphviz version 2.40.1 (20161225.0304)
 -->
<!-- Title: Estoque::estoque_index_from_id Pages: 1 -->
<svg width="544pt" height="104pt"
 viewBox="0.00 0.00 544.00 104.00" xmlns="http://www.w3.org/2000/svg" xmlns:xlink="http://www.w3.org/1999/xlink">
<g id="graph0" class="graph" transform="scale(1 1) rotate(0) translate(4 100)">
<title>Estoque::estoque_index_from_id</title>
<!-- Node9 -->
<g id="node1" class="node">
<title>Node9</title>
<polygon fill="#bfbfbf" stroke="#000000" points="0,-33 0,-63 149,-63 149,-33 0,-33"/>
<text text-anchor="start" x="8" y="-51" font-family="Fira Code" font-size="10.00" fill="#000000">Estoque::estoque_index</text>
<text text-anchor="middle" x="74.5" y="-40" font-family="Fira Code" font-size="10.00" fill="#000000">_from_id</text>
</g>
<!-- Node10 -->
<g id="node2" class="node">
<title>Node10</title>
<g id="a_node2"><a xlink:href="../../d5/d5c/estoque_8c.html#ad5dca84697cb502491e8a815eeaa9de5" target="_top" xlink:title="estoque_produto_add">
<polygon fill="none" stroke="#000000" points="191,-76.5 191,-95.5 322,-95.5 322,-76.5 191,-76.5"/>
<text text-anchor="middle" x="256.5" y="-83.5" font-family="Fira Code" font-size="10.00" fill="#000000">estoque_produto_add</text>
</a>
</g>
</g>
<!-- Node9&#45;&gt;Node10 -->
<g id="edge1" class="edge">
<title>Node9&#45;&gt;Node10</title>
<path fill="none" stroke="#191970" d="M156.4635,-65.1133C175.1977,-69.0248 194.4478,-73.044 210.9956,-76.4991"/>
<polygon fill="#191970" stroke="#191970" points="156.9355,-61.6364 146.4312,-63.0186 155.5048,-68.4886 156.9355,-61.6364"/>
</g>
<!-- Node11 -->
<g id="node3" class="node">
<title>Node11</title>
<g id="a_node3"><a xlink:href="../../d5/d5c/estoque_8c.html#a2d93887a8d89def26bd091fd3bc4e4d7" target="_top" xlink:title="estoque_compra_valida">
<polygon fill="none" stroke="#000000" points="185,-38.5 185,-57.5 328,-57.5 328,-38.5 185,-38.5"/>
<text text-anchor="middle" x="256.5" y="-45.5" font-family="Fira Code" font-size="10.00" fill="#000000">estoque_compra_valida</text>
</a>
</g>
</g>
<!-- Node9&#45;&gt;Node11 -->
<g id="edge2" class="edge">
<title>Node9&#45;&gt;Node11</title>
<path fill="none" stroke="#191970" d="M159.0629,-48C167.6367,-48 176.2871,-48 184.7076,-48"/>
<polygon fill="#191970" stroke="#191970" points="159.0515,-44.5001 149.0515,-48 159.0515,-51.5001 159.0515,-44.5001"/>
</g>
<!-- Node12 -->
<g id="node4" class="node">
<title>Node12</title>
<g id="a_node4"><a xlink:href="../../d5/d5c/estoque_8c.html#a5e2fb15ec177cdbc857d88cd0cfa1b3e" target="_top" xlink:title="estoque_calcula_troco">
<polygon fill="none" stroke="#000000" points="185,-.5 185,-19.5 328,-19.5 328,-.5 185,-.5"/>
<text text-anchor="middle" x="256.5" y="-7.5" font-family="Fira Code" font-size="10.00" fill="#000000">estoque_calcula_troco</text>
</a>
</g>
</g>
<!-- Node9&#45;&gt;Node12 -->
<g id="edge3" class="edge">
<title>Node9&#45;&gt;Node12</title>
<path fill="none" stroke="#191970" d="M156.4635,-30.8867C175.1977,-26.9752 194.4478,-22.956 210.9956,-19.5009"/>
<polygon fill="#191970" stroke="#191970" points="155.5048,-27.5114 146.4312,-32.9814 156.9355,-34.3636 155.5048,-27.5114"/>
</g>
<!-- Node13 -->
<g id="node5" class="node">
<title>Node13</title>
<g id="a_node5"><a xlink:href="../../d0/d29/main_8c.html#a5422318cb6d27f076643e8e0161dbc6b" target="_top" xlink:title="executar_acao">
<polygon fill="none" stroke="#000000" points="364,-.5 364,-19.5 459,-19.5 459,-.5 364,-.5"/>
<text text-anchor="middle" x="411.5" y="-7.5" font-family="Fira Code" font-size="10.00" fill="#000000">executar_acao</text>
</a>
</g>
</g>
<!-- Node12&#45;&gt;Node13 -->
<g id="edge4" class="edge">
<title>Node12&#45;&gt;Node13</title>
<path fill="none" stroke="#191970" d="M338.294,-10C346.9705,-10 355.575,-10 363.6706,-10"/>
<polygon fill="#191970" stroke="#191970" points="338.1018,-6.5001 328.1018,-10 338.1017,-13.5001 338.1018,-6.5001"/>
</g>
<!-- Node14 -->
<g id="node6" class="node">
<title>Node14</title>
<g id="a_node6"><a xlink:href="../../d0/d29/main_8c.html#ae66f6b31b5ad750f1fe042a706a4e3d4" target="_top" xlink:title="main">
<polygon fill="none" stroke="#000000" points="495,-.5 495,-19.5 536,-19.5 536,-.5 495,-.5"/>
<text text-anchor="middle" x="515.5" y="-7.5" font-family="Fira Code" font-size="10.00" fill="#000000">main</text>
</a>
</g>
</g>
<!-- Node13&#45;&gt;Node14 -->
<g id="edge5" class="edge">
<title>Node13&#45;&gt;Node14</title>
<path fill="none" stroke="#191970" d="M469.5031,-10C478.5547,-10 487.3604,-10 494.8033,-10"/>
<polygon fill="#191970" stroke="#191970" points="469.2387,-6.5001 459.2386,-10 469.2386,-13.5001 469.2387,-6.5001"/>
</g>
</g>
</svg>
