<?xml version="1.0" encoding="UTF-8" standalone="no"?>
<!DOCTYPE svg PUBLIC "-//W3C//DTD SVG 1.1//EN"
 "http://www.w3.org/Graphics/SVG/1.1/DTD/svg11.dtd">
<!-- Generated by graphviz version 2.40.1 (20161225.0304)
 -->
<!-- Title: Estoque::estoque_dump Pages: 1 -->
<svg width="359pt" height="47pt"
 viewBox="0.00 0.00 359.00 47.00" xmlns="http://www.w3.org/2000/svg" xmlns:xlink="http://www.w3.org/1999/xlink">
<g id="graph0" class="graph" transform="scale(1 1) rotate(0) translate(4 43)">
<title>Estoque::estoque_dump</title>
<!-- Node5 -->
<g id="node1" class="node">
<title>Node5</title>
<polygon fill="#bfbfbf" stroke="#000000" points="0,-.5 0,-19.5 143,-19.5 143,-.5 0,-.5"/>
<text text-anchor="middle" x="71.5" y="-7.5" font-family="Fira Code" font-size="10.00" fill="#000000">Estoque::estoque_dump</text>
</g>
<!-- Node6 -->
<g id="node2" class="node">
<title>Node6</title>
<g id="a_node2"><a xlink:href="../../d0/d29/main_8c.html#a5422318cb6d27f076643e8e0161dbc6b" target="_top" xlink:title="executar_acao">
<polygon fill="none" stroke="#000000" points="179,-19.5 179,-38.5 274,-38.5 274,-19.5 179,-19.5"/>
<text text-anchor="middle" x="226.5" y="-26.5" font-family="Fira Code" font-size="10.00" fill="#000000">executar_acao</text>
</a>
</g>
</g>
<!-- Node5&#45;&gt;Node6 -->
<g id="edge1" class="edge">
<title>Node5&#45;&gt;Node6</title>
<path fill="none" stroke="#191970" d="M153.294,-20.0264C161.9705,-21.0899 170.575,-22.1447 178.6706,-23.137"/>
<polygon fill="#191970" stroke="#191970" points="153.4533,-16.5198 143.1018,-18.777 152.6016,-23.4678 153.4533,-16.5198"/>
</g>
<!-- Node7 -->
<g id="node3" class="node">
<title>Node7</title>
<g id="a_node3"><a xlink:href="../../d0/d29/main_8c.html#ae66f6b31b5ad750f1fe042a706a4e3d4" target="_top" xlink:title="main">
<polygon fill="none" stroke="#000000" points="310,-.5 310,-19.5 351,-19.5 351,-.5 310,-.5"/>
<text text-anchor="middle" x="330.5" y="-7.5" font-family="Fira Code" font-size="10.00" fill="#000000">main</text>
</a>
</g>
</g>
<!-- Node5&#45;&gt;Node7 -->
<g id="edge3" class="edge">
<title>Node5&#45;&gt;Node7</title>
<path fill="none" stroke="#191970" d="M153.3734,-10C208.1968,-10 276.2515,-10 309.8074,-10"/>
<polygon fill="#191970" stroke="#191970" points="153.302,-6.5001 143.302,-10 153.302,-13.5001 153.302,-6.5001"/>
</g>
<!-- Node6&#45;&gt;Node7 -->
<g id="edge2" class="edge">
<title>Node6&#45;&gt;Node7</title>
<path fill="none" stroke="#191970" d="M284.2111,-18.4566C293.3652,-16.7842 302.2804,-15.1555 309.8033,-13.7811"/>
<polygon fill="#191970" stroke="#191970" points="283.4468,-15.0382 274.2386,-20.2785 284.7049,-21.9243 283.4468,-15.0382"/>
</g>
</g>
</svg>
