<?xml version="1.0" encoding="UTF-8" standalone="no"?>
<!DOCTYPE svg PUBLIC "-//W3C//DTD SVG 1.1//EN"
 "http://www.w3.org/Graphics/SVG/1.1/DTD/svg11.dtd">
<!-- Generated by graphviz version 2.40.1 (20161225.0304)
 -->
<!-- Title: Caixa::caixa_troco_emite_troco Pages: 1 -->
<svg width="341pt" height="39pt"
 viewBox="0.00 0.00 341.00 39.00" xmlns="http://www.w3.org/2000/svg" xmlns:xlink="http://www.w3.org/1999/xlink">
<g id="graph0" class="graph" transform="scale(1 1) rotate(0) translate(4 35)">
<title>Caixa::caixa_troco_emite_troco</title>
<!-- Node1 -->
<g id="node1" class="node">
<title>Node1</title>
<polygon fill="#bfbfbf" stroke="#000000" points="0,-.5 0,-30.5 125,-30.5 125,-.5 0,-.5"/>
<text text-anchor="start" x="8" y="-18.5" font-family="Fira Code" font-size="10.00" fill="#000000">Caixa::caixa_troco</text>
<text text-anchor="middle" x="62.5" y="-7.5" font-family="Fira Code" font-size="10.00" fill="#000000">_emite_troco</text>
</g>
<!-- Node2 -->
<g id="node2" class="node">
<title>Node2</title>
<g id="a_node2"><a xlink:href="../../d0/d29/main_8c.html#a5422318cb6d27f076643e8e0161dbc6b" target="_top" xlink:title="executar_acao">
<polygon fill="none" stroke="#000000" points="161,-6 161,-25 256,-25 256,-6 161,-6"/>
<text text-anchor="middle" x="208.5" y="-13" font-family="Fira Code" font-size="10.00" fill="#000000">executar_acao</text>
</a>
</g>
</g>
<!-- Node1&#45;&gt;Node2 -->
<g id="edge1" class="edge">
<title>Node1&#45;&gt;Node2</title>
<path fill="none" stroke="#191970" d="M135.3659,-15.5C143.9965,-15.5 152.6295,-15.5 160.7825,-15.5"/>
<polygon fill="#191970" stroke="#191970" points="135.2645,-12.0001 125.2645,-15.5 135.2644,-19.0001 135.2645,-12.0001"/>
</g>
<!-- Node3 -->
<g id="node3" class="node">
<title>Node3</title>
<g id="a_node3"><a xlink:href="../../d0/d29/main_8c.html#ae66f6b31b5ad750f1fe042a706a4e3d4" target="_top" xlink:title="main">
<polygon fill="none" stroke="#000000" points="292,-6 292,-25 333,-25 333,-6 292,-6"/>
<text text-anchor="middle" x="312.5" y="-13" font-family="Fira Code" font-size="10.00" fill="#000000">main</text>
</a>
</g>
</g>
<!-- Node2&#45;&gt;Node3 -->
<g id="edge2" class="edge">
<title>Node2&#45;&gt;Node3</title>
<path fill="none" stroke="#191970" d="M266.5031,-15.5C275.5547,-15.5 284.3604,-15.5 291.8033,-15.5"/>
<polygon fill="#191970" stroke="#191970" points="266.2387,-12.0001 256.2386,-15.5 266.2386,-19.0001 266.2387,-12.0001"/>
</g>
</g>
</svg>
