<?xml version="1.0" encoding="UTF-8" standalone="no"?>
<!DOCTYPE svg PUBLIC "-//W3C//DTD SVG 1.1//EN"
 "http://www.w3.org/Graphics/SVG/1.1/DTD/svg11.dtd">
<!-- Generated by graphviz version 2.40.1 (20161225.0304)
 -->
<!-- Title: Caixa::caixa_troco_init Pages: 1 -->
<svg width="419pt" height="28pt"
 viewBox="0.00 0.00 419.00 28.00" xmlns="http://www.w3.org/2000/svg" xmlns:xlink="http://www.w3.org/1999/xlink">
<g id="graph0" class="graph" transform="scale(1 1) rotate(0) translate(4 24)">
<title>Caixa::caixa_troco_init</title>
<!-- Node7 -->
<g id="node1" class="node">
<title>Node7</title>
<polygon fill="#bfbfbf" stroke="#000000" points="0,-.5 0,-19.5 155,-19.5 155,-.5 0,-.5"/>
<text text-anchor="middle" x="77.5" y="-7.5" font-family="Fira Code" font-size="10.00" fill="#000000">Caixa::caixa_troco_init</text>
</g>
<!-- Node8 -->
<g id="node2" class="node">
<title>Node8</title>
<g id="a_node2"><a xlink:href="../../d1/df5/classMachina.html#a17c3a5d0ed70dbc9fbecc9a9c737c075" target="_top" xlink:title="Inicializa componentes da vending machine. ">
<polygon fill="none" stroke="#000000" points="191,-.5 191,-19.5 334,-19.5 334,-.5 191,-.5"/>
<text text-anchor="middle" x="262.5" y="-7.5" font-family="Fira Code" font-size="10.00" fill="#000000">Machina::machina_init</text>
</a>
</g>
</g>
<!-- Node7&#45;&gt;Node8 -->
<g id="edge1" class="edge">
<title>Node7&#45;&gt;Node8</title>
<path fill="none" stroke="#191970" d="M165.2257,-10C173.8436,-10 182.5168,-10 190.9452,-10"/>
<polygon fill="#191970" stroke="#191970" points="165.1526,-6.5001 155.1525,-10 165.1525,-13.5001 165.1526,-6.5001"/>
</g>
<!-- Node9 -->
<g id="node3" class="node">
<title>Node9</title>
<g id="a_node3"><a xlink:href="../../d0/d29/main_8c.html#ae66f6b31b5ad750f1fe042a706a4e3d4" target="_top" xlink:title="main">
<polygon fill="none" stroke="#000000" points="370,-.5 370,-19.5 411,-19.5 411,-.5 370,-.5"/>
<text text-anchor="middle" x="390.5" y="-7.5" font-family="Fira Code" font-size="10.00" fill="#000000">main</text>
</a>
</g>
</g>
<!-- Node8&#45;&gt;Node9 -->
<g id="edge2" class="edge">
<title>Node8&#45;&gt;Node9</title>
<path fill="none" stroke="#191970" d="M344.5773,-10C353.8347,-10 362.5424,-10 369.8346,-10"/>
<polygon fill="#191970" stroke="#191970" points="344.3574,-6.5001 334.3573,-10 344.3573,-13.5001 344.3574,-6.5001"/>
</g>
</g>
</svg>
