<?xml version="1.0" encoding="UTF-8" standalone="no"?>
<!DOCTYPE svg PUBLIC "-//W3C//DTD SVG 1.1//EN"
 "http://www.w3.org/Graphics/SVG/1.1/DTD/svg11.dtd">
<!-- Generated by graphviz version 2.40.1 (20161225.0304)
 -->
<!-- Title: Boca::boca_caixa_recebe_notas Pages: 1 -->
<svg width="371pt" height="39pt"
 viewBox="0.00 0.00 371.00 39.00" xmlns="http://www.w3.org/2000/svg" xmlns:xlink="http://www.w3.org/1999/xlink">
<g id="graph0" class="graph" transform="scale(1 1) rotate(0) translate(4 35)">
<title>Boca::boca_caixa_recebe_notas</title>
<!-- Node9 -->
<g id="node1" class="node">
<title>Node9</title>
<polygon fill="#bfbfbf" stroke="#000000" points="0,-.5 0,-30.5 155,-30.5 155,-.5 0,-.5"/>
<text text-anchor="start" x="8" y="-18.5" font-family="Fira Code" font-size="10.00" fill="#000000">Boca::boca_caixa_recebe</text>
<text text-anchor="middle" x="77.5" y="-7.5" font-family="Fira Code" font-size="10.00" fill="#000000">_notas</text>
</g>
<!-- Node10 -->
<g id="node2" class="node">
<title>Node10</title>
<g id="a_node2"><a xlink:href="../../d0/d29/main_8c.html#a5422318cb6d27f076643e8e0161dbc6b" target="_top" xlink:title="executar_acao">
<polygon fill="none" stroke="#000000" points="191,-6 191,-25 286,-25 286,-6 191,-6"/>
<text text-anchor="middle" x="238.5" y="-13" font-family="Fira Code" font-size="10.00" fill="#000000">executar_acao</text>
</a>
</g>
</g>
<!-- Node9&#45;&gt;Node10 -->
<g id="edge1" class="edge">
<title>Node9&#45;&gt;Node10</title>
<path fill="none" stroke="#191970" d="M165.1932,-15.5C174.0469,-15.5 182.7837,-15.5 190.9704,-15.5"/>
<polygon fill="#191970" stroke="#191970" points="165.1705,-12.0001 155.1704,-15.5 165.1704,-19.0001 165.1705,-12.0001"/>
</g>
<!-- Node11 -->
<g id="node3" class="node">
<title>Node11</title>
<g id="a_node3"><a xlink:href="../../d0/d29/main_8c.html#ae66f6b31b5ad750f1fe042a706a4e3d4" target="_top" xlink:title="main">
<polygon fill="none" stroke="#000000" points="322,-6 322,-25 363,-25 363,-6 322,-6"/>
<text text-anchor="middle" x="342.5" y="-13" font-family="Fira Code" font-size="10.00" fill="#000000">main</text>
</a>
</g>
</g>
<!-- Node10&#45;&gt;Node11 -->
<g id="edge2" class="edge">
<title>Node10&#45;&gt;Node11</title>
<path fill="none" stroke="#191970" d="M296.5031,-15.5C305.5547,-15.5 314.3604,-15.5 321.8033,-15.5"/>
<polygon fill="#191970" stroke="#191970" points="296.2387,-12.0001 286.2386,-15.5 296.2386,-19.0001 296.2387,-12.0001"/>
</g>
</g>
</svg>
