<?xml version="1.0" encoding="UTF-8" standalone="no"?>
<!DOCTYPE svg PUBLIC "-//W3C//DTD SVG 1.1//EN"
 "http://www.w3.org/Graphics/SVG/1.1/DTD/svg11.dtd">
<!-- Generated by graphviz version 2.40.1 (20161225.0304)
 -->
<!-- Title: estoque_init Pages: 1 -->
<svg width="443pt" height="78pt"
 viewBox="0.00 0.00 443.00 77.50" xmlns="http://www.w3.org/2000/svg" xmlns:xlink="http://www.w3.org/1999/xlink">
<g id="graph0" class="graph" transform="scale(1 1) rotate(0) translate(4 73.5)">
<title>estoque_init</title>
<!-- Node12 -->
<g id="node1" class="node">
<title>Node12</title>
<polygon fill="#bfbfbf" stroke="#000000" points="0,-22.5 0,-41.5 89,-41.5 89,-22.5 0,-22.5"/>
<text text-anchor="middle" x="44.5" y="-29.5" font-family="Fira Code" font-size="10.00" fill="#000000">estoque_init</text>
</g>
<!-- Node13 -->
<g id="node2" class="node">
<title>Node13</title>
<g id="a_node2"><a xlink:href="../../d5/d5c/estoque_8c.html#aa09ee2ee9e6e6bc43b8e3ca43eca8ac6" target="_top" xlink:title="estoque_produto_add">
<polygon fill="none" stroke="#000000" points="125,-22.5 125,-41.5 256,-41.5 256,-22.5 125,-22.5"/>
<text text-anchor="middle" x="190.5" y="-29.5" font-family="Fira Code" font-size="10.00" fill="#000000">estoque_produto_add</text>
</a>
</g>
</g>
<!-- Node12&#45;&gt;Node13 -->
<g id="edge1" class="edge">
<title>Node12&#45;&gt;Node13</title>
<path fill="none" stroke="#191970" d="M89.0981,-32C97.2351,-32 105.9298,-32 114.6787,-32"/>
<polygon fill="#191970" stroke="#191970" points="114.9438,-35.5001 124.9438,-32 114.9437,-28.5001 114.9438,-35.5001"/>
</g>
<!-- Node14 -->
<g id="node3" class="node">
<title>Node14</title>
<g id="a_node3"><a xlink:href="../../d5/d5c/estoque_8c.html#a9758d57cd9fa7cad75d00d64c27dc80f" target="_top" xlink:title="estoque_encontra_pos\l_livre">
<polygon fill="none" stroke="#000000" points="295,-39 295,-69 432,-69 432,-39 295,-39"/>
<text text-anchor="start" x="303" y="-57" font-family="Fira Code" font-size="10.00" fill="#000000">estoque_encontra_pos</text>
<text text-anchor="middle" x="363.5" y="-46" font-family="Fira Code" font-size="10.00" fill="#000000">_livre</text>
</a>
</g>
</g>
<!-- Node13&#45;&gt;Node14 -->
<g id="edge2" class="edge">
<title>Node13&#45;&gt;Node14</title>
<path fill="none" stroke="#191970" d="M256.3974,-40.38C265.6537,-41.5571 275.2443,-42.7767 284.7107,-43.9805"/>
<polygon fill="#191970" stroke="#191970" points="284.5506,-47.4883 294.9123,-45.2779 285.4337,-40.5442 284.5506,-47.4883"/>
</g>
<!-- Node15 -->
<g id="node4" class="node">
<title>Node15</title>
<g id="a_node4"><a xlink:href="../../d5/d5c/estoque_8c.html#a65a97d14e6d4caebb236121f8f12679c" target="_top" xlink:title="estoque_index_from_id">
<polygon fill="none" stroke="#000000" points="292,-.5 292,-19.5 435,-19.5 435,-.5 292,-.5"/>
<text text-anchor="middle" x="363.5" y="-7.5" font-family="Fira Code" font-size="10.00" fill="#000000">estoque_index_from_id</text>
</a>
</g>
</g>
<!-- Node13&#45;&gt;Node15 -->
<g id="edge3" class="edge">
<title>Node13&#45;&gt;Node15</title>
<path fill="none" stroke="#191970" d="M256.3974,-23.62C264.7018,-22.5639 273.2753,-21.4737 281.7868,-20.3913"/>
<polygon fill="#191970" stroke="#191970" points="282.2516,-23.8604 291.7302,-19.1268 281.3685,-16.9164 282.2516,-23.8604"/>
</g>
</g>
</svg>
