<?xml version="1.0" encoding="UTF-8" standalone="no"?>
<!DOCTYPE svg PUBLIC "-//W3C//DTD SVG 1.1//EN"
 "http://www.w3.org/Graphics/SVG/1.1/DTD/svg11.dtd">
<!-- Generated by graphviz version 2.40.1 (20161225.0304)
 -->
<!-- Title: estoque_encontra_pos_livre Pages: 1 -->
<svg width="645pt" height="39pt"
 viewBox="0.00 0.00 645.00 39.00" xmlns="http://www.w3.org/2000/svg" xmlns:xlink="http://www.w3.org/1999/xlink">
<g id="graph0" class="graph" transform="scale(1 1) rotate(0) translate(4 35)">
<title>estoque_encontra_pos_livre</title>
<!-- Node5 -->
<g id="node1" class="node">
<title>Node5</title>
<polygon fill="#bfbfbf" stroke="#000000" points="0,-.5 0,-30.5 137,-30.5 137,-.5 0,-.5"/>
<text text-anchor="start" x="8" y="-18.5" font-family="Fira Code" font-size="10.00" fill="#000000">estoque_encontra_pos</text>
<text text-anchor="middle" x="68.5" y="-7.5" font-family="Fira Code" font-size="10.00" fill="#000000">_livre</text>
</g>
<!-- Node6 -->
<g id="node2" class="node">
<title>Node6</title>
<g id="a_node2"><a xlink:href="../../d3/d86/estoque_8h.html#aa09ee2ee9e6e6bc43b8e3ca43eca8ac6" target="_top" xlink:title="estoque_produto_add">
<polygon fill="none" stroke="#000000" points="173,-6 173,-25 304,-25 304,-6 173,-6"/>
<text text-anchor="middle" x="238.5" y="-13" font-family="Fira Code" font-size="10.00" fill="#000000">estoque_produto_add</text>
</a>
</g>
</g>
<!-- Node5&#45;&gt;Node6 -->
<g id="edge1" class="edge">
<title>Node5&#45;&gt;Node6</title>
<path fill="none" stroke="#191970" d="M147.1901,-15.5C155.7901,-15.5 164.4767,-15.5 172.8952,-15.5"/>
<polygon fill="#191970" stroke="#191970" points="147.1555,-12.0001 137.1555,-15.5 147.1555,-19.0001 147.1555,-12.0001"/>
</g>
<!-- Node7 -->
<g id="node3" class="node">
<title>Node7</title>
<g id="a_node3"><a xlink:href="../../d3/d86/estoque_8h.html#ae981f8c5ceb2ff989161e456f7db68c7" target="_top" xlink:title="estoque_init">
<polygon fill="none" stroke="#000000" points="340,-6 340,-25 429,-25 429,-6 340,-6"/>
<text text-anchor="middle" x="384.5" y="-13" font-family="Fira Code" font-size="10.00" fill="#000000">estoque_init</text>
</a>
</g>
</g>
<!-- Node6&#45;&gt;Node7 -->
<g id="edge2" class="edge">
<title>Node6&#45;&gt;Node7</title>
<path fill="none" stroke="#191970" d="M314.3627,-15.5C322.9902,-15.5 331.5642,-15.5 339.6019,-15.5"/>
<polygon fill="#191970" stroke="#191970" points="314.2392,-12.0001 304.2392,-15.5 314.2392,-19.0001 314.2392,-12.0001"/>
</g>
<!-- Node8 -->
<g id="node4" class="node">
<title>Node8</title>
<g id="a_node4"><a xlink:href="../../d0/d29/main_8c.html#af1d291eb446787a4df1bbe841497dade" target="_top" xlink:title="teste_estoque">
<polygon fill="none" stroke="#000000" points="465,-6 465,-25 560,-25 560,-6 465,-6"/>
<text text-anchor="middle" x="512.5" y="-13" font-family="Fira Code" font-size="10.00" fill="#000000">teste_estoque</text>
</a>
</g>
</g>
<!-- Node7&#45;&gt;Node8 -->
<g id="edge3" class="edge">
<title>Node7&#45;&gt;Node8</title>
<path fill="none" stroke="#191970" d="M439.4603,-15.5C447.9375,-15.5 456.6306,-15.5 464.9285,-15.5"/>
<polygon fill="#191970" stroke="#191970" points="439.2682,-12.0001 429.2682,-15.5 439.2682,-19.0001 439.2682,-12.0001"/>
</g>
<!-- Node9 -->
<g id="node5" class="node">
<title>Node9</title>
<g id="a_node5"><a xlink:href="../../d0/d29/main_8c.html#ae66f6b31b5ad750f1fe042a706a4e3d4" target="_top" xlink:title="main">
<polygon fill="none" stroke="#000000" points="596,-6 596,-25 637,-25 637,-6 596,-6"/>
<text text-anchor="middle" x="616.5" y="-13" font-family="Fira Code" font-size="10.00" fill="#000000">main</text>
</a>
</g>
</g>
<!-- Node8&#45;&gt;Node9 -->
<g id="edge4" class="edge">
<title>Node8&#45;&gt;Node9</title>
<path fill="none" stroke="#191970" d="M570.5031,-15.5C579.5547,-15.5 588.3604,-15.5 595.8033,-15.5"/>
<polygon fill="#191970" stroke="#191970" points="570.2387,-12.0001 560.2386,-15.5 570.2386,-19.0001 570.2387,-12.0001"/>
</g>
</g>
</svg>
