<?xml version="1.0" encoding="UTF-8" standalone="no"?>
<!DOCTYPE svg PUBLIC "-//W3C//DTD SVG 1.1//EN"
 "http://www.w3.org/Graphics/SVG/1.1/DTD/svg11.dtd">
<!-- Generated by graphviz version 2.40.1 (20161225.0304)
 -->
<!-- Title: estoque_calcula_troco Pages: 1 -->
<svg width="359pt" height="28pt"
 viewBox="0.00 0.00 359.00 28.00" xmlns="http://www.w3.org/2000/svg" xmlns:xlink="http://www.w3.org/1999/xlink">
<g id="graph0" class="graph" transform="scale(1 1) rotate(0) translate(4 24)">
<title>estoque_calcula_troco</title>
<!-- Node2 -->
<g id="node1" class="node">
<title>Node2</title>
<polygon fill="#bfbfbf" stroke="#000000" points="0,-.5 0,-19.5 143,-19.5 143,-.5 0,-.5"/>
<text text-anchor="middle" x="71.5" y="-7.5" font-family="Fira Code" font-size="10.00" fill="#000000">estoque_calcula_troco</text>
</g>
<!-- Node3 -->
<g id="node2" class="node">
<title>Node3</title>
<g id="a_node2"><a xlink:href="../../d0/d29/main_8c.html#a5422318cb6d27f076643e8e0161dbc6b" target="_top" xlink:title="executar_acao">
<polygon fill="none" stroke="#000000" points="179,-.5 179,-19.5 274,-19.5 274,-.5 179,-.5"/>
<text text-anchor="middle" x="226.5" y="-7.5" font-family="Fira Code" font-size="10.00" fill="#000000">executar_acao</text>
</a>
</g>
</g>
<!-- Node2&#45;&gt;Node3 -->
<g id="edge1" class="edge">
<title>Node2&#45;&gt;Node3</title>
<path fill="none" stroke="#191970" d="M153.294,-10C161.9705,-10 170.575,-10 178.6706,-10"/>
<polygon fill="#191970" stroke="#191970" points="153.1018,-6.5001 143.1018,-10 153.1017,-13.5001 153.1018,-6.5001"/>
</g>
<!-- Node4 -->
<g id="node3" class="node">
<title>Node4</title>
<g id="a_node3"><a xlink:href="../../d0/d29/main_8c.html#ae66f6b31b5ad750f1fe042a706a4e3d4" target="_top" xlink:title="main">
<polygon fill="none" stroke="#000000" points="310,-.5 310,-19.5 351,-19.5 351,-.5 310,-.5"/>
<text text-anchor="middle" x="330.5" y="-7.5" font-family="Fira Code" font-size="10.00" fill="#000000">main</text>
</a>
</g>
</g>
<!-- Node3&#45;&gt;Node4 -->
<g id="edge2" class="edge">
<title>Node3&#45;&gt;Node4</title>
<path fill="none" stroke="#191970" d="M284.5031,-10C293.5547,-10 302.3604,-10 309.8033,-10"/>
<polygon fill="#191970" stroke="#191970" points="284.2387,-6.5001 274.2386,-10 284.2386,-13.5001 284.2387,-6.5001"/>
</g>
</g>
</svg>
