<?xml version="1.0" encoding="UTF-8" standalone="no"?>
<!DOCTYPE svg PUBLIC "-//W3C//DTD SVG 1.1//EN"
 "http://www.w3.org/Graphics/SVG/1.1/DTD/svg11.dtd">
<!-- Generated by graphviz version 2.40.1 (20161225.0304)
 -->
<!-- Title: estoque_produto_add Pages: 1 -->
<svg width="324pt" height="88pt"
 viewBox="0.00 0.00 324.00 88.00" xmlns="http://www.w3.org/2000/svg" xmlns:xlink="http://www.w3.org/1999/xlink">
<g id="graph0" class="graph" transform="scale(1 1) rotate(0) translate(4 84)">
<title>estoque_produto_add</title>
<!-- Node18 -->
<g id="node1" class="node">
<title>Node18</title>
<polygon fill="#bfbfbf" stroke="#000000" points="0,-30 0,-49 131,-49 131,-30 0,-30"/>
<text text-anchor="middle" x="65.5" y="-37" font-family="Fira Code" font-size="10.00" fill="#000000">estoque_produto_add</text>
</g>
<!-- Node19 -->
<g id="node2" class="node">
<title>Node19</title>
<g id="a_node2"><a xlink:href="../../d5/d5c/estoque_8c.html#a9758d57cd9fa7cad75d00d64c27dc80f" target="_top" xlink:title="estoque_encontra_pos\l_livre">
<polygon fill="none" stroke="#000000" points="173,-49.5 173,-79.5 310,-79.5 310,-49.5 173,-49.5"/>
<text text-anchor="start" x="181" y="-67.5" font-family="Fira Code" font-size="10.00" fill="#000000">estoque_encontra_pos</text>
<text text-anchor="middle" x="241.5" y="-56.5" font-family="Fira Code" font-size="10.00" fill="#000000">_livre</text>
</a>
</g>
</g>
<!-- Node18&#45;&gt;Node19 -->
<g id="edge1" class="edge">
<title>Node18&#45;&gt;Node19</title>
<path fill="none" stroke="#191970" d="M131.0359,-48.8091C141.4048,-50.2819 152.2196,-51.8181 162.8503,-53.3282"/>
<polygon fill="#191970" stroke="#191970" points="162.5727,-56.8238 172.9656,-54.765 163.5572,-49.8934 162.5727,-56.8238"/>
</g>
<!-- Node20 -->
<g id="node3" class="node">
<title>Node20</title>
<g id="a_node3"><a xlink:href="../../db/dff/classEstoque.html#a65a97d14e6d4caebb236121f8f12679c" target="_top" xlink:title="Realiza uma busca no estoque a partir de um id de produto. ">
<polygon fill="none" stroke="#000000" points="167,-.5 167,-30.5 316,-30.5 316,-.5 167,-.5"/>
<text text-anchor="start" x="175" y="-18.5" font-family="Fira Code" font-size="10.00" fill="#000000">Estoque::estoque_index</text>
<text text-anchor="middle" x="241.5" y="-7.5" font-family="Fira Code" font-size="10.00" fill="#000000">_from_id</text>
</a>
</g>
</g>
<!-- Node18&#45;&gt;Node20 -->
<g id="edge2" class="edge">
<title>Node18&#45;&gt;Node20</title>
<path fill="none" stroke="#191970" d="M131.0359,-30.5633C139.3951,-29.4234 148.0442,-28.244 156.6529,-27.0701"/>
<polygon fill="#191970" stroke="#191970" points="157.2852,-30.5163 166.7206,-25.6972 156.3394,-23.5805 157.2852,-30.5163"/>
</g>
</g>
</svg>
