<?xml version="1.0" encoding="UTF-8" standalone="no"?>
<!DOCTYPE svg PUBLIC "-//W3C//DTD SVG 1.1//EN"
 "http://www.w3.org/Graphics/SVG/1.1/DTD/svg11.dtd">
<!-- Generated by graphviz version 2.40.1 (20161225.0304)
 -->
<!-- Title: estoque_index_from_id Pages: 1 -->
<svg width="651pt" height="28pt"
 viewBox="0.00 0.00 651.00 28.00" xmlns="http://www.w3.org/2000/svg" xmlns:xlink="http://www.w3.org/1999/xlink">
<g id="graph0" class="graph" transform="scale(1 1) rotate(0) translate(4 24)">
<title>estoque_index_from_id</title>
<!-- Node11 -->
<g id="node1" class="node">
<title>Node11</title>
<polygon fill="#bfbfbf" stroke="#000000" points="0,-.5 0,-19.5 143,-19.5 143,-.5 0,-.5"/>
<text text-anchor="middle" x="71.5" y="-7.5" font-family="Fira Code" font-size="10.00" fill="#000000">estoque_index_from_id</text>
</g>
<!-- Node12 -->
<g id="node2" class="node">
<title>Node12</title>
<g id="a_node2"><a xlink:href="../../d3/d86/estoque_8h.html#aa09ee2ee9e6e6bc43b8e3ca43eca8ac6" target="_top" xlink:title="estoque_produto_add">
<polygon fill="none" stroke="#000000" points="179,-.5 179,-19.5 310,-19.5 310,-.5 179,-.5"/>
<text text-anchor="middle" x="244.5" y="-7.5" font-family="Fira Code" font-size="10.00" fill="#000000">estoque_produto_add</text>
</a>
</g>
</g>
<!-- Node11&#45;&gt;Node12 -->
<g id="edge1" class="edge">
<title>Node11&#45;&gt;Node12</title>
<path fill="none" stroke="#191970" d="M153.1455,-10C161.7327,-10 170.384,-10 178.7593,-10"/>
<polygon fill="#191970" stroke="#191970" points="153.1146,-6.5001 143.1145,-10 153.1145,-13.5001 153.1146,-6.5001"/>
</g>
<!-- Node13 -->
<g id="node3" class="node">
<title>Node13</title>
<g id="a_node3"><a xlink:href="../../d3/d86/estoque_8h.html#ae981f8c5ceb2ff989161e456f7db68c7" target="_top" xlink:title="estoque_init">
<polygon fill="none" stroke="#000000" points="346,-.5 346,-19.5 435,-19.5 435,-.5 346,-.5"/>
<text text-anchor="middle" x="390.5" y="-7.5" font-family="Fira Code" font-size="10.00" fill="#000000">estoque_init</text>
</a>
</g>
</g>
<!-- Node12&#45;&gt;Node13 -->
<g id="edge2" class="edge">
<title>Node12&#45;&gt;Node13</title>
<path fill="none" stroke="#191970" d="M320.3627,-10C328.9902,-10 337.5642,-10 345.6019,-10"/>
<polygon fill="#191970" stroke="#191970" points="320.2392,-6.5001 310.2392,-10 320.2392,-13.5001 320.2392,-6.5001"/>
</g>
<!-- Node14 -->
<g id="node4" class="node">
<title>Node14</title>
<g id="a_node4"><a xlink:href="../../d0/d29/main_8c.html#af1d291eb446787a4df1bbe841497dade" target="_top" xlink:title="teste_estoque">
<polygon fill="none" stroke="#000000" points="471,-.5 471,-19.5 566,-19.5 566,-.5 471,-.5"/>
<text text-anchor="middle" x="518.5" y="-7.5" font-family="Fira Code" font-size="10.00" fill="#000000">teste_estoque</text>
</a>
</g>
</g>
<!-- Node13&#45;&gt;Node14 -->
<g id="edge3" class="edge">
<title>Node13&#45;&gt;Node14</title>
<path fill="none" stroke="#191970" d="M445.4603,-10C453.9375,-10 462.6306,-10 470.9285,-10"/>
<polygon fill="#191970" stroke="#191970" points="445.2682,-6.5001 435.2682,-10 445.2682,-13.5001 445.2682,-6.5001"/>
</g>
<!-- Node15 -->
<g id="node5" class="node">
<title>Node15</title>
<g id="a_node5"><a xlink:href="../../d0/d29/main_8c.html#ae66f6b31b5ad750f1fe042a706a4e3d4" target="_top" xlink:title="main">
<polygon fill="none" stroke="#000000" points="602,-.5 602,-19.5 643,-19.5 643,-.5 602,-.5"/>
<text text-anchor="middle" x="622.5" y="-7.5" font-family="Fira Code" font-size="10.00" fill="#000000">main</text>
</a>
</g>
</g>
<!-- Node14&#45;&gt;Node15 -->
<g id="edge4" class="edge">
<title>Node14&#45;&gt;Node15</title>
<path fill="none" stroke="#191970" d="M576.5031,-10C585.5547,-10 594.3604,-10 601.8033,-10"/>
<polygon fill="#191970" stroke="#191970" points="576.2387,-6.5001 566.2386,-10 576.2386,-13.5001 576.2387,-6.5001"/>
</g>
</g>
</svg>
