<?xml version="1.0" encoding="UTF-8" standalone="no"?>
<!DOCTYPE svg PUBLIC "-//W3C//DTD SVG 1.1//EN"
 "http://www.w3.org/Graphics/SVG/1.1/DTD/svg11.dtd">
<!-- Generated by graphviz version 2.40.1 (20161225.0304)
 -->
<!-- Title: src/teclado.c Pages: 1 -->
<svg width="195pt" height="140pt"
 viewBox="0.00 0.00 195.00 140.00" xmlns="http://www.w3.org/2000/svg" xmlns:xlink="http://www.w3.org/1999/xlink">
<g id="graph0" class="graph" transform="scale(1 1) rotate(0) translate(4 136)">
<title>src/teclado.c</title>
<!-- Node0 -->
<g id="node1" class="node">
<title>Node0</title>
<polygon fill="#bfbfbf" stroke="#000000" points="40,-112.5 40,-131.5 135,-131.5 135,-112.5 40,-112.5"/>
<text text-anchor="middle" x="87.5" y="-119.5" font-family="Fira Code" font-size="10.00" fill="#000000">src/teclado.c</text>
</g>
<!-- Node1 -->
<g id="node2" class="node">
<title>Node1</title>
<polygon fill="none" stroke="#bfbfbf" points="0,-56.5 0,-75.5 59,-75.5 59,-56.5 0,-56.5"/>
<text text-anchor="middle" x="29.5" y="-63.5" font-family="Fira Code" font-size="10.00" fill="#000000">stdio.h</text>
</g>
<!-- Node0&#45;&gt;Node1 -->
<g id="edge1" class="edge">
<title>Node0&#45;&gt;Node1</title>
<path fill="none" stroke="#191970" d="M77.3972,-112.2455C68.9972,-104.1352 56.8506,-92.4075 46.8916,-82.7919"/>
<polygon fill="#191970" stroke="#191970" points="49.1122,-80.0707 39.4871,-75.6427 44.25,-85.1066 49.1122,-80.0707"/>
</g>
<!-- Node2 -->
<g id="node3" class="node">
<title>Node2</title>
<polygon fill="none" stroke="#bfbfbf" points="87,-.5 87,-19.5 152,-19.5 152,-.5 87,-.5"/>
<text text-anchor="middle" x="119.5" y="-7.5" font-family="Fira Code" font-size="10.00" fill="#000000">stdint.h</text>
</g>
<!-- Node0&#45;&gt;Node2 -->
<g id="edge2" class="edge">
<title>Node0&#45;&gt;Node2</title>
<path fill="none" stroke="#191970" d="M90.2283,-112.4509C95.4711,-94.1013 107.0455,-53.5908 113.9659,-29.3693"/>
<polygon fill="#191970" stroke="#191970" points="117.3967,-30.1017 116.7786,-19.5249 110.666,-28.1786 117.3967,-30.1017"/>
</g>
<!-- Node3 -->
<g id="node4" class="node">
<title>Node3</title>
<g id="a_node4"><a xlink:href="../../dc/d17/teclado_8h.html" target="_top" xlink:title="Métodos para interação com teclado de entrada do usuário. ">
<polygon fill="none" stroke="#000000" points="116,-56.5 116,-75.5 187,-75.5 187,-56.5 116,-56.5"/>
<text text-anchor="middle" x="151.5" y="-63.5" font-family="Fira Code" font-size="10.00" fill="#000000">teclado.h</text>
</a>
</g>
</g>
<!-- Node0&#45;&gt;Node3 -->
<g id="edge3" class="edge">
<title>Node0&#45;&gt;Node3</title>
<path fill="none" stroke="#191970" d="M98.6479,-112.2455C108.0087,-104.0549 121.5858,-92.1749 132.6349,-82.5069"/>
<polygon fill="#191970" stroke="#191970" points="135.2588,-84.8618 140.4798,-75.6427 130.6492,-79.5937 135.2588,-84.8618"/>
</g>
<!-- Node3&#45;&gt;Node2 -->
<g id="edge4" class="edge">
<title>Node3&#45;&gt;Node2</title>
<path fill="none" stroke="#191970" d="M145.926,-56.2455C141.5669,-48.617 135.3789,-37.7881 130.0867,-28.5267"/>
<polygon fill="#191970" stroke="#191970" points="133.0104,-26.5886 125.0101,-19.6427 126.9327,-30.0616 133.0104,-26.5886"/>
</g>
</g>
</svg>
