<?xml version="1.0" encoding="UTF-8" standalone="no"?>
<!DOCTYPE svg PUBLIC "-//W3C//DTD SVG 1.1//EN"
 "http://www.w3.org/Graphics/SVG/1.1/DTD/svg11.dtd">
<!-- Generated by graphviz version 2.40.1 (20161225.0304)
 -->
<!-- Title: inc/fsm.h Pages: 1 -->
<svg width="111pt" height="140pt"
 viewBox="0.00 0.00 111.00 140.00" xmlns="http://www.w3.org/2000/svg" xmlns:xlink="http://www.w3.org/1999/xlink">
<g id="graph0" class="graph" transform="scale(1 1) rotate(0) translate(4 136)">
<title>inc/fsm.h</title>
<!-- Node0 -->
<g id="node1" class="node">
<title>Node0</title>
<polygon fill="#bfbfbf" stroke="#000000" points="0,-112.5 0,-131.5 71,-131.5 71,-112.5 0,-112.5"/>
<text text-anchor="middle" x="35.5" y="-119.5" font-family="Fira Code" font-size="10.00" fill="#000000">inc/fsm.h</text>
</g>
<!-- Node1 -->
<g id="node2" class="node">
<title>Node1</title>
<polygon fill="none" stroke="#bfbfbf" points="3,-.5 3,-19.5 68,-19.5 68,-.5 3,-.5"/>
<text text-anchor="middle" x="35.5" y="-7.5" font-family="Fira Code" font-size="10.00" fill="#000000">stdint.h</text>
</g>
<!-- Node0&#45;&gt;Node1 -->
<g id="edge1" class="edge">
<title>Node0&#45;&gt;Node1</title>
<path fill="none" stroke="#191970" d="M31.4944,-112.2187C26.7186,-99.385 19.7104,-76.1282 22.5,-56 23.7357,-47.0835 26.2581,-37.4647 28.755,-29.3395"/>
<polygon fill="#191970" stroke="#191970" points="32.1247,-30.296 31.9124,-19.7033 25.4726,-28.1164 32.1247,-30.296"/>
</g>
<!-- Node2 -->
<g id="node3" class="node">
<title>Node2</title>
<g id="a_node3"><a xlink:href="../../db/db0/sistema_8h.html" target="_top" xlink:title="sistema.h">
<polygon fill="none" stroke="#000000" points="32,-56.5 32,-75.5 103,-75.5 103,-56.5 32,-56.5"/>
<text text-anchor="middle" x="67.5" y="-63.5" font-family="Fira Code" font-size="10.00" fill="#000000">sistema.h</text>
</a>
</g>
</g>
<!-- Node0&#45;&gt;Node2 -->
<g id="edge2" class="edge">
<title>Node0&#45;&gt;Node2</title>
<path fill="none" stroke="#191970" d="M41.074,-112.2455C45.4331,-104.617 51.6211,-93.7881 56.9133,-84.5267"/>
<polygon fill="#191970" stroke="#191970" points="60.0673,-86.0616 61.9899,-75.6427 53.9896,-82.5886 60.0673,-86.0616"/>
</g>
<!-- Node2&#45;&gt;Node1 -->
<g id="edge3" class="edge">
<title>Node2&#45;&gt;Node1</title>
<path fill="none" stroke="#191970" d="M61.926,-56.2455C57.5669,-48.617 51.3789,-37.7881 46.0867,-28.5267"/>
<polygon fill="#191970" stroke="#191970" points="49.0104,-26.5886 41.0101,-19.6427 42.9327,-30.0616 49.0104,-26.5886"/>
</g>
</g>
</svg>
