<?xml version="1.0" encoding="UTF-8" standalone="no"?>
<!DOCTYPE svg PUBLIC "-//W3C//DTD SVG 1.1//EN"
 "http://www.w3.org/Graphics/SVG/1.1/DTD/svg11.dtd">
<!-- Generated by graphviz version 2.40.1 (20161225.0304)
 -->
<!-- Title: inc/fsm.h Pages: 1 -->
<svg width="161pt" height="140pt"
 viewBox="0.00 0.00 161.00 140.00" xmlns="http://www.w3.org/2000/svg" xmlns:xlink="http://www.w3.org/1999/xlink">
<g id="graph0" class="graph" transform="scale(1 1) rotate(0) translate(4 136)">
<title>inc/fsm.h</title>
<!-- Node0 -->
<g id="node1" class="node">
<title>Node0</title>
<polygon fill="#bfbfbf" stroke="#000000" points="0,-112.5 0,-131.5 71,-131.5 71,-112.5 0,-112.5"/>
<text text-anchor="middle" x="35.5" y="-119.5" font-family="Fira Code" font-size="10.00" fill="#000000">inc/fsm.h</text>
</g>
<!-- Node1 -->
<g id="node2" class="node">
<title>Node1</title>
<polygon fill="none" stroke="#bfbfbf" points="3,-.5 3,-19.5 68,-19.5 68,-.5 3,-.5"/>
<text text-anchor="middle" x="35.5" y="-7.5" font-family="Fira Code" font-size="10.00" fill="#000000">stdint.h</text>
</g>
<!-- Node0&#45;&gt;Node1 -->
<g id="edge1" class="edge">
<title>Node0&#45;&gt;Node1</title>
<path fill="none" stroke="#191970" d="M27.0023,-112.2186C19.9597,-103.4179 10.4829,-89.786 6.5,-76 1.5889,-59.0012 10.9464,-40.649 20.3107,-27.6225"/>
<polygon fill="#191970" stroke="#191970" points="23.2272,-29.5742 26.6194,-19.5371 17.7084,-25.268 23.2272,-29.5742"/>
</g>
<!-- Node2 -->
<g id="node3" class="node">
<title>Node2</title>
<g id="a_node3"><a xlink:href="../../df/da2/definicoes__sistema_8h.html" target="_top" xlink:title="definicoes_sistema.h">
<polygon fill="none" stroke="#000000" points="16,-56.5 16,-75.5 153,-75.5 153,-56.5 16,-56.5"/>
<text text-anchor="middle" x="84.5" y="-63.5" font-family="Fira Code" font-size="10.00" fill="#000000">definicoes_sistema.h</text>
</a>
</g>
</g>
<!-- Node0&#45;&gt;Node2 -->
<g id="edge2" class="edge">
<title>Node0&#45;&gt;Node2</title>
<path fill="none" stroke="#191970" d="M44.0351,-112.2455C50.9912,-104.2958 60.9883,-92.8706 69.3051,-83.3656"/>
<polygon fill="#191970" stroke="#191970" points="72.1116,-85.4732 76.0627,-75.6427 66.8436,-80.8637 72.1116,-85.4732"/>
</g>
<!-- Node2&#45;&gt;Node1 -->
<g id="edge3" class="edge">
<title>Node2&#45;&gt;Node1</title>
<path fill="none" stroke="#191970" d="M75.9649,-56.2455C69.0088,-48.2958 59.0117,-36.8706 50.6949,-27.3656"/>
<polygon fill="#191970" stroke="#191970" points="53.1564,-24.8637 43.9373,-19.6427 47.8884,-29.4732 53.1564,-24.8637"/>
</g>
</g>
</svg>
