<?xml version="1.0" encoding="UTF-8" standalone="no"?>
<!DOCTYPE svg PUBLIC "-//W3C//DTD SVG 1.1//EN"
 "http://www.w3.org/Graphics/SVG/1.1/DTD/svg11.dtd">
<!-- Generated by graphviz version 2.40.1 (20161225.0304)
 -->
<!-- Title: src/estoque.c Pages: 1 -->
<svg width="278pt" height="140pt"
 viewBox="0.00 0.00 278.00 140.00" xmlns="http://www.w3.org/2000/svg" xmlns:xlink="http://www.w3.org/1999/xlink">
<g id="graph0" class="graph" transform="scale(1 1) rotate(0) translate(4 136)">
<title>src/estoque.c</title>
<!-- Node0 -->
<g id="node1" class="node">
<title>Node0</title>
<polygon fill="#bfbfbf" stroke="#000000" points="81,-112.5 81,-131.5 176,-131.5 176,-112.5 81,-112.5"/>
<text text-anchor="middle" x="128.5" y="-119.5" font-family="Fira Code" font-size="10.00" fill="#000000">src/estoque.c</text>
</g>
<!-- Node1 -->
<g id="node2" class="node">
<title>Node1</title>
<g id="a_node2"><a xlink:href="../../d3/d86/estoque_8h.html" target="_top" xlink:title="estoque.h">
<polygon fill="none" stroke="#000000" points="0,-56.5 0,-75.5 71,-75.5 71,-56.5 0,-56.5"/>
<text text-anchor="middle" x="35.5" y="-63.5" font-family="Fira Code" font-size="10.00" fill="#000000">estoque.h</text>
</a>
</g>
</g>
<!-- Node0&#45;&gt;Node1 -->
<g id="edge1" class="edge">
<title>Node0&#45;&gt;Node1</title>
<path fill="none" stroke="#191970" d="M112.3006,-112.2455C97.8982,-103.5731 76.6268,-90.7645 60.1201,-80.825"/>
<polygon fill="#191970" stroke="#191970" points="61.886,-77.8028 51.5137,-75.6427 58.275,-83.7996 61.886,-77.8028"/>
</g>
<!-- Node2 -->
<g id="node3" class="node">
<title>Node2</title>
<polygon fill="none" stroke="#bfbfbf" points="35,-.5 35,-19.5 100,-19.5 100,-.5 35,-.5"/>
<text text-anchor="middle" x="67.5" y="-7.5" font-family="Fira Code" font-size="10.00" fill="#000000">stdint.h</text>
</g>
<!-- Node0&#45;&gt;Node2 -->
<g id="edge5" class="edge">
<title>Node0&#45;&gt;Node2</title>
<path fill="none" stroke="#191970" d="M123.2992,-112.4509C113.1701,-93.8533 90.6429,-52.4919 77.5195,-28.3964"/>
<polygon fill="#191970" stroke="#191970" points="80.5444,-26.6328 72.6877,-19.5249 74.3971,-29.9809 80.5444,-26.6328"/>
</g>
<!-- Node3 -->
<g id="node4" class="node">
<title>Node3</title>
<polygon fill="none" stroke="#bfbfbf" points="128,-56.5 128,-75.5 187,-75.5 187,-56.5 128,-56.5"/>
<text text-anchor="middle" x="157.5" y="-63.5" font-family="Fira Code" font-size="10.00" fill="#000000">stdio.h</text>
</g>
<!-- Node0&#45;&gt;Node3 -->
<g id="edge3" class="edge">
<title>Node0&#45;&gt;Node3</title>
<path fill="none" stroke="#191970" d="M133.5514,-112.2455C137.5019,-104.617 143.1097,-93.7881 147.9058,-84.5267"/>
<polygon fill="#191970" stroke="#191970" points="151.0159,-86.1321 152.5065,-75.6427 144.7999,-82.9131 151.0159,-86.1321"/>
</g>
<!-- Node4 -->
<g id="node5" class="node">
<title>Node4</title>
<polygon fill="none" stroke="#bfbfbf" points="205,-56.5 205,-75.5 270,-75.5 270,-56.5 205,-56.5"/>
<text text-anchor="middle" x="237.5" y="-63.5" font-family="Fira Code" font-size="10.00" fill="#000000">string.h</text>
</g>
<!-- Node0&#45;&gt;Node4 -->
<g id="edge4" class="edge">
<title>Node0&#45;&gt;Node4</title>
<path fill="none" stroke="#191970" d="M147.4864,-112.2455C164.6792,-103.4125 190.2238,-90.2887 209.7132,-80.2758"/>
<polygon fill="#191970" stroke="#191970" points="211.4359,-83.3257 218.7312,-75.6427 208.237,-77.0993 211.4359,-83.3257"/>
</g>
<!-- Node1&#45;&gt;Node2 -->
<g id="edge2" class="edge">
<title>Node1&#45;&gt;Node2</title>
<path fill="none" stroke="#191970" d="M41.074,-56.2455C45.4331,-48.617 51.6211,-37.7881 56.9133,-28.5267"/>
<polygon fill="#191970" stroke="#191970" points="60.0673,-30.0616 61.9899,-19.6427 53.9896,-26.5886 60.0673,-30.0616"/>
</g>
</g>
</svg>
