<?xml version="1.0" encoding="UTF-8" standalone="no"?>
<!DOCTYPE svg PUBLIC "-//W3C//DTD SVG 1.1//EN"
 "http://www.w3.org/Graphics/SVG/1.1/DTD/svg11.dtd">
<!-- Generated by graphviz version 2.40.1 (20161225.0304)
 -->
<!-- Title: src/estoque.c Pages: 1 -->
<svg width="329pt" height="196pt"
 viewBox="0.00 0.00 329.00 196.00" xmlns="http://www.w3.org/2000/svg" xmlns:xlink="http://www.w3.org/1999/xlink">
<g id="graph0" class="graph" transform="scale(1 1) rotate(0) translate(4 192)">
<title>src/estoque.c</title>
<!-- Node0 -->
<g id="node1" class="node">
<title>Node0</title>
<polygon fill="#bfbfbf" stroke="#000000" points="103,-168.5 103,-187.5 198,-187.5 198,-168.5 103,-168.5"/>
<text text-anchor="middle" x="150.5" y="-175.5" font-family="Fira Code" font-size="10.00" fill="#000000">src/estoque.c</text>
</g>
<!-- Node1 -->
<g id="node2" class="node">
<title>Node1</title>
<g id="a_node2"><a xlink:href="../../d3/d86/estoque_8h.html" target="_top" xlink:title="estoque.h">
<polygon fill="none" stroke="#000000" points="51,-112.5 51,-131.5 122,-131.5 122,-112.5 51,-112.5"/>
<text text-anchor="middle" x="86.5" y="-119.5" font-family="Fira Code" font-size="10.00" fill="#000000">estoque.h</text>
</a>
</g>
</g>
<!-- Node0&#45;&gt;Node1 -->
<g id="edge1" class="edge">
<title>Node0&#45;&gt;Node1</title>
<path fill="none" stroke="#191970" d="M139.3521,-168.2455C129.9913,-160.0549 116.4142,-148.1749 105.3651,-138.5069"/>
<polygon fill="#191970" stroke="#191970" points="107.3508,-135.5937 97.5202,-131.6427 102.7412,-140.8618 107.3508,-135.5937"/>
</g>
<!-- Node2 -->
<g id="node3" class="node">
<title>Node2</title>
<g id="a_node3"><a xlink:href="../../db/db0/sistema_8h.html" target="_top" xlink:title="sistema.h">
<polygon fill="none" stroke="#000000" points="0,-56.5 0,-75.5 71,-75.5 71,-56.5 0,-56.5"/>
<text text-anchor="middle" x="35.5" y="-63.5" font-family="Fira Code" font-size="10.00" fill="#000000">sistema.h</text>
</a>
</g>
</g>
<!-- Node0&#45;&gt;Node2 -->
<g id="edge5" class="edge">
<title>Node0&#45;&gt;Node2</title>
<path fill="none" stroke="#191970" d="M102.9308,-169.6152C80.6942,-163.1571 55.9815,-151.8177 41.5,-132 31.8585,-118.8058 31.0685,-99.9364 32.276,-85.7505"/>
<polygon fill="#191970" stroke="#191970" points="35.7804,-85.9313 33.5417,-75.5757 28.834,-85.0671 35.7804,-85.9313"/>
</g>
<!-- Node3 -->
<g id="node4" class="node">
<title>Node3</title>
<polygon fill="none" stroke="#bfbfbf" points="67,-.5 67,-19.5 132,-19.5 132,-.5 67,-.5"/>
<text text-anchor="middle" x="99.5" y="-7.5" font-family="Fira Code" font-size="10.00" fill="#000000">stdint.h</text>
</g>
<!-- Node0&#45;&gt;Node3 -->
<g id="edge8" class="edge">
<title>Node0&#45;&gt;Node3</title>
<path fill="none" stroke="#191970" d="M147.7399,-168.1386C144.1055,-155.2183 137.4754,-131.8681 131.5,-112 122.8005,-83.0746 112.2289,-49.7022 105.6816,-29.2279"/>
<polygon fill="#191970" stroke="#191970" points="108.9614,-27.9934 102.5757,-19.5392 102.2955,-30.1304 108.9614,-27.9934"/>
</g>
<!-- Node4 -->
<g id="node5" class="node">
<title>Node4</title>
<polygon fill="none" stroke="#bfbfbf" points="179,-112.5 179,-131.5 238,-131.5 238,-112.5 179,-112.5"/>
<text text-anchor="middle" x="208.5" y="-119.5" font-family="Fira Code" font-size="10.00" fill="#000000">stdio.h</text>
</g>
<!-- Node0&#45;&gt;Node4 -->
<g id="edge6" class="edge">
<title>Node0&#45;&gt;Node4</title>
<path fill="none" stroke="#191970" d="M160.6028,-168.2455C169.0028,-160.1352 181.1494,-148.4075 191.1084,-138.7919"/>
<polygon fill="#191970" stroke="#191970" points="193.75,-141.1066 198.5129,-131.6427 188.8878,-136.0707 193.75,-141.1066"/>
</g>
<!-- Node5 -->
<g id="node6" class="node">
<title>Node5</title>
<polygon fill="none" stroke="#bfbfbf" points="256,-112.5 256,-131.5 321,-131.5 321,-112.5 256,-112.5"/>
<text text-anchor="middle" x="288.5" y="-119.5" font-family="Fira Code" font-size="10.00" fill="#000000">string.h</text>
</g>
<!-- Node0&#45;&gt;Node5 -->
<g id="edge7" class="edge">
<title>Node0&#45;&gt;Node5</title>
<path fill="none" stroke="#191970" d="M174.223,-168.3733C196.6737,-159.2629 230.5739,-145.5062 255.6255,-135.3404"/>
<polygon fill="#191970" stroke="#191970" points="257.1365,-138.5045 265.0865,-131.5011 254.5043,-132.0182 257.1365,-138.5045"/>
</g>
<!-- Node1&#45;&gt;Node2 -->
<g id="edge2" class="edge">
<title>Node1&#45;&gt;Node2</title>
<path fill="none" stroke="#191970" d="M77.6165,-112.2455C70.3034,-104.2155 59.7609,-92.6394 51.0533,-83.0781"/>
<polygon fill="#191970" stroke="#191970" points="53.6028,-80.6795 44.2817,-75.6427 48.4273,-85.3928 53.6028,-80.6795"/>
</g>
<!-- Node1&#45;&gt;Node3 -->
<g id="edge4" class="edge">
<title>Node1&#45;&gt;Node3</title>
<path fill="none" stroke="#191970" d="M87.6084,-112.4509C89.7286,-94.184 94.398,-53.9553 97.2137,-29.6976"/>
<polygon fill="#191970" stroke="#191970" points="100.718,-29.8618 98.3944,-19.5249 93.7647,-29.0546 100.718,-29.8618"/>
</g>
<!-- Node2&#45;&gt;Node3 -->
<g id="edge3" class="edge">
<title>Node2&#45;&gt;Node3</title>
<path fill="none" stroke="#191970" d="M46.6479,-56.2455C56.0087,-48.0549 69.5858,-36.1749 80.6349,-26.5069"/>
<polygon fill="#191970" stroke="#191970" points="83.2588,-28.8618 88.4798,-19.6427 78.6492,-23.5937 83.2588,-28.8618"/>
</g>
</g>
</svg>
