<?xml version="1.0" encoding="UTF-8" standalone="no"?>
<!DOCTYPE svg PUBLIC "-//W3C//DTD SVG 1.1//EN"
 "http://www.w3.org/Graphics/SVG/1.1/DTD/svg11.dtd">
<!-- Generated by graphviz version 2.40.1 (20161225.0304)
 -->
<!-- Title: inc/atuadores.h Pages: 1 -->
<svg width="150pt" height="84pt"
 viewBox="0.00 0.00 150.00 84.00" xmlns="http://www.w3.org/2000/svg" xmlns:xlink="http://www.w3.org/1999/xlink">
<g id="graph0" class="graph" transform="scale(1 1) rotate(0) translate(4 80)">
<title>inc/atuadores.h</title>
<!-- Node0 -->
<g id="node1" class="node">
<title>Node0</title>
<polygon fill="#bfbfbf" stroke="#000000" points="19,-56.5 19,-75.5 126,-75.5 126,-56.5 19,-56.5"/>
<text text-anchor="middle" x="72.5" y="-63.5" font-family="Fira Code" font-size="10.00" fill="#000000">inc/atuadores.h</text>
</g>
<!-- Node1 -->
<g id="node2" class="node">
<title>Node1</title>
<polygon fill="none" stroke="#bfbfbf" points="0,-.5 0,-19.5 65,-19.5 65,-.5 0,-.5"/>
<text text-anchor="middle" x="32.5" y="-7.5" font-family="Fira Code" font-size="10.00" fill="#000000">stdint.h</text>
</g>
<!-- Node0&#45;&gt;Node1 -->
<g id="edge1" class="edge">
<title>Node0&#45;&gt;Node1</title>
<path fill="none" stroke="#191970" d="M65.5325,-56.2455C59.9689,-48.4564 52.022,-37.3308 45.3171,-27.9439"/>
<polygon fill="#191970" stroke="#191970" points="48.0481,-25.7457 39.3876,-19.6427 42.352,-29.8144 48.0481,-25.7457"/>
</g>
<!-- Node2 -->
<g id="node3" class="node">
<title>Node2</title>
<polygon fill="none" stroke="#bfbfbf" points="83,-.5 83,-19.5 142,-19.5 142,-.5 83,-.5"/>
<text text-anchor="middle" x="112.5" y="-7.5" font-family="Fira Code" font-size="10.00" fill="#000000">stdio.h</text>
</g>
<!-- Node0&#45;&gt;Node2 -->
<g id="edge2" class="edge">
<title>Node0&#45;&gt;Node2</title>
<path fill="none" stroke="#191970" d="M79.4675,-56.2455C85.0311,-48.4564 92.978,-37.3308 99.6829,-27.9439"/>
<polygon fill="#191970" stroke="#191970" points="102.648,-29.8144 105.6124,-19.6427 96.9519,-25.7457 102.648,-29.8144"/>
</g>
</g>
</svg>
