<?xml version="1.0" encoding="UTF-8" standalone="no"?>
<!DOCTYPE svg PUBLIC "-//W3C//DTD SVG 1.1//EN"
 "http://www.w3.org/Graphics/SVG/1.1/DTD/svg11.dtd">
<!-- Generated by graphviz version 2.40.1 (20161225.0304)
 -->
<!-- Title: inc/atuadores.h Pages: 1 -->
<svg width="210pt" height="84pt"
 viewBox="0.00 0.00 210.00 84.00" xmlns="http://www.w3.org/2000/svg" xmlns:xlink="http://www.w3.org/1999/xlink">
<g id="graph0" class="graph" transform="scale(1 1) rotate(0) translate(4 80)">
<title>inc/atuadores.h</title>
<!-- Node3 -->
<g id="node1" class="node">
<title>Node3</title>
<polygon fill="#bfbfbf" stroke="#000000" points="55,-56.5 55,-75.5 162,-75.5 162,-56.5 55,-56.5"/>
<text text-anchor="middle" x="108.5" y="-63.5" font-family="Fira Code" font-size="10.00" fill="#000000">inc/atuadores.h</text>
</g>
<!-- Node4 -->
<g id="node2" class="node">
<title>Node4</title>
<g id="a_node2"><a xlink:href="../../dd/d4e/atuadores_8c.html" target="_top" xlink:title="Métodos para controle dos atuadores da vending machine. ">
<polygon fill="none" stroke="#000000" points="0,-.5 0,-19.5 107,-19.5 107,-.5 0,-.5"/>
<text text-anchor="middle" x="53.5" y="-7.5" font-family="Fira Code" font-size="10.00" fill="#000000">src/atuadores.c</text>
</a>
</g>
</g>
<!-- Node3&#45;&gt;Node4 -->
<g id="edge1" class="edge">
<title>Node3&#45;&gt;Node4</title>
<path fill="none" stroke="#191970" d="M91.8774,-49.0751C82.4145,-39.4402 70.9031,-27.7196 62.9705,-19.6427"/>
<polygon fill="#191970" stroke="#191970" points="89.4155,-51.5635 98.9197,-56.2455 94.4097,-46.6585 89.4155,-51.5635"/>
</g>
<!-- Node5 -->
<g id="node3" class="node">
<title>Node5</title>
<g id="a_node3"><a xlink:href="../../d0/d29/main_8c.html" target="_top" xlink:title="src/main.c">
<polygon fill="none" stroke="#000000" points="125,-.5 125,-19.5 202,-19.5 202,-.5 125,-.5"/>
<text text-anchor="middle" x="163.5" y="-7.5" font-family="Fira Code" font-size="10.00" fill="#000000">src/main.c</text>
</a>
</g>
</g>
<!-- Node3&#45;&gt;Node5 -->
<g id="edge2" class="edge">
<title>Node3&#45;&gt;Node5</title>
<path fill="none" stroke="#191970" d="M125.1226,-49.0751C134.5855,-39.4402 146.0969,-27.7196 154.0295,-19.6427"/>
<polygon fill="#191970" stroke="#191970" points="122.5903,-46.6585 118.0803,-56.2455 127.5845,-51.5635 122.5903,-46.6585"/>
</g>
</g>
</svg>
