<?xml version="1.0" encoding="UTF-8" standalone="no"?>
<!DOCTYPE svg PUBLIC "-//W3C//DTD SVG 1.1//EN"
 "http://www.w3.org/Graphics/SVG/1.1/DTD/svg11.dtd">
<!-- Generated by graphviz version 2.40.1 (20161225.0304)
 -->
<!-- Title: Display::display_exibe_msg Pages: 1 -->
<svg width="449pt" height="66pt"
 viewBox="0.00 0.00 449.00 66.00" xmlns="http://www.w3.org/2000/svg" xmlns:xlink="http://www.w3.org/1999/xlink">
<g id="graph0" class="graph" transform="scale(1 1) rotate(0) translate(4 62)">
<title>Display::display_exibe_msg</title>
<!-- Node1 -->
<g id="node1" class="node">
<title>Node1</title>
<polygon fill="#bfbfbf" stroke="#000000" points="0,-19.5 0,-38.5 173,-38.5 173,-19.5 0,-19.5"/>
<text text-anchor="middle" x="86.5" y="-26.5" font-family="Fira Code" font-size="10.00" fill="#000000">Display::display_exibe_msg</text>
</g>
<!-- Node2 -->
<g id="node2" class="node">
<title>Node2</title>
<g id="a_node2"><a xlink:href="../../d5/d39/caixa__troco_8c.html#a41e7c35f4803f6c8423fde1b37553fea" target="_top" xlink:title="caixa_troco_emite_troco">
<polygon fill="none" stroke="#000000" points="209,-38.5 209,-57.5 364,-57.5 364,-38.5 209,-38.5"/>
<text text-anchor="middle" x="286.5" y="-45.5" font-family="Fira Code" font-size="10.00" fill="#000000">caixa_troco_emite_troco</text>
</a>
</g>
</g>
<!-- Node1&#45;&gt;Node2 -->
<g id="edge1" class="edge">
<title>Node1&#45;&gt;Node2</title>
<path fill="none" stroke="#191970" d="M183.1714,-38.1838C191.8113,-39.0046 200.4843,-39.8285 208.9321,-40.6311"/>
<polygon fill="#191970" stroke="#191970" points="183.3459,-34.6847 173.0597,-37.2232 182.6838,-41.6533 183.3459,-34.6847"/>
</g>
<!-- Node3 -->
<g id="node3" class="node">
<title>Node3</title>
<g id="a_node3"><a xlink:href="../../d0/d29/main_8c.html#a5422318cb6d27f076643e8e0161dbc6b" target="_top" xlink:title="executar_acao">
<polygon fill="none" stroke="#000000" points="239,-.5 239,-19.5 334,-19.5 334,-.5 239,-.5"/>
<text text-anchor="middle" x="286.5" y="-7.5" font-family="Fira Code" font-size="10.00" fill="#000000">executar_acao</text>
</a>
</g>
</g>
<!-- Node1&#45;&gt;Node3 -->
<g id="edge2" class="edge">
<title>Node1&#45;&gt;Node3</title>
<path fill="none" stroke="#191970" d="M183.1664,-19.8167C202.5521,-17.9751 222.1049,-16.1175 238.9066,-14.5214"/>
<polygon fill="#191970" stroke="#191970" points="182.6838,-16.3467 173.0597,-20.7768 183.3459,-23.3153 182.6838,-16.3467"/>
</g>
<!-- Node4 -->
<g id="node4" class="node">
<title>Node4</title>
<g id="a_node4"><a xlink:href="../../d0/d29/main_8c.html#ae66f6b31b5ad750f1fe042a706a4e3d4" target="_top" xlink:title="main">
<polygon fill="none" stroke="#000000" points="400,-.5 400,-19.5 441,-19.5 441,-.5 400,-.5"/>
<text text-anchor="middle" x="420.5" y="-7.5" font-family="Fira Code" font-size="10.00" fill="#000000">main</text>
</a>
</g>
</g>
<!-- Node3&#45;&gt;Node4 -->
<g id="edge3" class="edge">
<title>Node3&#45;&gt;Node4</title>
<path fill="none" stroke="#191970" d="M344.3449,-10C364.1581,-10 385.0598,-10 399.943,-10"/>
<polygon fill="#191970" stroke="#191970" points="344.1207,-6.5001 334.1207,-10 344.1207,-13.5001 344.1207,-6.5001"/>
</g>
</g>
</svg>
