<?xml version="1.0" encoding="UTF-8" standalone="no"?>
<!DOCTYPE svg PUBLIC "-//W3C//DTD SVG 1.1//EN"
 "http://www.w3.org/Graphics/SVG/1.1/DTD/svg11.dtd">
<!-- Generated by graphviz version 2.40.1 (20161225.0304)
 -->
<!-- Title: Display::display_init Pages: 1 -->
<svg width="407pt" height="28pt"
 viewBox="0.00 0.00 407.00 28.00" xmlns="http://www.w3.org/2000/svg" xmlns:xlink="http://www.w3.org/1999/xlink">
<g id="graph0" class="graph" transform="scale(1 1) rotate(0) translate(4 24)">
<title>Display::display_init</title>
<!-- Node6 -->
<g id="node1" class="node">
<title>Node6</title>
<polygon fill="#bfbfbf" stroke="#000000" points="0,-.5 0,-19.5 143,-19.5 143,-.5 0,-.5"/>
<text text-anchor="middle" x="71.5" y="-7.5" font-family="Fira Code" font-size="10.00" fill="#000000">Display::display_init</text>
</g>
<!-- Node7 -->
<g id="node2" class="node">
<title>Node7</title>
<g id="a_node2"><a xlink:href="../../d1/df5/classMachina.html#a17c3a5d0ed70dbc9fbecc9a9c737c075" target="_top" xlink:title="Inicializa componentes da vending machine. ">
<polygon fill="none" stroke="#000000" points="179,-.5 179,-19.5 322,-19.5 322,-.5 179,-.5"/>
<text text-anchor="middle" x="250.5" y="-7.5" font-family="Fira Code" font-size="10.00" fill="#000000">Machina::machina_init</text>
</a>
</g>
</g>
<!-- Node6&#45;&gt;Node7 -->
<g id="edge1" class="edge">
<title>Node6&#45;&gt;Node7</title>
<path fill="none" stroke="#191970" d="M153.0428,-10C161.6381,-10 170.3321,-10 178.8042,-10"/>
<polygon fill="#191970" stroke="#191970" points="153.0173,-6.5001 143.0172,-10 153.0172,-13.5001 153.0173,-6.5001"/>
</g>
<!-- Node8 -->
<g id="node3" class="node">
<title>Node8</title>
<g id="a_node3"><a xlink:href="../../d0/d29/main_8c.html#ae66f6b31b5ad750f1fe042a706a4e3d4" target="_top" xlink:title="main">
<polygon fill="none" stroke="#000000" points="358,-.5 358,-19.5 399,-19.5 399,-.5 358,-.5"/>
<text text-anchor="middle" x="378.5" y="-7.5" font-family="Fira Code" font-size="10.00" fill="#000000">main</text>
</a>
</g>
</g>
<!-- Node7&#45;&gt;Node8 -->
<g id="edge2" class="edge">
<title>Node7&#45;&gt;Node8</title>
<path fill="none" stroke="#191970" d="M332.5773,-10C341.8347,-10 350.5424,-10 357.8346,-10"/>
<polygon fill="#191970" stroke="#191970" points="332.3574,-6.5001 322.3573,-10 332.3573,-13.5001 332.3574,-6.5001"/>
</g>
</g>
</svg>
