<?xml version="1.0" encoding="UTF-8" standalone="no"?>
<!DOCTYPE svg PUBLIC "-//W3C//DTD SVG 1.1//EN"
 "http://www.w3.org/Graphics/SVG/1.1/DTD/svg11.dtd">
<!-- Generated by graphviz version 2.40.1 (20161225.0304)
 -->
<!-- Title: Atuadores::atuadores_libera_produto Pages: 1 -->
<svg width="353pt" height="39pt"
 viewBox="0.00 0.00 353.00 39.00" xmlns="http://www.w3.org/2000/svg" xmlns:xlink="http://www.w3.org/1999/xlink">
<g id="graph0" class="graph" transform="scale(1 1) rotate(0) translate(4 35)">
<title>Atuadores::atuadores_libera_produto</title>
<!-- Node5 -->
<g id="node1" class="node">
<title>Node5</title>
<polygon fill="#bfbfbf" stroke="#000000" points="0,-.5 0,-30.5 137,-30.5 137,-.5 0,-.5"/>
<text text-anchor="start" x="8" y="-18.5" font-family="Fira Code" font-size="10.00" fill="#000000">Atuadores::atuadores</text>
<text text-anchor="middle" x="68.5" y="-7.5" font-family="Fira Code" font-size="10.00" fill="#000000">_libera_produto</text>
</g>
<!-- Node6 -->
<g id="node2" class="node">
<title>Node6</title>
<g id="a_node2"><a xlink:href="../../d0/d29/main_8c.html#a5422318cb6d27f076643e8e0161dbc6b" target="_top" xlink:title="executar_acao">
<polygon fill="none" stroke="#000000" points="173,-6 173,-25 268,-25 268,-6 173,-6"/>
<text text-anchor="middle" x="220.5" y="-13" font-family="Fira Code" font-size="10.00" fill="#000000">executar_acao</text>
</a>
</g>
</g>
<!-- Node5&#45;&gt;Node6 -->
<g id="edge1" class="edge">
<title>Node5&#45;&gt;Node6</title>
<path fill="none" stroke="#191970" d="M147.4878,-15.5C156.097,-15.5 164.6551,-15.5 172.7191,-15.5"/>
<polygon fill="#191970" stroke="#191970" points="147.3843,-12.0001 137.3843,-15.5 147.3842,-19.0001 147.3843,-12.0001"/>
</g>
<!-- Node7 -->
<g id="node3" class="node">
<title>Node7</title>
<g id="a_node3"><a xlink:href="../../d0/d29/main_8c.html#ae66f6b31b5ad750f1fe042a706a4e3d4" target="_top" xlink:title="main">
<polygon fill="none" stroke="#000000" points="304,-6 304,-25 345,-25 345,-6 304,-6"/>
<text text-anchor="middle" x="324.5" y="-13" font-family="Fira Code" font-size="10.00" fill="#000000">main</text>
</a>
</g>
</g>
<!-- Node6&#45;&gt;Node7 -->
<g id="edge2" class="edge">
<title>Node6&#45;&gt;Node7</title>
<path fill="none" stroke="#191970" d="M278.5031,-15.5C287.5547,-15.5 296.3604,-15.5 303.8033,-15.5"/>
<polygon fill="#191970" stroke="#191970" points="278.2387,-12.0001 268.2386,-15.5 278.2386,-19.0001 278.2387,-12.0001"/>
</g>
</g>
</svg>
