<?xml version="1.0" encoding="UTF-8" standalone="no"?>
<!DOCTYPE svg PUBLIC "-//W3C//DTD SVG 1.1//EN"
 "http://www.w3.org/Graphics/SVG/1.1/DTD/svg11.dtd">
<!-- Generated by graphviz version 2.40.1 (20161225.0304)
 -->
<!-- Title: Atuadores::atuadores_init Pages: 1 -->
<svg width="431pt" height="28pt"
 viewBox="0.00 0.00 431.00 28.00" xmlns="http://www.w3.org/2000/svg" xmlns:xlink="http://www.w3.org/1999/xlink">
<g id="graph0" class="graph" transform="scale(1 1) rotate(0) translate(4 24)">
<title>Atuadores::atuadores_init</title>
<!-- Node1 -->
<g id="node1" class="node">
<title>Node1</title>
<polygon fill="#bfbfbf" stroke="#000000" points="0,-.5 0,-19.5 167,-19.5 167,-.5 0,-.5"/>
<text text-anchor="middle" x="83.5" y="-7.5" font-family="Fira Code" font-size="10.00" fill="#000000">Atuadores::atuadores_init</text>
</g>
<!-- Node2 -->
<g id="node2" class="node">
<title>Node2</title>
<g id="a_node2"><a xlink:href="../../d1/df5/classMachina.html#a17c3a5d0ed70dbc9fbecc9a9c737c075" target="_top" xlink:title="Inicializa componentes da vending machine. ">
<polygon fill="none" stroke="#000000" points="203,-.5 203,-19.5 346,-19.5 346,-.5 203,-.5"/>
<text text-anchor="middle" x="274.5" y="-7.5" font-family="Fira Code" font-size="10.00" fill="#000000">Machina::machina_init</text>
</a>
</g>
</g>
<!-- Node1&#45;&gt;Node2 -->
<g id="edge1" class="edge">
<title>Node1&#45;&gt;Node2</title>
<path fill="none" stroke="#191970" d="M177.2962,-10C185.8536,-10 194.4292,-10 202.7481,-10"/>
<polygon fill="#191970" stroke="#191970" points="177.2754,-6.5001 167.2754,-10 177.2753,-13.5001 177.2754,-6.5001"/>
</g>
<!-- Node3 -->
<g id="node3" class="node">
<title>Node3</title>
<g id="a_node3"><a xlink:href="../../d0/d29/main_8c.html#ae66f6b31b5ad750f1fe042a706a4e3d4" target="_top" xlink:title="main">
<polygon fill="none" stroke="#000000" points="382,-.5 382,-19.5 423,-19.5 423,-.5 382,-.5"/>
<text text-anchor="middle" x="402.5" y="-7.5" font-family="Fira Code" font-size="10.00" fill="#000000">main</text>
</a>
</g>
</g>
<!-- Node2&#45;&gt;Node3 -->
<g id="edge2" class="edge">
<title>Node2&#45;&gt;Node3</title>
<path fill="none" stroke="#191970" d="M356.5773,-10C365.8347,-10 374.5424,-10 381.8346,-10"/>
<polygon fill="#191970" stroke="#191970" points="356.3574,-6.5001 346.3573,-10 356.3573,-13.5001 356.3574,-6.5001"/>
</g>
</g>
</svg>
