<?xml version="1.0" encoding="UTF-8" standalone="no"?>
<!DOCTYPE svg PUBLIC "-//W3C//DTD SVG 1.1//EN"
 "http://www.w3.org/Graphics/SVG/1.1/DTD/svg11.dtd">
<!-- Generated by graphviz version 2.40.1 (20161225.0304)
 -->
<!-- Title: src/main.c Pages: 1 -->
<svg width="626pt" height="196pt"
 viewBox="0.00 0.00 626.00 196.00" xmlns="http://www.w3.org/2000/svg" xmlns:xlink="http://www.w3.org/1999/xlink">
<g id="graph0" class="graph" transform="scale(1 1) rotate(0) translate(4 192)">
<title>src/main.c</title>
<!-- Node0 -->
<g id="node1" class="node">
<title>Node0</title>
<polygon fill="#bfbfbf" stroke="#000000" points="227,-168.5 227,-187.5 304,-187.5 304,-168.5 227,-168.5"/>
<text text-anchor="middle" x="265.5" y="-175.5" font-family="Fira Code" font-size="10.00" fill="#000000">src/main.c</text>
</g>
<!-- Node1 -->
<g id="node2" class="node">
<title>Node1</title>
<polygon fill="none" stroke="#bfbfbf" points="0,-56.5 0,-75.5 59,-75.5 59,-56.5 0,-56.5"/>
<text text-anchor="middle" x="29.5" y="-63.5" font-family="Fira Code" font-size="10.00" fill="#000000">stdio.h</text>
</g>
<!-- Node0&#45;&gt;Node1 -->
<g id="edge1" class="edge">
<title>Node0&#45;&gt;Node1</title>
<path fill="none" stroke="#191970" d="M226.5346,-175.3498C168.8127,-170.5824 64.6761,-158.4787 39.5,-132 27.9185,-119.8192 26.2499,-100.257 26.9795,-85.5863"/>
<polygon fill="#191970" stroke="#191970" points="30.4746,-85.7967 27.8805,-75.5244 23.5025,-85.1724 30.4746,-85.7967"/>
</g>
<!-- Node2 -->
<g id="node3" class="node">
<title>Node2</title>
<g id="a_node3"><a xlink:href="../../db/db0/sistema_8h.html" target="_top" xlink:title="sistema.h">
<polygon fill="none" stroke="#000000" points="318,-56.5 318,-75.5 389,-75.5 389,-56.5 318,-56.5"/>
<text text-anchor="middle" x="353.5" y="-63.5" font-family="Fira Code" font-size="10.00" fill="#000000">sistema.h</text>
</a>
</g>
</g>
<!-- Node0&#45;&gt;Node2 -->
<g id="edge2" class="edge">
<title>Node0&#45;&gt;Node2</title>
<path fill="none" stroke="#191970" d="M260.1999,-168.2018C253.5938,-154.5188 244.4382,-129.412 255.5,-112 267.1395,-93.6786 288.2216,-82.5261 307.858,-75.8029"/>
<polygon fill="#191970" stroke="#191970" points="309.1256,-79.0741 317.6344,-72.7614 307.0461,-72.3901 309.1256,-79.0741"/>
</g>
<!-- Node4 -->
<g id="node5" class="node">
<title>Node4</title>
<g id="a_node5"><a xlink:href="../../da/d79/atuadores_8h.html" target="_top" xlink:title="atuadores.h">
<polygon fill="none" stroke="#000000" points="49,-112.5 49,-131.5 132,-131.5 132,-112.5 49,-112.5"/>
<text text-anchor="middle" x="90.5" y="-119.5" font-family="Fira Code" font-size="10.00" fill="#000000">atuadores.h</text>
</a>
</g>
</g>
<!-- Node0&#45;&gt;Node4 -->
<g id="edge4" class="edge">
<title>Node0&#45;&gt;Node4</title>
<path fill="none" stroke="#191970" d="M235.4164,-168.3733C206.3166,-159.0613 162.0477,-144.8953 130.097,-134.671"/>
<polygon fill="#191970" stroke="#191970" points="130.782,-131.2155 120.191,-131.5011 128.6485,-137.8824 130.782,-131.2155"/>
</g>
<!-- Node5 -->
<g id="node6" class="node">
<title>Node5</title>
<g id="a_node6"><a xlink:href="../../d4/d68/display_8h.html" target="_top" xlink:title="display.h">
<polygon fill="none" stroke="#000000" points="126,-56.5 126,-75.5 197,-75.5 197,-56.5 126,-56.5"/>
<text text-anchor="middle" x="161.5" y="-63.5" font-family="Fira Code" font-size="10.00" fill="#000000">display.h</text>
</a>
</g>
</g>
<!-- Node0&#45;&gt;Node5 -->
<g id="edge7" class="edge">
<title>Node0&#45;&gt;Node5</title>
<path fill="none" stroke="#191970" d="M254.6261,-168.4899C244.4496,-159.4297 228.9852,-145.2456 216.5,-132 201.7295,-116.3299 186.126,-97.3429 175.3269,-83.7641"/>
<polygon fill="#191970" stroke="#191970" points="177.9196,-81.3994 168.9812,-75.7112 172.4215,-85.7319 177.9196,-81.3994"/>
</g>
<!-- Node6 -->
<g id="node7" class="node">
<title>Node6</title>
<g id="a_node7"><a xlink:href="../../dc/d17/teclado_8h.html" target="_top" xlink:title="teclado.h">
<polygon fill="none" stroke="#000000" points="216,-56.5 216,-75.5 287,-75.5 287,-56.5 216,-56.5"/>
<text text-anchor="middle" x="251.5" y="-63.5" font-family="Fira Code" font-size="10.00" fill="#000000">teclado.h</text>
</a>
</g>
</g>
<!-- Node0&#45;&gt;Node6 -->
<g id="edge9" class="edge">
<title>Node0&#45;&gt;Node6</title>
<path fill="none" stroke="#191970" d="M252.169,-168.3825C241.8827,-160.0729 228.4389,-147.0499 222.5,-132 215.9427,-115.3828 225.7127,-96.7783 235.6417,-83.5684"/>
<polygon fill="#191970" stroke="#191970" points="238.4157,-85.7048 242.0195,-75.7416 232.9892,-81.2829 238.4157,-85.7048"/>
</g>
<!-- Node7 -->
<g id="node8" class="node">
<title>Node7</title>
<g id="a_node8"><a xlink:href="../../d5/d60/utils_8h.html" target="_top" xlink:title="Mathematic utilitary functions globally available. ">
<polygon fill="none" stroke="#000000" points="265,-112.5 265,-131.5 324,-131.5 324,-112.5 265,-112.5"/>
<text text-anchor="middle" x="294.5" y="-119.5" font-family="Fira Code" font-size="10.00" fill="#000000">utils.h</text>
</a>
</g>
</g>
<!-- Node0&#45;&gt;Node7 -->
<g id="edge11" class="edge">
<title>Node0&#45;&gt;Node7</title>
<path fill="none" stroke="#191970" d="M270.5514,-168.2455C274.5019,-160.617 280.1097,-149.7881 284.9058,-140.5267"/>
<polygon fill="#191970" stroke="#191970" points="288.0159,-142.1321 289.5065,-131.6427 281.7999,-138.9131 288.0159,-142.1321"/>
</g>
<!-- Node8 -->
<g id="node9" class="node">
<title>Node8</title>
<g id="a_node9"><a xlink:href="../../dd/d81/fsm_8h.html" target="_top" xlink:title="Implementação de uma máquina de estados finitos (finite state machine) ">
<polygon fill="none" stroke="#000000" points="449,-112.5 449,-131.5 496,-131.5 496,-112.5 449,-112.5"/>
<text text-anchor="middle" x="472.5" y="-119.5" font-family="Fira Code" font-size="10.00" fill="#000000">fsm.h</text>
</a>
</g>
</g>
<!-- Node0&#45;&gt;Node8 -->
<g id="edge12" class="edge">
<title>Node0&#45;&gt;Node8</title>
<path fill="none" stroke="#191970" d="M303.2819,-168.4274C336.5298,-159.9109 386.4739,-146.8945 438.9186,-132.0952"/>
<polygon fill="#191970" stroke="#191970" points="440.0706,-135.4066 448.7368,-129.3118 438.1613,-128.672 440.0706,-135.4066"/>
</g>
<!-- Node9 -->
<g id="node10" class="node">
<title>Node9</title>
<g id="a_node10"><a xlink:href="../../d3/d86/estoque_8h.html" target="_top" xlink:title="estoque.h">
<polygon fill="none" stroke="#000000" points="456,-56.5 456,-75.5 527,-75.5 527,-56.5 456,-56.5"/>
<text text-anchor="middle" x="491.5" y="-63.5" font-family="Fira Code" font-size="10.00" fill="#000000">estoque.h</text>
</a>
</g>
</g>
<!-- Node0&#45;&gt;Node9 -->
<g id="edge15" class="edge">
<title>Node0&#45;&gt;Node9</title>
<path fill="none" stroke="#191970" d="M304.376,-176.3563C365.6784,-172.858 480.4311,-162.3301 505.5,-132 516.4137,-118.7958 510.2885,-99.1379 503.0307,-84.7097"/>
<polygon fill="#191970" stroke="#191970" points="505.9394,-82.7387 498.0206,-75.7 499.8217,-86.1406 505.9394,-82.7387"/>
</g>
<!-- Node10 -->
<g id="node11" class="node">
<title>Node10</title>
<g id="a_node11"><a xlink:href="../../d8/d1d/boca__caixa_8h.html" target="_top" xlink:title="boca_caixa.h">
<polygon fill="none" stroke="#000000" points="342,-112.5 342,-131.5 431,-131.5 431,-112.5 342,-112.5"/>
<text text-anchor="middle" x="386.5" y="-119.5" font-family="Fira Code" font-size="10.00" fill="#000000">boca_caixa.h</text>
</a>
</g>
</g>
<!-- Node0&#45;&gt;Node10 -->
<g id="edge17" class="edge">
<title>Node0&#45;&gt;Node10</title>
<path fill="none" stroke="#191970" d="M286.3006,-168.3733C305.7243,-159.3838 334.9224,-145.8706 356.7964,-135.7471"/>
<polygon fill="#191970" stroke="#191970" points="358.3656,-138.8776 365.9708,-131.5011 355.4255,-132.5249 358.3656,-138.8776"/>
</g>
<!-- Node11 -->
<g id="node12" class="node">
<title>Node11</title>
<g id="a_node12"><a xlink:href="../../d5/dc1/trava_8h.html" target="_top" xlink:title="trava.h">
<polygon fill="none" stroke="#000000" points="553,-112.5 553,-131.5 612,-131.5 612,-112.5 553,-112.5"/>
<text text-anchor="middle" x="582.5" y="-119.5" font-family="Fira Code" font-size="10.00" fill="#000000">trava.h</text>
</a>
</g>
</g>
<!-- Node0&#45;&gt;Node11 -->
<g id="edge19" class="edge">
<title>Node0&#45;&gt;Node11</title>
<path fill="none" stroke="#191970" d="M304.0542,-172.2073C357.0421,-164.0858 455.2783,-148.4547 538.5,-132 539.9409,-131.7151 541.4068,-131.4183 542.8863,-131.1128"/>
<polygon fill="#191970" stroke="#191970" points="543.6808,-134.5221 552.7266,-129.0063 542.2154,-127.6772 543.6808,-134.5221"/>
</g>
<!-- Node3 -->
<g id="node4" class="node">
<title>Node3</title>
<polygon fill="none" stroke="#bfbfbf" points="263,-.5 263,-19.5 328,-19.5 328,-.5 263,-.5"/>
<text text-anchor="middle" x="295.5" y="-7.5" font-family="Fira Code" font-size="10.00" fill="#000000">stdint.h</text>
</g>
<!-- Node2&#45;&gt;Node3 -->
<g id="edge3" class="edge">
<title>Node2&#45;&gt;Node3</title>
<path fill="none" stroke="#191970" d="M343.3972,-56.2455C334.9972,-48.1352 322.8506,-36.4075 312.8916,-26.7919"/>
<polygon fill="#191970" stroke="#191970" points="315.1122,-24.0707 305.4871,-19.6427 310.25,-29.1066 315.1122,-24.0707"/>
</g>
<!-- Node4&#45;&gt;Node1 -->
<g id="edge6" class="edge">
<title>Node4&#45;&gt;Node1</title>
<path fill="none" stroke="#191970" d="M79.8746,-112.2455C70.9527,-104.0549 58.012,-92.1749 47.4808,-82.5069"/>
<polygon fill="#191970" stroke="#191970" points="49.7371,-79.8271 40.0036,-75.6427 45.0032,-84.9837 49.7371,-79.8271"/>
</g>
<!-- Node4&#45;&gt;Node3 -->
<g id="edge5" class="edge">
<title>Node4&#45;&gt;Node3</title>
<path fill="none" stroke="#191970" d="M91.5505,-112.3636C93.647,-97.9372 99.7014,-70.8389 116.5,-56 136.5652,-38.2756 206.534,-24.1122 252.8186,-16.3989"/>
<polygon fill="#191970" stroke="#191970" points="253.5742,-19.8221 262.8819,-14.7608 252.4495,-12.913 253.5742,-19.8221"/>
</g>
<!-- Node5&#45;&gt;Node3 -->
<g id="edge8" class="edge">
<title>Node5&#45;&gt;Node3</title>
<path fill="none" stroke="#191970" d="M184.5354,-56.3733C206.2388,-47.3032 238.9618,-33.6279 263.255,-23.4755"/>
<polygon fill="#191970" stroke="#191970" points="264.8881,-26.5865 272.7652,-19.5011 262.1889,-20.1278 264.8881,-26.5865"/>
</g>
<!-- Node6&#45;&gt;Node3 -->
<g id="edge10" class="edge">
<title>Node6&#45;&gt;Node3</title>
<path fill="none" stroke="#191970" d="M259.1642,-56.2455C265.3473,-48.3761 274.2063,-37.101 281.6289,-27.6542"/>
<polygon fill="#191970" stroke="#191970" points="284.4975,-29.6683 287.9236,-19.6427 278.9932,-25.3435 284.4975,-29.6683"/>
</g>
<!-- Node8&#45;&gt;Node2 -->
<g id="edge14" class="edge">
<title>Node8&#45;&gt;Node2</title>
<path fill="none" stroke="#191970" d="M452.0432,-112.3733C433.0262,-103.4241 404.4825,-89.9917 383.0024,-79.8835"/>
<polygon fill="#191970" stroke="#191970" points="384.2284,-76.5923 373.6899,-75.5011 381.2478,-82.926 384.2284,-76.5923"/>
</g>
<!-- Node8&#45;&gt;Node3 -->
<g id="edge13" class="edge">
<title>Node8&#45;&gt;Node3</title>
<path fill="none" stroke="#191970" d="M463.5323,-112.4761C450.1585,-98.6741 423.7395,-72.9174 397.5,-56 376.8748,-42.7023 351.7672,-31.3271 331.6235,-23.2151"/>
<polygon fill="#191970" stroke="#191970" points="332.7622,-19.9021 322.175,-19.5009 330.2012,-26.4168 332.7622,-19.9021"/>
</g>
<!-- Node9&#45;&gt;Node3 -->
<g id="edge16" class="edge">
<title>Node9&#45;&gt;Node3</title>
<path fill="none" stroke="#191970" d="M457.8064,-56.3733C424.5912,-46.8832 373.7306,-32.3516 337.8106,-22.0888"/>
<polygon fill="#191970" stroke="#191970" points="338.6794,-18.697 328.1026,-19.315 336.7563,-25.4277 338.6794,-18.697"/>
</g>
<!-- Node10&#45;&gt;Node2 -->
<g id="edge18" class="edge">
<title>Node10&#45;&gt;Node2</title>
<path fill="none" stroke="#191970" d="M380.7518,-112.2455C376.2565,-104.617 369.8752,-93.7881 364.4175,-84.5267"/>
<polygon fill="#191970" stroke="#191970" points="367.2747,-82.4811 359.1823,-75.6427 361.2439,-86.035 367.2747,-82.4811"/>
</g>
<!-- Node12 -->
<g id="node13" class="node">
<title>Node12</title>
<polygon fill="none" stroke="#bfbfbf" points="547,-56.5 547,-75.5 618,-75.5 618,-56.5 547,-56.5"/>
<text text-anchor="middle" x="582.5" y="-63.5" font-family="Fira Code" font-size="10.00" fill="#000000">stdbool.h</text>
</g>
<!-- Node11&#45;&gt;Node12 -->
<g id="edge20" class="edge">
<title>Node11&#45;&gt;Node12</title>
<path fill="none" stroke="#191970" d="M582.5,-112.2455C582.5,-104.9382 582.5,-94.6944 582.5,-85.7046"/>
<polygon fill="#191970" stroke="#191970" points="586.0001,-85.6426 582.5,-75.6427 579.0001,-85.6427 586.0001,-85.6426"/>
</g>
</g>
</svg>
