<?xml version="1.0" encoding="UTF-8" standalone="no"?>
<!DOCTYPE svg PUBLIC "-//W3C//DTD SVG 1.1//EN"
 "http://www.w3.org/Graphics/SVG/1.1/DTD/svg11.dtd">
<!-- Generated by graphviz version 2.40.1 (20161225.0304)
 -->
<!-- Title: src/main.c Pages: 1 -->
<svg width="893pt" height="196pt"
 viewBox="0.00 0.00 893.00 196.00" xmlns="http://www.w3.org/2000/svg" xmlns:xlink="http://www.w3.org/1999/xlink">
<g id="graph0" class="graph" transform="scale(1 1) rotate(0) translate(4 192)">
<title>src/main.c</title>
<!-- Node0 -->
<g id="node1" class="node">
<title>Node0</title>
<polygon fill="#bfbfbf" stroke="#000000" points="357,-168.5 357,-187.5 434,-187.5 434,-168.5 357,-168.5"/>
<text text-anchor="middle" x="395.5" y="-175.5" font-family="Fira Code" font-size="10.00" fill="#000000">src/main.c</text>
</g>
<!-- Node1 -->
<g id="node2" class="node">
<title>Node1</title>
<polygon fill="none" stroke="#bfbfbf" points="132,-56.5 132,-75.5 191,-75.5 191,-56.5 132,-56.5"/>
<text text-anchor="middle" x="161.5" y="-63.5" font-family="Fira Code" font-size="10.00" fill="#000000">stdio.h</text>
</g>
<!-- Node0&#45;&gt;Node1 -->
<g id="edge1" class="edge">
<title>Node0&#45;&gt;Node1</title>
<path fill="none" stroke="#191970" d="M356.5463,-174.4404C301.7087,-168.6551 205.6216,-155.433 180.5,-132 167.8544,-120.2043 163.4388,-100.5908 161.9869,-85.8034"/>
<polygon fill="#191970" stroke="#191970" points="165.4697,-85.4138 161.367,-75.6455 158.4827,-85.8402 165.4697,-85.4138"/>
</g>
<!-- Node2 -->
<g id="node3" class="node">
<title>Node2</title>
<polygon fill="none" stroke="#bfbfbf" points="276,-.5 276,-19.5 341,-19.5 341,-.5 276,-.5"/>
<text text-anchor="middle" x="308.5" y="-7.5" font-family="Fira Code" font-size="10.00" fill="#000000">stdint.h</text>
</g>
<!-- Node0&#45;&gt;Node2 -->
<g id="edge2" class="edge">
<title>Node0&#45;&gt;Node2</title>
<path fill="none" stroke="#191970" d="M434.207,-177.1212C500.4489,-174.7106 631.1683,-165.6951 659.5,-132 665.2206,-125.1965 664.7972,-119.1381 659.5,-112 622.471,-62.1029 436.6968,-28.8572 351.4168,-15.9859"/>
<polygon fill="#191970" stroke="#191970" points="351.6942,-12.4888 341.2886,-14.482 350.666,-19.4129 351.6942,-12.4888"/>
</g>
<!-- Node3 -->
<g id="node4" class="node">
<title>Node3</title>
<g id="a_node4"><a xlink:href="../../db/db0/sistema_8h.html" target="_top" xlink:title="sistema.h">
<polygon fill="none" stroke="#000000" points="337,-56.5 337,-75.5 408,-75.5 408,-56.5 337,-56.5"/>
<text text-anchor="middle" x="372.5" y="-63.5" font-family="Fira Code" font-size="10.00" fill="#000000">sistema.h</text>
</a>
</g>
</g>
<!-- Node0&#45;&gt;Node3 -->
<g id="edge3" class="edge">
<title>Node0&#45;&gt;Node3</title>
<path fill="none" stroke="#191970" d="M393.3772,-168.4968C391.3147,-159.2031 388.1194,-144.6443 385.5,-132 382.2796,-116.4546 378.8137,-98.8088 376.2711,-85.6765"/>
<polygon fill="#191970" stroke="#191970" points="379.707,-85.0093 374.3782,-75.8521 372.8335,-86.3337 379.707,-85.0093"/>
</g>
<!-- Node4 -->
<g id="node5" class="node">
<title>Node4</title>
<g id="a_node5"><a xlink:href="../../da/d79/atuadores_8h.html" target="_top" xlink:title="atuadores.h">
<polygon fill="none" stroke="#000000" points="190,-112.5 190,-131.5 273,-131.5 273,-112.5 190,-112.5"/>
<text text-anchor="middle" x="231.5" y="-119.5" font-family="Fira Code" font-size="10.00" fill="#000000">atuadores.h</text>
</a>
</g>
</g>
<!-- Node0&#45;&gt;Node4 -->
<g id="edge5" class="edge">
<title>Node0&#45;&gt;Node4</title>
<path fill="none" stroke="#191970" d="M367.3074,-168.3733C340.1547,-159.1016 298.9093,-145.0178 268.9975,-134.804"/>
<polygon fill="#191970" stroke="#191970" points="269.9192,-131.4204 259.3247,-131.5011 267.6572,-138.0449 269.9192,-131.4204"/>
</g>
<!-- Node5 -->
<g id="node6" class="node">
<title>Node5</title>
<g id="a_node6"><a xlink:href="../../d4/d68/display_8h.html" target="_top" xlink:title="display.h">
<polygon fill="none" stroke="#000000" points="62,-112.5 62,-131.5 133,-131.5 133,-112.5 62,-112.5"/>
<text text-anchor="middle" x="97.5" y="-119.5" font-family="Fira Code" font-size="10.00" fill="#000000">display.h</text>
</a>
</g>
</g>
<!-- Node0&#45;&gt;Node5 -->
<g id="edge8" class="edge">
<title>Node0&#45;&gt;Node5</title>
<path fill="none" stroke="#191970" d="M356.8073,-170.9963C307.9859,-162.1193 221.4576,-146.254 147.5,-132 146.0603,-131.7225 144.5976,-131.4391 143.1209,-131.1516"/>
<polygon fill="#191970" stroke="#191970" points="143.7545,-127.7093 133.2674,-129.2166 142.4055,-134.5781 143.7545,-127.7093"/>
</g>
<!-- Node6 -->
<g id="node7" class="node">
<title>Node6</title>
<g id="a_node7"><a xlink:href="../../dc/d17/teclado_8h.html" target="_top" xlink:title="teclado.h">
<polygon fill="none" stroke="#000000" points="0,-56.5 0,-75.5 71,-75.5 71,-56.5 0,-56.5"/>
<text text-anchor="middle" x="35.5" y="-63.5" font-family="Fira Code" font-size="10.00" fill="#000000">teclado.h</text>
</a>
</g>
</g>
<!-- Node0&#45;&gt;Node6 -->
<g id="edge11" class="edge">
<title>Node0&#45;&gt;Node6</title>
<path fill="none" stroke="#191970" d="M356.9847,-175.2466C272.1713,-168.8437 74.9936,-151.9687 52.5,-132 39.6668,-120.6073 35.9181,-100.9402 35.0795,-86.0306"/>
<polygon fill="#191970" stroke="#191970" points="38.5747,-85.7107 34.9033,-75.7723 31.5757,-85.831 38.5747,-85.7107"/>
</g>
<!-- Node7 -->
<g id="node8" class="node">
<title>Node7</title>
<g id="a_node8"><a xlink:href="../../d5/d60/utils_8h.html" target="_top" xlink:title="Mathematic utilitary functions globally available. ">
<polygon fill="none" stroke="#000000" points="395,-112.5 395,-131.5 454,-131.5 454,-112.5 395,-112.5"/>
<text text-anchor="middle" x="424.5" y="-119.5" font-family="Fira Code" font-size="10.00" fill="#000000">utils.h</text>
</a>
</g>
</g>
<!-- Node0&#45;&gt;Node7 -->
<g id="edge13" class="edge">
<title>Node0&#45;&gt;Node7</title>
<path fill="none" stroke="#191970" d="M400.5514,-168.2455C404.5019,-160.617 410.1097,-149.7881 414.9058,-140.5267"/>
<polygon fill="#191970" stroke="#191970" points="418.0159,-142.1321 419.5065,-131.6427 411.7999,-138.9131 418.0159,-142.1321"/>
</g>
<!-- Node8 -->
<g id="node9" class="node">
<title>Node8</title>
<g id="a_node9"><a xlink:href="../../dd/d81/fsm_8h.html" target="_top" xlink:title="fsm.h">
<polygon fill="none" stroke="#000000" points="291,-112.5 291,-131.5 338,-131.5 338,-112.5 291,-112.5"/>
<text text-anchor="middle" x="314.5" y="-119.5" font-family="Fira Code" font-size="10.00" fill="#000000">fsm.h</text>
</a>
</g>
</g>
<!-- Node0&#45;&gt;Node8 -->
<g id="edge14" class="edge">
<title>Node0&#45;&gt;Node8</title>
<path fill="none" stroke="#191970" d="M381.3909,-168.2455C369.0791,-159.7337 351.0042,-147.2375 336.7462,-137.3801"/>
<polygon fill="#191970" stroke="#191970" points="338.6634,-134.4506 328.4474,-131.6427 334.6826,-140.2085 338.6634,-134.4506"/>
</g>
<!-- Node9 -->
<g id="node10" class="node">
<title>Node9</title>
<g id="a_node10"><a xlink:href="../../d3/d86/estoque_8h.html" target="_top" xlink:title="estoque.h">
<polygon fill="none" stroke="#000000" points="579,-112.5 579,-131.5 650,-131.5 650,-112.5 579,-112.5"/>
<text text-anchor="middle" x="614.5" y="-119.5" font-family="Fira Code" font-size="10.00" fill="#000000">estoque.h</text>
</a>
</g>
</g>
<!-- Node0&#45;&gt;Node9 -->
<g id="edge17" class="edge">
<title>Node0&#45;&gt;Node9</title>
<path fill="none" stroke="#191970" d="M433.1474,-168.3733C470.803,-158.7444 528.7555,-143.9255 568.9741,-133.6413"/>
<polygon fill="#191970" stroke="#191970" points="569.9728,-136.9986 578.794,-131.1303 568.2386,-130.2168 569.9728,-136.9986"/>
</g>
<!-- Node10 -->
<g id="node11" class="node">
<title>Node10</title>
<g id="a_node11"><a xlink:href="../../d8/d1d/boca__caixa_8h.html" target="_top" xlink:title="boca_caixa.h">
<polygon fill="none" stroke="#000000" points="472,-112.5 472,-131.5 561,-131.5 561,-112.5 472,-112.5"/>
<text text-anchor="middle" x="516.5" y="-119.5" font-family="Fira Code" font-size="10.00" fill="#000000">boca_caixa.h</text>
</a>
</g>
</g>
<!-- Node0&#45;&gt;Node10 -->
<g id="edge20" class="edge">
<title>Node0&#45;&gt;Node10</title>
<path fill="none" stroke="#191970" d="M416.3006,-168.3733C435.7243,-159.3838 464.9224,-145.8706 486.7964,-135.7471"/>
<polygon fill="#191970" stroke="#191970" points="488.3656,-138.8776 495.9708,-131.5011 485.4255,-132.5249 488.3656,-138.8776"/>
</g>
<!-- Node11 -->
<g id="node12" class="node">
<title>Node11</title>
<g id="a_node12"><a xlink:href="../../d5/d89/caixa__troco_8h.html" target="_top" xlink:title="caixa_troco.h">
<polygon fill="none" stroke="#000000" points="707,-112.5 707,-131.5 802,-131.5 802,-112.5 707,-112.5"/>
<text text-anchor="middle" x="754.5" y="-119.5" font-family="Fira Code" font-size="10.00" fill="#000000">caixa_troco.h</text>
</a>
</g>
</g>
<!-- Node0&#45;&gt;Node11 -->
<g id="edge22" class="edge">
<title>Node0&#45;&gt;Node11</title>
<path fill="none" stroke="#191970" d="M434.4312,-172.0496C491.1935,-163.3558 599.9906,-146.6243 692.5,-132 693.9471,-131.7712 695.4131,-131.5389 696.8921,-131.3041"/>
<polygon fill="#191970" stroke="#191970" points="697.4532,-134.7589 706.7774,-129.728 696.351,-127.8462 697.4532,-134.7589"/>
</g>
<!-- Node12 -->
<g id="node13" class="node">
<title>Node12</title>
<g id="a_node13"><a xlink:href="../../d5/dc1/trava_8h.html" target="_top" xlink:title="trava.h">
<polygon fill="none" stroke="#000000" points="820,-112.5 820,-131.5 879,-131.5 879,-112.5 820,-112.5"/>
<text text-anchor="middle" x="849.5" y="-119.5" font-family="Fira Code" font-size="10.00" fill="#000000">trava.h</text>
</a>
</g>
</g>
<!-- Node0&#45;&gt;Node12 -->
<g id="edge23" class="edge">
<title>Node0&#45;&gt;Node12</title>
<path fill="none" stroke="#191970" d="M434.2045,-175.6302C506.3976,-170.7984 666.5719,-158.1403 809.8732,-132.0957"/>
<polygon fill="#191970" stroke="#191970" points="810.5237,-135.5348 819.7231,-130.2792 809.2541,-128.6509 810.5237,-135.5348"/>
</g>
<!-- Node3&#45;&gt;Node2 -->
<g id="edge4" class="edge">
<title>Node3&#45;&gt;Node2</title>
<path fill="none" stroke="#191970" d="M361.3521,-56.2455C351.9913,-48.0549 338.4142,-36.1749 327.3651,-26.5069"/>
<polygon fill="#191970" stroke="#191970" points="329.3508,-23.5937 319.5202,-19.6427 324.7412,-28.8618 329.3508,-23.5937"/>
</g>
<!-- Node4&#45;&gt;Node1 -->
<g id="edge7" class="edge">
<title>Node4&#45;&gt;Node1</title>
<path fill="none" stroke="#191970" d="M219.3069,-112.2455C208.8679,-103.8943 193.6345,-91.7076 181.426,-81.9408"/>
<polygon fill="#191970" stroke="#191970" points="183.5485,-79.1566 173.5533,-75.6427 179.1756,-84.6227 183.5485,-79.1566"/>
</g>
<!-- Node4&#45;&gt;Node2 -->
<g id="edge6" class="edge">
<title>Node4&#45;&gt;Node2</title>
<path fill="none" stroke="#191970" d="M238.065,-112.4509C250.9077,-93.7707 279.5399,-52.1238 296.0726,-28.0761"/>
<polygon fill="#191970" stroke="#191970" points="299.1705,-29.7482 301.9516,-19.5249 293.4022,-25.7825 299.1705,-29.7482"/>
</g>
<!-- Node5&#45;&gt;Node1 -->
<g id="edge10" class="edge">
<title>Node5&#45;&gt;Node1</title>
<path fill="none" stroke="#191970" d="M108.6479,-112.2455C118.0087,-104.0549 131.5858,-92.1749 142.6349,-82.5069"/>
<polygon fill="#191970" stroke="#191970" points="145.2588,-84.8618 150.4798,-75.6427 140.6492,-79.5937 145.2588,-84.8618"/>
</g>
<!-- Node5&#45;&gt;Node2 -->
<g id="edge9" class="edge">
<title>Node5&#45;&gt;Node2</title>
<path fill="none" stroke="#191970" d="M98.3772,-112.3533C100.2193,-97.9134 105.8169,-70.7976 122.5,-56 143.482,-37.3892 217.5249,-23.3376 265.6225,-15.9138"/>
<polygon fill="#191970" stroke="#191970" points="266.3924,-19.3374 275.7598,-14.3875 265.3501,-12.4154 266.3924,-19.3374"/>
</g>
<!-- Node6&#45;&gt;Node2 -->
<g id="edge12" class="edge">
<title>Node6&#45;&gt;Node2</title>
<path fill="none" stroke="#191970" d="M71.19,-58.679C121.2929,-48.4015 212.3373,-29.7257 265.9148,-18.7354"/>
<polygon fill="#191970" stroke="#191970" points="266.6933,-22.1487 275.786,-16.7106 265.2866,-15.2915 266.6933,-22.1487"/>
</g>
<!-- Node8&#45;&gt;Node2 -->
<g id="edge15" class="edge">
<title>Node8&#45;&gt;Node2</title>
<path fill="none" stroke="#191970" d="M313.9884,-112.4509C313.0099,-94.184 310.8547,-53.9553 309.5552,-29.6976"/>
<polygon fill="#191970" stroke="#191970" points="313.0403,-29.3233 309.0103,-19.5249 306.0503,-29.6978 313.0403,-29.3233"/>
</g>
<!-- Node8&#45;&gt;Node3 -->
<g id="edge16" class="edge">
<title>Node8&#45;&gt;Node3</title>
<path fill="none" stroke="#191970" d="M324.6028,-112.2455C333.0028,-104.1352 345.1494,-92.4075 355.1084,-82.7919"/>
<polygon fill="#191970" stroke="#191970" points="357.75,-85.1066 362.5129,-75.6427 352.8878,-80.0707 357.75,-85.1066"/>
</g>
<!-- Node9&#45;&gt;Node2 -->
<g id="edge19" class="edge">
<title>Node9&#45;&gt;Node2</title>
<path fill="none" stroke="#191970" d="M588.4106,-112.4509C533.5344,-92.3655 406.115,-45.7284 343.9235,-22.9655"/>
<polygon fill="#191970" stroke="#191970" points="345.1171,-19.6753 334.5234,-19.5249 342.7111,-26.2489 345.1171,-19.6753"/>
</g>
<!-- Node9&#45;&gt;Node3 -->
<g id="edge18" class="edge">
<title>Node9&#45;&gt;Node3</title>
<path fill="none" stroke="#191970" d="M578.7921,-113.737C536.1657,-103.8731 464.8059,-87.36 418.194,-76.5738"/>
<polygon fill="#191970" stroke="#191970" points="418.8861,-73.1416 408.3544,-74.2969 417.3079,-79.9613 418.8861,-73.1416"/>
</g>
<!-- Node10&#45;&gt;Node3 -->
<g id="edge21" class="edge">
<title>Node10&#45;&gt;Node3</title>
<path fill="none" stroke="#191970" d="M491.7455,-112.3733C468.2151,-103.2226 432.6313,-89.3844 406.4574,-79.2057"/>
<polygon fill="#191970" stroke="#191970" points="407.5201,-75.8636 396.9315,-75.5011 404.9829,-82.3877 407.5201,-75.8636"/>
</g>
<!-- Node13 -->
<g id="node14" class="node">
<title>Node13</title>
<polygon fill="none" stroke="#bfbfbf" points="814,-56.5 814,-75.5 885,-75.5 885,-56.5 814,-56.5"/>
<text text-anchor="middle" x="849.5" y="-63.5" font-family="Fira Code" font-size="10.00" fill="#000000">stdbool.h</text>
</g>
<!-- Node12&#45;&gt;Node13 -->
<g id="edge24" class="edge">
<title>Node12&#45;&gt;Node13</title>
<path fill="none" stroke="#191970" d="M849.5,-112.2455C849.5,-104.9382 849.5,-94.6944 849.5,-85.7046"/>
<polygon fill="#191970" stroke="#191970" points="853.0001,-85.6426 849.5,-75.6427 846.0001,-85.6427 853.0001,-85.6426"/>
</g>
</g>
</svg>
