<?xml version="1.0" encoding="UTF-8" standalone="no"?>
<!DOCTYPE svg PUBLIC "-//W3C//DTD SVG 1.1//EN"
 "http://www.w3.org/Graphics/SVG/1.1/DTD/svg11.dtd">
<!-- Generated by graphviz version 2.40.1 (20161225.0304)
 -->
<!-- Title: src/main.c Pages: 1 -->
<!--zoomable 140 -->
<svg id="main" version="1.1" xmlns="http://www.w3.org/2000/svg" xmlns:xlink="http://www.w3.org/1999/xlink" xml:space="preserve" onload="init(evt)">
<style type="text/css"><![CDATA[
.edge:hover path { stroke: red; }
.edge:hover polygon { stroke: red; fill: red; }
]]></style>
<script type="text/javascript"><![CDATA[
var edges = document.getElementsByTagName('g');
if (edges && edges.length) {
  for (var i=0;i<edges.length;i++) {
    if (edges[i].id.substr(0,4)=='edge') {
      edges[i].setAttribute('class','edge');
    }
  }
}
]]></script>
        <defs>
                <circle id="rim" cx="0" cy="0" r="7"/>
                <circle id="rim2" cx="0" cy="0" r="3.5"/>
                <g id="zoomPlus">
                        <use xlink:href="#rim" fill="#404040">
                                <set attributeName="fill" to="#808080" begin="zoomplus.mouseover" end="zoomplus.mouseout"/>
                        </use>
                        <path d="M-4,0h8M0,-4v8" fill="none" stroke="white" stroke-width="1.5" pointer-events="none"/>
                </g>
                <g id="zoomMin">
                        <use xlink:href="#rim" fill="#404040">
                                <set attributeName="fill" to="#808080" begin="zoomminus.mouseover" end="zoomminus.mouseout"/>
                        </use>
                        <path d="M-4,0h8" fill="none" stroke="white" stroke-width="1.5" pointer-events="none"/>
                </g>
                <g id="dirArrow">
                        <path fill="none" stroke="white" stroke-width="1.5" d="M0,-3.0v7 M-2.5,-0.5L0,-3.0L2.5,-0.5"/>
                </g>
               <g id="resetDef">
                       <use xlink:href="#rim2" fill="#404040">
                               <set attributeName="fill" to="#808080" begin="reset.mouseover" end="reset.mouseout"/>
                       </use>
               </g>
        </defs>

<script type="text/javascript">
var viewWidth = 524;
var viewHeight = 140;
var sectionId = 'dynsection-0';
</script>
<script xlink:href="../../svgpan.js"/>
<svg id="graph" class="graph">
<g id="viewport">
<title>src/main.c</title>
<!-- Node0 -->
<g id="node1" class="node">
<title>Node0</title>
<polygon fill="#bfbfbf" stroke="#000000" points="215,-112.5 215,-131.5 292,-131.5 292,-112.5 215,-112.5"/>
<text text-anchor="middle" x="253.5" y="-119.5" font-family="Fira Code" font-size="10.00" fill="#000000">src/main.c</text>
</g>
<!-- Node1 -->
<g id="node2" class="node">
<title>Node1</title>
<polygon fill="none" stroke="#bfbfbf" points="0,-.5 0,-19.5 59,-19.5 59,-.5 0,-.5"/>
<text text-anchor="middle" x="29.5" y="-7.5" font-family="Fira Code" font-size="10.00" fill="#000000">stdio.h</text>
</g>
<!-- Node0&#45;&gt;Node1 -->
<g id="edge1" class="edge">
<title>Node0&#45;&gt;Node1</title>
<path fill="none" stroke="#191970" d="M214.624,-120.3563C153.3216,-116.858 38.5689,-106.3301 13.5,-76 2.4089,-62.5813 9.435,-42.6852 17.3686,-28.2479"/>
<polygon fill="#191970" stroke="#191970" points="20.3725,-30.0442 22.5319,-19.6718 14.3755,-26.4336 20.3725,-30.0442"/>
</g>
<!-- Node2 -->
<g id="node3" class="node">
<title>Node2</title>
<g id="a_node3"><a xlink:href="../../df/da2/definicoes__sistema_8h.html" target="_top" xlink:title="definicoes_sistema.h">
<polygon fill="none" stroke="#000000" points="124,-56.5 124,-75.5 261,-75.5 261,-56.5 124,-56.5"/>
<text text-anchor="middle" x="192.5" y="-63.5" font-family="Fira Code" font-size="10.00" fill="#000000">definicoes_sistema.h</text>
</a>
</g>
</g>
<!-- Node0&#45;&gt;Node2 -->
<g id="edge2" class="edge">
<title>Node0&#45;&gt;Node2</title>
<path fill="none" stroke="#191970" d="M242.8746,-112.2455C233.9527,-104.0549 221.012,-92.1749 210.4808,-82.5069"/>
<polygon fill="#191970" stroke="#191970" points="212.7371,-79.8271 203.0036,-75.6427 208.0032,-84.9837 212.7371,-79.8271"/>
</g>
<!-- Node4 -->
<g id="node5" class="node">
<title>Node4</title>
<g id="a_node5"><a xlink:href="../../da/d79/atuadores_8h.html" target="_top" xlink:title="atuadores.h">
<polygon fill="none" stroke="#000000" points="23,-56.5 23,-75.5 106,-75.5 106,-56.5 23,-56.5"/>
<text text-anchor="middle" x="64.5" y="-63.5" font-family="Fira Code" font-size="10.00" fill="#000000">atuadores.h</text>
</a>
</g>
</g>
<!-- Node0&#45;&gt;Node4 -->
<g id="edge4" class="edge">
<title>Node0&#45;&gt;Node4</title>
<path fill="none" stroke="#191970" d="M221.0097,-112.3733C189.3098,-102.9807 140.9424,-88.6496 106.3714,-78.4064"/>
<polygon fill="#191970" stroke="#191970" points="107.1486,-74.9863 96.5663,-75.5011 105.1599,-81.6979 107.1486,-74.9863"/>
</g>
<!-- Node5 -->
<g id="node6" class="node">
<title>Node5</title>
<g id="a_node6"><a xlink:href="../../d4/d68/display_8h.html" target="_top" xlink:title="display.h">
<polygon fill="none" stroke="#000000" points="279,-56.5 279,-75.5 350,-75.5 350,-56.5 279,-56.5"/>
<text text-anchor="middle" x="314.5" y="-63.5" font-family="Fira Code" font-size="10.00" fill="#000000">display.h</text>
</a>
</g>
</g>
<!-- Node0&#45;&gt;Node5 -->
<g id="edge7" class="edge">
<title>Node0&#45;&gt;Node5</title>
<path fill="none" stroke="#191970" d="M264.1254,-112.2455C273.0473,-104.0549 285.988,-92.1749 296.5192,-82.5069"/>
<polygon fill="#191970" stroke="#191970" points="298.9968,-84.9837 303.9964,-75.6427 294.2629,-79.8271 298.9968,-84.9837"/>
</g>
<!-- Node6 -->
<g id="node7" class="node">
<title>Node6</title>
<g id="a_node7"><a xlink:href="../../dc/d17/teclado_8h.html" target="_top" xlink:title="teclado.h">
<polygon fill="none" stroke="#000000" points="368,-56.5 368,-75.5 439,-75.5 439,-56.5 368,-56.5"/>
<text text-anchor="middle" x="403.5" y="-63.5" font-family="Fira Code" font-size="10.00" fill="#000000">teclado.h</text>
</a>
</g>
</g>
<!-- Node0&#45;&gt;Node6 -->
<g id="edge9" class="edge">
<title>Node0&#45;&gt;Node6</title>
<path fill="none" stroke="#191970" d="M279.2859,-112.3733C303.9047,-103.1822 341.19,-89.2624 368.4875,-79.0713"/>
<polygon fill="#191970" stroke="#191970" points="369.9063,-82.2777 378.0506,-75.5011 367.458,-75.7198 369.9063,-82.2777"/>
</g>
<!-- Node7 -->
<g id="node8" class="node">
<title>Node7</title>
<g id="a_node8"><a xlink:href="../../d5/d60/utils_8h.html" target="_top" xlink:title="Mathematic utilitary functions globally available. ">
<polygon fill="none" stroke="#000000" points="457,-56.5 457,-75.5 516,-75.5 516,-56.5 457,-56.5"/>
<text text-anchor="middle" x="486.5" y="-63.5" font-family="Fira Code" font-size="10.00" fill="#000000">utils.h</text>
</a>
</g>
</g>
<!-- Node0&#45;&gt;Node7 -->
<g id="edge11" class="edge">
<title>Node0&#45;&gt;Node7</title>
<path fill="none" stroke="#191970" d="M292.0499,-113.2134C329.3606,-104.641 387.7649,-91.0433 446.7881,-76.3896"/>
<polygon fill="#191970" stroke="#191970" points="447.7906,-79.7469 456.6478,-73.9332 446.0983,-72.9546 447.7906,-79.7469"/>
</g>
<!-- Node3 -->
<g id="node4" class="node">
<title>Node3</title>
<polygon fill="none" stroke="#bfbfbf" points="221,-.5 221,-19.5 286,-19.5 286,-.5 221,-.5"/>
<text text-anchor="middle" x="253.5" y="-7.5" font-family="Fira Code" font-size="10.00" fill="#000000">stdint.h</text>
</g>
<!-- Node2&#45;&gt;Node3 -->
<g id="edge3" class="edge">
<title>Node2&#45;&gt;Node3</title>
<path fill="none" stroke="#191970" d="M203.1254,-56.2455C212.0473,-48.0549 224.988,-36.1749 235.5192,-26.5069"/>
<polygon fill="#191970" stroke="#191970" points="237.9968,-28.9837 242.9964,-19.6427 233.2629,-23.8271 237.9968,-28.9837"/>
</g>
<!-- Node4&#45;&gt;Node1 -->
<g id="edge6" class="edge">
<title>Node4&#45;&gt;Node1</title>
<path fill="none" stroke="#191970" d="M58.4035,-56.2455C53.5855,-48.5367 46.7249,-37.5598 40.8968,-28.2348"/>
<polygon fill="#191970" stroke="#191970" points="43.7947,-26.2677 35.5267,-19.6427 37.8587,-29.9777 43.7947,-26.2677"/>
</g>
<!-- Node4&#45;&gt;Node3 -->
<g id="edge5" class="edge">
<title>Node4&#45;&gt;Node3</title>
<path fill="none" stroke="#191970" d="M96.9903,-56.3733C128.6902,-46.9807 177.0576,-32.6496 211.6286,-22.4064"/>
<polygon fill="#191970" stroke="#191970" points="212.8401,-25.6979 221.4337,-19.5011 210.8514,-18.9863 212.8401,-25.6979"/>
</g>
<!-- Node5&#45;&gt;Node3 -->
<g id="edge8" class="edge">
<title>Node5&#45;&gt;Node3</title>
<path fill="none" stroke="#191970" d="M303.8746,-56.2455C294.9527,-48.0549 282.012,-36.1749 271.4808,-26.5069"/>
<polygon fill="#191970" stroke="#191970" points="273.7371,-23.8271 264.0036,-19.6427 269.0032,-28.9837 273.7371,-23.8271"/>
</g>
<!-- Node6&#45;&gt;Node3 -->
<g id="edge10" class="edge">
<title>Node6&#45;&gt;Node3</title>
<path fill="none" stroke="#191970" d="M377.7141,-56.3733C353.0953,-47.1822 315.81,-33.2624 288.5125,-23.0713"/>
<polygon fill="#191970" stroke="#191970" points="289.542,-19.7198 278.9494,-19.5011 287.0937,-26.2777 289.542,-19.7198"/>
</g>
</g>
</svg>
        <g id="navigator" transform="translate(0 0)" fill="#404254">
                <rect fill="#f2f5e9" fill-opacity="0.5" stroke="#606060" stroke-width=".5" x="0" y="0" width="60" height="60"/>
                <use id="zoomplus" xlink:href="#zoomPlus" x="17" y="9" onmousedown="handleZoom(evt,'in')"/>
                <use id="zoomminus" xlink:href="#zoomMin" x="42" y="9" onmousedown="handleZoom(evt,'out')"/>
                <use id="reset" xlink:href="#resetDef" x="30" y="36" onmousedown="handleReset()"/>
                <g id="arrowUp" xlink:href="#dirArrow" transform="translate(30 24)" onmousedown="handlePan(0,-1)">
                  <use xlink:href="#rim" fill="#404040">
                        <set attributeName="fill" to="#808080" begin="arrowUp.mouseover" end="arrowUp.mouseout"/>
                  </use>
                  <path fill="none" stroke="white" stroke-width="1.5" d="M0,-3.0v7 M-2.5,-0.5L0,-3.0L2.5,-0.5"/>
                </g>
                <g id="arrowRight" xlink:href="#dirArrow" transform="rotate(90) translate(36 -43)" onmousedown="handlePan(1,0)">
                  <use xlink:href="#rim" fill="#404040">
                        <set attributeName="fill" to="#808080" begin="arrowRight.mouseover" end="arrowRight.mouseout"/>
                  </use>
                  <path fill="none" stroke="white" stroke-width="1.5" d="M0,-3.0v7 M-2.5,-0.5L0,-3.0L2.5,-0.5"/>
                </g>
                <g id="arrowDown" xlink:href="#dirArrow" transform="rotate(180) translate(-30 -48)" onmousedown="handlePan(0,1)">
                  <use xlink:href="#rim" fill="#404040">
                        <set attributeName="fill" to="#808080" begin="arrowDown.mouseover" end="arrowDown.mouseout"/>
                  </use>
                  <path fill="none" stroke="white" stroke-width="1.5" d="M0,-3.0v7 M-2.5,-0.5L0,-3.0L2.5,-0.5"/>
                </g>
                <g id="arrowLeft" xlink:href="#dirArrow" transform="rotate(270) translate(-36 17)" onmousedown="handlePan(-1,0)">
                  <use xlink:href="#rim" fill="#404040">
                        <set attributeName="fill" to="#808080" begin="arrowLeft.mouseover" end="arrowLeft.mouseout"/>
                  </use>
                  <path fill="none" stroke="white" stroke-width="1.5" d="M0,-3.0v7 M-2.5,-0.5L0,-3.0L2.5,-0.5"/>
                </g>
        </g>
        <svg viewBox="0 0 15 15" width="100%" height="30px" preserveAspectRatio="xMaxYMin meet">
         <g id="arrow_out" transform="scale(0.3 0.3)">
          <a xlink:href="main_8c__incl_org.svg" target="_base">
           <rect id="button" ry="5" rx="5" y="6" x="6" height="38" width="38"
                fill="#f2f5e9" fill-opacity="0.5" stroke="#606060" stroke-width="1.0"/>
           <path id="arrow"
             d="M 11.500037,31.436501 C 11.940474,20.09759 22.043105,11.32322 32.158766,21.979434 L 37.068811,17.246167 C 37.068811,17.246167 37.088388,32 37.088388,32 L 22.160133,31.978069 C 22.160133,31.978069 26.997745,27.140456 26.997745,27.140456 C 18.528582,18.264221 13.291696,25.230495 11.500037,31.436501 z"
             style="fill:#404040;"/>
          </a>
         </g>
        </svg>
</svg>
