<?xml version="1.0" encoding="UTF-8" standalone="no"?>
<!DOCTYPE svg PUBLIC "-//W3C//DTD SVG 1.1//EN"
 "http://www.w3.org/Graphics/SVG/1.1/DTD/svg11.dtd">
<!-- Generated by graphviz version 2.40.1 (20161225.0304)
 -->
<!-- Title: src/atuadores.c Pages: 1 -->
<svg width="150pt" height="140pt"
 viewBox="0.00 0.00 150.00 140.00" xmlns="http://www.w3.org/2000/svg" xmlns:xlink="http://www.w3.org/1999/xlink">
<g id="graph0" class="graph" transform="scale(1 1) rotate(0) translate(4 136)">
<title>src/atuadores.c</title>
<!-- Node0 -->
<g id="node1" class="node">
<title>Node0</title>
<polygon fill="#bfbfbf" stroke="#000000" points="19,-112.5 19,-131.5 126,-131.5 126,-112.5 19,-112.5"/>
<text text-anchor="middle" x="72.5" y="-119.5" font-family="Fira Code" font-size="10.00" fill="#000000">src/atuadores.c</text>
</g>
<!-- Node1 -->
<g id="node2" class="node">
<title>Node1</title>
<g id="a_node2"><a xlink:href="../../da/d79/atuadores_8h.html" target="_top" xlink:title="atuadores.h">
<polygon fill="none" stroke="#000000" points="31,-56.5 31,-75.5 114,-75.5 114,-56.5 31,-56.5"/>
<text text-anchor="middle" x="72.5" y="-63.5" font-family="Fira Code" font-size="10.00" fill="#000000">atuadores.h</text>
</a>
</g>
</g>
<!-- Node0&#45;&gt;Node1 -->
<g id="edge1" class="edge">
<title>Node0&#45;&gt;Node1</title>
<path fill="none" stroke="#191970" d="M72.5,-112.2455C72.5,-104.9382 72.5,-94.6944 72.5,-85.7046"/>
<polygon fill="#191970" stroke="#191970" points="76.0001,-85.6426 72.5,-75.6427 69.0001,-85.6427 76.0001,-85.6426"/>
</g>
<!-- Node2 -->
<g id="node3" class="node">
<title>Node2</title>
<polygon fill="none" stroke="#bfbfbf" points="0,-.5 0,-19.5 65,-19.5 65,-.5 0,-.5"/>
<text text-anchor="middle" x="32.5" y="-7.5" font-family="Fira Code" font-size="10.00" fill="#000000">stdint.h</text>
</g>
<!-- Node1&#45;&gt;Node2 -->
<g id="edge2" class="edge">
<title>Node1&#45;&gt;Node2</title>
<path fill="none" stroke="#191970" d="M65.5325,-56.2455C59.9689,-48.4564 52.022,-37.3308 45.3171,-27.9439"/>
<polygon fill="#191970" stroke="#191970" points="48.0481,-25.7457 39.3876,-19.6427 42.352,-29.8144 48.0481,-25.7457"/>
</g>
<!-- Node3 -->
<g id="node4" class="node">
<title>Node3</title>
<polygon fill="none" stroke="#bfbfbf" points="83,-.5 83,-19.5 142,-19.5 142,-.5 83,-.5"/>
<text text-anchor="middle" x="112.5" y="-7.5" font-family="Fira Code" font-size="10.00" fill="#000000">stdio.h</text>
</g>
<!-- Node1&#45;&gt;Node3 -->
<g id="edge3" class="edge">
<title>Node1&#45;&gt;Node3</title>
<path fill="none" stroke="#191970" d="M79.4675,-56.2455C85.0311,-48.4564 92.978,-37.3308 99.6829,-27.9439"/>
<polygon fill="#191970" stroke="#191970" points="102.648,-29.8144 105.6124,-19.6427 96.9519,-25.7457 102.648,-29.8144"/>
</g>
</g>
</svg>
