<?xml version="1.0" encoding="UTF-8" standalone="no"?>
<!DOCTYPE svg PUBLIC "-//W3C//DTD SVG 1.1//EN"
 "http://www.w3.org/Graphics/SVG/1.1/DTD/svg11.dtd">
<!-- Generated by graphviz version 2.40.1 (20161225.0304)
 -->
<!-- Title: inc/utils.h Pages: 1 -->
<svg width="216pt" height="84pt"
 viewBox="0.00 0.00 216.00 84.00" xmlns="http://www.w3.org/2000/svg" xmlns:xlink="http://www.w3.org/1999/xlink">
<g id="graph0" class="graph" transform="scale(1 1) rotate(0) translate(4 80)">
<title>inc/utils.h</title>
<!-- Node1 -->
<g id="node1" class="node">
<title>Node1</title>
<polygon fill="#bfbfbf" stroke="#000000" points="71,-56.5 71,-75.5 154,-75.5 154,-56.5 71,-56.5"/>
<text text-anchor="middle" x="112.5" y="-63.5" font-family="Fira Code" font-size="10.00" fill="#000000">inc/utils.h</text>
</g>
<!-- Node2 -->
<g id="node2" class="node">
<title>Node2</title>
<g id="a_node2"><a xlink:href="../../d2/d9b/boca__caixa_8c.html" target="_top" xlink:title="src/boca_caixa.c">
<polygon fill="none" stroke="#000000" points="0,-.5 0,-19.5 113,-19.5 113,-.5 0,-.5"/>
<text text-anchor="middle" x="56.5" y="-7.5" font-family="Fira Code" font-size="10.00" fill="#000000">src/boca_caixa.c</text>
</a>
</g>
</g>
<!-- Node1&#45;&gt;Node2 -->
<g id="edge1" class="edge">
<title>Node1&#45;&gt;Node2</title>
<path fill="none" stroke="#191970" d="M95.5751,-49.0751C85.9402,-39.4402 74.2196,-27.7196 66.1427,-19.6427"/>
<polygon fill="#191970" stroke="#191970" points="93.1996,-51.6493 102.7455,-56.2455 98.1493,-46.6996 93.1996,-51.6493"/>
</g>
<!-- Node3 -->
<g id="node3" class="node">
<title>Node3</title>
<g id="a_node3"><a xlink:href="../../d0/d29/main_8c.html" target="_top" xlink:title="src/main.c">
<polygon fill="none" stroke="#000000" points="131,-.5 131,-19.5 208,-19.5 208,-.5 131,-.5"/>
<text text-anchor="middle" x="169.5" y="-7.5" font-family="Fira Code" font-size="10.00" fill="#000000">src/main.c</text>
</a>
</g>
</g>
<!-- Node1&#45;&gt;Node3 -->
<g id="edge2" class="edge">
<title>Node1&#45;&gt;Node3</title>
<path fill="none" stroke="#191970" d="M129.7271,-49.0751C139.5341,-39.4402 151.464,-27.7196 159.6851,-19.6427"/>
<polygon fill="#191970" stroke="#191970" points="127.1091,-46.7406 122.4286,-56.2455 132.0149,-51.734 127.1091,-46.7406"/>
</g>
</g>
</svg>
