<?xml version="1.0" encoding="UTF-8" standalone="no"?>
<!DOCTYPE svg PUBLIC "-//W3C//DTD SVG 1.1//EN"
 "http://www.w3.org/Graphics/SVG/1.1/DTD/svg11.dtd">
<!-- Generated by graphviz version 2.40.1 (20161225.0304)
 -->
<!-- Title: inc/display.h Pages: 1 -->
<svg width="466pt" height="84pt"
 viewBox="0.00 0.00 466.00 84.00" xmlns="http://www.w3.org/2000/svg" xmlns:xlink="http://www.w3.org/1999/xlink">
<g id="graph0" class="graph" transform="scale(1 1) rotate(0) translate(4 80)">
<title>inc/display.h</title>
<!-- Node3 -->
<g id="node1" class="node">
<title>Node3</title>
<polygon fill="#bfbfbf" stroke="#000000" points="205,-56.5 205,-75.5 300,-75.5 300,-56.5 205,-56.5"/>
<text text-anchor="middle" x="252.5" y="-63.5" font-family="Fira Code" font-size="10.00" fill="#000000">inc/display.h</text>
</g>
<!-- Node4 -->
<g id="node2" class="node">
<title>Node4</title>
<g id="a_node2"><a xlink:href="../../d2/d9b/boca__caixa_8c.html" target="_top" xlink:title="src/boca_caixa.c">
<polygon fill="none" stroke="#000000" points="0,-.5 0,-19.5 113,-19.5 113,-.5 0,-.5"/>
<text text-anchor="middle" x="56.5" y="-7.5" font-family="Fira Code" font-size="10.00" fill="#000000">src/boca_caixa.c</text>
</a>
</g>
</g>
<!-- Node3&#45;&gt;Node4 -->
<g id="edge1" class="edge">
<title>Node3&#45;&gt;Node4</title>
<path fill="none" stroke="#191970" d="M209.0587,-53.5882C173.0484,-43.2996 122.6132,-28.8895 89.7539,-19.5011"/>
<polygon fill="#191970" stroke="#191970" points="208.2296,-56.9913 218.8064,-56.3733 210.1527,-50.2606 208.2296,-56.9913"/>
</g>
<!-- Node5 -->
<g id="node3" class="node">
<title>Node5</title>
<g id="a_node3"><a xlink:href="../../d5/d39/caixa__troco_8c.html" target="_top" xlink:title="src/caixa_troco.c">
<polygon fill="none" stroke="#000000" points="131,-.5 131,-19.5 250,-19.5 250,-.5 131,-.5"/>
<text text-anchor="middle" x="190.5" y="-7.5" font-family="Fira Code" font-size="10.00" fill="#000000">src/caixa_troco.c</text>
</a>
</g>
</g>
<!-- Node3&#45;&gt;Node5 -->
<g id="edge2" class="edge">
<title>Node3&#45;&gt;Node5</title>
<path fill="none" stroke="#191970" d="M234.0779,-49.3607C223.3519,-39.6727 210.2066,-27.7995 201.1758,-19.6427"/>
<polygon fill="#191970" stroke="#191970" points="231.9334,-52.14 241.7004,-56.2455 236.6254,-46.9453 231.9334,-52.14"/>
</g>
<!-- Node6 -->
<g id="node4" class="node">
<title>Node6</title>
<g id="a_node4"><a xlink:href="../../db/d85/display_8c.html" target="_top" xlink:title="src/display.c">
<polygon fill="none" stroke="#000000" points="268,-.5 268,-19.5 363,-19.5 363,-.5 268,-.5"/>
<text text-anchor="middle" x="315.5" y="-7.5" font-family="Fira Code" font-size="10.00" fill="#000000">src/display.c</text>
</a>
</g>
</g>
<!-- Node3&#45;&gt;Node6 -->
<g id="edge3" class="edge">
<title>Node3&#45;&gt;Node6</title>
<path fill="none" stroke="#191970" d="M271.2192,-49.3607C282.1182,-39.6727 295.4755,-27.7995 304.652,-19.6427"/>
<polygon fill="#191970" stroke="#191970" points="268.6226,-46.9859 263.4738,-56.2455 273.2732,-52.2178 268.6226,-46.9859"/>
</g>
<!-- Node7 -->
<g id="node5" class="node">
<title>Node7</title>
<g id="a_node5"><a xlink:href="../../d0/d29/main_8c.html" target="_top" xlink:title="src/main.c">
<polygon fill="none" stroke="#000000" points="381,-.5 381,-19.5 458,-19.5 458,-.5 381,-.5"/>
<text text-anchor="middle" x="419.5" y="-7.5" font-family="Fira Code" font-size="10.00" fill="#000000">src/main.c</text>
</a>
</g>
</g>
<!-- Node3&#45;&gt;Node7 -->
<g id="edge4" class="edge">
<title>Node3&#45;&gt;Node7</title>
<path fill="none" stroke="#191970" d="M290.6998,-53.1905C321.2954,-42.9309 363.5278,-28.7691 391.1663,-19.5011"/>
<polygon fill="#191970" stroke="#191970" points="289.5767,-49.8755 281.2083,-56.3733 291.8022,-56.5123 289.5767,-49.8755"/>
</g>
</g>
</svg>
