<?xml version="1.0" encoding="UTF-8" standalone="no"?>
<!DOCTYPE svg PUBLIC "-//W3C//DTD SVG 1.1//EN"
 "http://www.w3.org/Graphics/SVG/1.1/DTD/svg11.dtd">
<!-- Generated by graphviz version 2.40.1 (20161225.0304)
 -->
<!-- Title: src/caixa_troco.c Pages: 1 -->
<svg width="168pt" height="140pt"
 viewBox="0.00 0.00 168.00 140.00" xmlns="http://www.w3.org/2000/svg" xmlns:xlink="http://www.w3.org/1999/xlink">
<g id="graph0" class="graph" transform="scale(1 1) rotate(0) translate(4 136)">
<title>src/caixa_troco.c</title>
<!-- Node0 -->
<g id="node1" class="node">
<title>Node0</title>
<polygon fill="#bfbfbf" stroke="#000000" points="20,-112.5 20,-131.5 139,-131.5 139,-112.5 20,-112.5"/>
<text text-anchor="middle" x="79.5" y="-119.5" font-family="Fira Code" font-size="10.00" fill="#000000">src/caixa_troco.c</text>
</g>
<!-- Node1 -->
<g id="node2" class="node">
<title>Node1</title>
<g id="a_node2"><a xlink:href="../../d4/d68/display_8h.html" target="_top" xlink:title="display.h">
<polygon fill="none" stroke="#000000" points="89,-56.5 89,-75.5 160,-75.5 160,-56.5 89,-56.5"/>
<text text-anchor="middle" x="124.5" y="-63.5" font-family="Fira Code" font-size="10.00" fill="#000000">display.h</text>
</a>
</g>
</g>
<!-- Node0&#45;&gt;Node1 -->
<g id="edge1" class="edge">
<title>Node0&#45;&gt;Node1</title>
<path fill="none" stroke="#191970" d="M87.3384,-112.2455C93.662,-104.3761 102.7224,-93.101 110.3136,-83.6542"/>
<polygon fill="#191970" stroke="#191970" points="113.2158,-85.6302 116.7514,-75.6427 107.7592,-81.2454 113.2158,-85.6302"/>
</g>
<!-- Node4 -->
<g id="node5" class="node">
<title>Node4</title>
<g id="a_node5"><a xlink:href="../../db/db0/sistema_8h.html" target="_top" xlink:title="sistema.h">
<polygon fill="none" stroke="#000000" points="0,-56.5 0,-75.5 71,-75.5 71,-56.5 0,-56.5"/>
<text text-anchor="middle" x="35.5" y="-63.5" font-family="Fira Code" font-size="10.00" fill="#000000">sistema.h</text>
</a>
</g>
</g>
<!-- Node0&#45;&gt;Node4 -->
<g id="edge4" class="edge">
<title>Node0&#45;&gt;Node4</title>
<path fill="none" stroke="#191970" d="M71.8358,-112.2455C65.6527,-104.3761 56.7937,-93.101 49.3711,-83.6542"/>
<polygon fill="#191970" stroke="#191970" points="52.0068,-81.3435 43.0764,-75.6427 46.5025,-85.6683 52.0068,-81.3435"/>
</g>
<!-- Node2 -->
<g id="node3" class="node">
<title>Node2</title>
<polygon fill="none" stroke="#bfbfbf" points="8,-.5 8,-19.5 73,-19.5 73,-.5 8,-.5"/>
<text text-anchor="middle" x="40.5" y="-7.5" font-family="Fira Code" font-size="10.00" fill="#000000">stdint.h</text>
</g>
<!-- Node1&#45;&gt;Node2 -->
<g id="edge2" class="edge">
<title>Node1&#45;&gt;Node2</title>
<path fill="none" stroke="#191970" d="M109.8683,-56.2455C97.1006,-47.7337 78.3562,-35.2375 63.5701,-25.3801"/>
<polygon fill="#191970" stroke="#191970" points="65.226,-22.2775 54.964,-19.6427 61.3431,-28.1019 65.226,-22.2775"/>
</g>
<!-- Node3 -->
<g id="node4" class="node">
<title>Node3</title>
<polygon fill="none" stroke="#bfbfbf" points="95,-.5 95,-19.5 154,-19.5 154,-.5 95,-.5"/>
<text text-anchor="middle" x="124.5" y="-7.5" font-family="Fira Code" font-size="10.00" fill="#000000">stdio.h</text>
</g>
<!-- Node1&#45;&gt;Node3 -->
<g id="edge3" class="edge">
<title>Node1&#45;&gt;Node3</title>
<path fill="none" stroke="#191970" d="M124.5,-56.2455C124.5,-48.9382 124.5,-38.6944 124.5,-29.7046"/>
<polygon fill="#191970" stroke="#191970" points="128.0001,-29.6426 124.5,-19.6427 121.0001,-29.6427 128.0001,-29.6426"/>
</g>
<!-- Node4&#45;&gt;Node2 -->
<g id="edge5" class="edge">
<title>Node4&#45;&gt;Node2</title>
<path fill="none" stroke="#191970" d="M36.3709,-56.2455C37.0234,-48.9382 37.938,-38.6944 38.7407,-29.7046"/>
<polygon fill="#191970" stroke="#191970" points="42.2358,-29.9143 39.639,-19.6427 35.2635,-29.2918 42.2358,-29.9143"/>
</g>
</g>
</svg>
