<?xml version="1.0" encoding="UTF-8" standalone="no"?>
<!DOCTYPE svg PUBLIC "-//W3C//DTD SVG 1.1//EN"
 "http://www.w3.org/Graphics/SVG/1.1/DTD/svg11.dtd">
<!-- Generated by graphviz version 2.40.1 (20161225.0304)
 -->
<!-- Title: inc/trava.h Pages: 1 -->
<svg width="186pt" height="84pt"
 viewBox="0.00 0.00 186.00 84.00" xmlns="http://www.w3.org/2000/svg" xmlns:xlink="http://www.w3.org/1999/xlink">
<g id="graph0" class="graph" transform="scale(1 1) rotate(0) translate(4 80)">
<title>inc/trava.h</title>
<!-- Node2 -->
<g id="node1" class="node">
<title>Node2</title>
<polygon fill="#bfbfbf" stroke="#000000" points="46,-56.5 46,-75.5 129,-75.5 129,-56.5 46,-56.5"/>
<text text-anchor="middle" x="87.5" y="-63.5" font-family="Fira Code" font-size="10.00" fill="#000000">inc/trava.h</text>
</g>
<!-- Node3 -->
<g id="node2" class="node">
<title>Node3</title>
<g id="a_node2"><a xlink:href="../../d0/d29/main_8c.html" target="_top" xlink:title="src/main.c">
<polygon fill="none" stroke="#000000" points="0,-.5 0,-19.5 77,-19.5 77,-.5 0,-.5"/>
<text text-anchor="middle" x="38.5" y="-7.5" font-family="Fira Code" font-size="10.00" fill="#000000">src/main.c</text>
</a>
</g>
</g>
<!-- Node2&#45;&gt;Node3 -->
<g id="edge1" class="edge">
<title>Node2&#45;&gt;Node3</title>
<path fill="none" stroke="#191970" d="M72.1878,-48.5004C63.8553,-38.9775 53.8647,-27.5596 46.9373,-19.6427"/>
<polygon fill="#191970" stroke="#191970" points="69.7457,-51.0245 78.9649,-56.2455 75.0138,-46.415 69.7457,-51.0245"/>
</g>
<!-- Node4 -->
<g id="node3" class="node">
<title>Node4</title>
<g id="a_node3"><a xlink:href="../../d5/dcc/trava_8c.html" target="_top" xlink:title="Métodos de interface com a trava de manutenção da vending machine. ">
<polygon fill="none" stroke="#000000" points="95,-.5 95,-19.5 178,-19.5 178,-.5 95,-.5"/>
<text text-anchor="middle" x="136.5" y="-7.5" font-family="Fira Code" font-size="10.00" fill="#000000">src/trava.c</text>
</a>
</g>
</g>
<!-- Node2&#45;&gt;Node4 -->
<g id="edge2" class="edge">
<title>Node2&#45;&gt;Node4</title>
<path fill="none" stroke="#191970" d="M102.8122,-48.5004C111.1447,-38.9775 121.1353,-27.5596 128.0627,-19.6427"/>
<polygon fill="#191970" stroke="#191970" points="99.9862,-46.415 96.0351,-56.2455 105.2543,-51.0245 99.9862,-46.415"/>
</g>
</g>
</svg>
