<?xml version="1.0" encoding="UTF-8" standalone="no"?>
<!DOCTYPE svg PUBLIC "-//W3C//DTD SVG 1.1//EN"
 "http://www.w3.org/Graphics/SVG/1.1/DTD/svg11.dtd">
<!-- Generated by graphviz version 2.40.1 (20161225.0304)
 -->
<!-- Title: inc/sistema.h Pages: 1 -->
<svg width="352pt" height="140pt"
 viewBox="0.00 0.00 351.83 140.00" xmlns="http://www.w3.org/2000/svg" xmlns:xlink="http://www.w3.org/1999/xlink">
<g id="graph0" class="graph" transform="scale(1 1) rotate(0) translate(4 136)">
<title>inc/sistema.h</title>
<!-- Node2 -->
<g id="node1" class="node">
<title>Node2</title>
<polygon fill="#bfbfbf" stroke="#000000" points="111.8345,-112.5 111.8345,-131.5 206.8345,-131.5 206.8345,-112.5 111.8345,-112.5"/>
<text text-anchor="middle" x="159.3345" y="-119.5" font-family="Fira Code" font-size="10.00" fill="#000000">inc/sistema.h</text>
</g>
<!-- Node3 -->
<g id="node2" class="node">
<title>Node3</title>
<g id="a_node2"><a xlink:href="../../d2/d9b/boca__caixa_8c.html" target="_top" xlink:title="src/boca_caixa.c">
<polygon fill="none" stroke="#000000" points="1.8345,-.5 1.8345,-19.5 114.8345,-19.5 114.8345,-.5 1.8345,-.5"/>
<text text-anchor="middle" x="58.3345" y="-7.5" font-family="Fira Code" font-size="10.00" fill="#000000">src/boca_caixa.c</text>
</a>
</g>
</g>
<!-- Node2&#45;&gt;Node3 -->
<g id="edge1" class="edge">
<title>Node2&#45;&gt;Node3</title>
<path fill="none" stroke="#191970" d="M101.447,-112.2311C62.5275,-104.3476 16.2401,-91.9521 4.3345,-76 -11.0733,-55.3554 19.4105,-32.2842 40.5201,-19.6223"/>
<polygon fill="#191970" stroke="#191970" points="101.1879,-115.7469 111.6744,-114.2358 102.5344,-108.8776 101.1879,-115.7469"/>
</g>
<!-- Node4 -->
<g id="node3" class="node">
<title>Node4</title>
<g id="a_node3"><a xlink:href="../../d8/db8/fsm_8c.html" target="_top" xlink:title="Implementação de uma máquina de estados finitos (finite state machine) ">
<polygon fill="none" stroke="#000000" points="13.8345,-56.5 13.8345,-75.5 84.8345,-75.5 84.8345,-56.5 13.8345,-56.5"/>
<text text-anchor="middle" x="49.3345" y="-63.5" font-family="Fira Code" font-size="10.00" fill="#000000">src/fsm.c</text>
</a>
</g>
</g>
<!-- Node2&#45;&gt;Node4 -->
<g id="edge2" class="edge">
<title>Node2&#45;&gt;Node4</title>
<path fill="none" stroke="#191970" d="M131.0431,-107.5971C111.3234,-97.558 85.5545,-84.4393 68.2755,-75.6427"/>
<polygon fill="#191970" stroke="#191970" points="129.6744,-110.8277 140.174,-112.2455 132.8502,-104.5896 129.6744,-110.8277"/>
</g>
<!-- Node5 -->
<g id="node4" class="node">
<title>Node5</title>
<g id="a_node4"><a xlink:href="../../d0/d29/main_8c.html" target="_top" xlink:title="src/main.c">
<polygon fill="none" stroke="#000000" points="205.8345,-.5 205.8345,-19.5 282.8345,-19.5 282.8345,-.5 205.8345,-.5"/>
<text text-anchor="middle" x="244.3345" y="-7.5" font-family="Fira Code" font-size="10.00" fill="#000000">src/main.c</text>
</a>
</g>
</g>
<!-- Node2&#45;&gt;Node5 -->
<g id="edge3" class="edge">
<title>Node2&#45;&gt;Node5</title>
<path fill="none" stroke="#191970" d="M188.2847,-107.2596C200.9596,-99.5024 215.0321,-88.9048 224.3345,-76 236.7967,-58.7118 241.5978,-33.5566 243.3666,-19.8327"/>
<polygon fill="#191970" stroke="#191970" points="186.2982,-104.3651 179.3906,-112.3984 189.8002,-110.4261 186.2982,-104.3651"/>
</g>
<!-- Node6 -->
<g id="node5" class="node">
<title>Node6</title>
<g id="a_node5"><a xlink:href="../../d8/d1d/boca__caixa_8h.html" target="_top" xlink:title="inc/boca_caixa.h">
<polygon fill="none" stroke="#000000" points="102.8345,-56.5 102.8345,-75.5 215.8345,-75.5 215.8345,-56.5 102.8345,-56.5"/>
<text text-anchor="middle" x="159.3345" y="-63.5" font-family="Fira Code" font-size="10.00" fill="#000000">inc/boca_caixa.h</text>
</a>
</g>
</g>
<!-- Node2&#45;&gt;Node6 -->
<g id="edge4" class="edge">
<title>Node2&#45;&gt;Node6</title>
<path fill="none" stroke="#191970" d="M159.3345,-102.1575C159.3345,-93.155 159.3345,-82.9199 159.3345,-75.6427"/>
<polygon fill="#191970" stroke="#191970" points="155.8346,-102.2455 159.3345,-112.2455 162.8346,-102.2456 155.8346,-102.2455"/>
</g>
<!-- Node7 -->
<g id="node6" class="node">
<title>Node7</title>
<g id="a_node6"><a xlink:href="../../dd/d81/fsm_8h.html" target="_top" xlink:title="Implementação de uma máquina de estados finitos (finite state machine) ">
<polygon fill="none" stroke="#000000" points="272.8345,-56.5 272.8345,-75.5 343.8345,-75.5 343.8345,-56.5 272.8345,-56.5"/>
<text text-anchor="middle" x="308.3345" y="-63.5" font-family="Fira Code" font-size="10.00" fill="#000000">inc/fsm.h</text>
</a>
</g>
</g>
<!-- Node2&#45;&gt;Node7 -->
<g id="edge7" class="edge">
<title>Node2&#45;&gt;Node7</title>
<path fill="none" stroke="#191970" d="M194.4857,-108.7888C221.6913,-98.5639 258.7154,-84.6488 283.0547,-75.5011"/>
<polygon fill="#191970" stroke="#191970" points="193.0779,-105.5788 184.9485,-112.3733 195.5406,-112.1313 193.0779,-105.5788"/>
</g>
<!-- Node6&#45;&gt;Node3 -->
<g id="edge5" class="edge">
<title>Node6&#45;&gt;Node3</title>
<path fill="none" stroke="#191970" d="M132.8626,-51.3225C114.822,-41.3198 91.4468,-28.3593 75.7258,-19.6427"/>
<polygon fill="#191970" stroke="#191970" points="131.2988,-54.4574 141.7416,-56.2455 134.6932,-48.3354 131.2988,-54.4574"/>
</g>
<!-- Node6&#45;&gt;Node5 -->
<g id="edge6" class="edge">
<title>Node6&#45;&gt;Node5</title>
<path fill="none" stroke="#191970" d="M182.8764,-50.49C197.8735,-40.6096 216.8318,-28.1194 229.6983,-19.6427"/>
<polygon fill="#191970" stroke="#191970" points="180.5654,-47.8212 174.1404,-56.2455 184.4166,-53.6666 180.5654,-47.8212"/>
</g>
<!-- Node7&#45;&gt;Node5 -->
<g id="edge8" class="edge">
<title>Node7&#45;&gt;Node5</title>
<path fill="none" stroke="#191970" d="M289.6431,-49.645C278.5126,-39.9058 264.7682,-27.8795 255.3547,-19.6427"/>
<polygon fill="#191970" stroke="#191970" points="287.356,-52.2945 297.1865,-56.2455 291.9655,-47.0264 287.356,-52.2945"/>
</g>
</g>
</svg>
