<?xml version="1.0" encoding="UTF-8" standalone="no"?>
<!DOCTYPE svg PUBLIC "-//W3C//DTD SVG 1.1//EN"
 "http://www.w3.org/Graphics/SVG/1.1/DTD/svg11.dtd">
<!-- Generated by graphviz version 2.40.1 (20161225.0304)
 -->
<!-- Title: inc/sistema.h Pages: 1 -->
<svg width="623pt" height="140pt"
 viewBox="0.00 0.00 623.00 140.00" xmlns="http://www.w3.org/2000/svg" xmlns:xlink="http://www.w3.org/1999/xlink">
<g id="graph0" class="graph" transform="scale(1 1) rotate(0) translate(4 136)">
<title>inc/sistema.h</title>
<!-- Node2 -->
<g id="node1" class="node">
<title>Node2</title>
<polygon fill="#bfbfbf" stroke="#000000" points="267,-112.5 267,-131.5 362,-131.5 362,-112.5 267,-112.5"/>
<text text-anchor="middle" x="314.5" y="-119.5" font-family="Fira Code" font-size="10.00" fill="#000000">inc/sistema.h</text>
</g>
<!-- Node3 -->
<g id="node2" class="node">
<title>Node3</title>
<g id="a_node2"><a xlink:href="../../d2/d9b/boca__caixa_8c.html" target="_top" xlink:title="src/boca_caixa.c">
<polygon fill="none" stroke="#000000" points="0,-.5 0,-19.5 113,-19.5 113,-.5 0,-.5"/>
<text text-anchor="middle" x="56.5" y="-7.5" font-family="Fira Code" font-size="10.00" fill="#000000">src/boca_caixa.c</text>
</a>
</g>
</g>
<!-- Node2&#45;&gt;Node3 -->
<g id="edge1" class="edge">
<title>Node2&#45;&gt;Node3</title>
<path fill="none" stroke="#191970" d="M256.9414,-116.4009C179.9771,-108.3246 51.5274,-92.549 37.5,-76 23.6223,-59.6276 38.6534,-33.6495 48.8013,-19.668"/>
<polygon fill="#191970" stroke="#191970" points="256.674,-119.8919 266.9816,-117.4416 257.3958,-112.9292 256.674,-119.8919"/>
</g>
<!-- Node4 -->
<g id="node3" class="node">
<title>Node4</title>
<g id="a_node3"><a xlink:href="../../d5/d39/caixa__troco_8c.html" target="_top" xlink:title="src/caixa_troco.c">
<polygon fill="none" stroke="#000000" points="496,-56.5 496,-75.5 615,-75.5 615,-56.5 496,-56.5"/>
<text text-anchor="middle" x="555.5" y="-63.5" font-family="Fira Code" font-size="10.00" fill="#000000">src/caixa_troco.c</text>
</a>
</g>
</g>
<!-- Node2&#45;&gt;Node4 -->
<g id="edge2" class="edge">
<title>Node2&#45;&gt;Node4</title>
<path fill="none" stroke="#191970" d="M365.6588,-110.1125C410.0304,-99.8021 473.4168,-85.0733 514.5142,-75.5237"/>
<polygon fill="#191970" stroke="#191970" points="364.6038,-106.7643 355.6555,-112.4369 366.1882,-113.5826 364.6038,-106.7643"/>
</g>
<!-- Node5 -->
<g id="node4" class="node">
<title>Node5</title>
<g id="a_node4"><a xlink:href="../../d5/d5c/estoque_8c.html" target="_top" xlink:title="src/estoque.c">
<polygon fill="none" stroke="#000000" points="291,-.5 291,-19.5 386,-19.5 386,-.5 291,-.5"/>
<text text-anchor="middle" x="338.5" y="-7.5" font-family="Fira Code" font-size="10.00" fill="#000000">src/estoque.c</text>
</a>
</g>
</g>
<!-- Node2&#45;&gt;Node5 -->
<g id="edge3" class="edge">
<title>Node2&#45;&gt;Node5</title>
<path fill="none" stroke="#191970" d="M367.714,-108.7114C384.305,-101.7941 400.786,-91.4263 410.5,-76 425.5897,-52.0369 390.3523,-31.2517 364.0275,-19.6958"/>
<polygon fill="#191970" stroke="#191970" points="366.0948,-105.582 357.9832,-112.3976 368.5746,-112.1281 366.0948,-105.582"/>
</g>
<!-- Node6 -->
<g id="node5" class="node">
<title>Node6</title>
<g id="a_node5"><a xlink:href="../../d8/db8/fsm_8c.html" target="_top" xlink:title="Implementação de uma máquina de estados finitos (finite state machine) ">
<polygon fill="none" stroke="#000000" points="422,-.5 422,-19.5 493,-19.5 493,-.5 422,-.5"/>
<text text-anchor="middle" x="457.5" y="-7.5" font-family="Fira Code" font-size="10.00" fill="#000000">src/fsm.c</text>
</a>
</g>
</g>
<!-- Node2&#45;&gt;Node6 -->
<g id="edge4" class="edge">
<title>Node2&#45;&gt;Node6</title>
<path fill="none" stroke="#191970" d="M365.7883,-109.3878C386.2946,-102.2951 408.9271,-91.6294 425.5,-76 442.1756,-60.2738 451.2215,-34.0331 455.1227,-19.8388"/>
<polygon fill="#191970" stroke="#191970" points="364.6648,-106.0727 356.2379,-112.4943 366.8301,-112.7294 364.6648,-106.0727"/>
</g>
<!-- Node7 -->
<g id="node6" class="node">
<title>Node7</title>
<g id="a_node6"><a xlink:href="../../d0/d29/main_8c.html" target="_top" xlink:title="src/main.c">
<polygon fill="none" stroke="#000000" points="159,-.5 159,-19.5 236,-19.5 236,-.5 159,-.5"/>
<text text-anchor="middle" x="197.5" y="-7.5" font-family="Fira Code" font-size="10.00" fill="#000000">src/main.c</text>
</a>
</g>
</g>
<!-- Node2&#45;&gt;Node7 -->
<g id="edge5" class="edge">
<title>Node2&#45;&gt;Node7</title>
<path fill="none" stroke="#191970" d="M257.288,-109.3261C238.7493,-102.4465 219.8132,-91.9451 207.5,-76 194.7502,-59.4895 194.9859,-33.5675 196.2496,-19.6314"/>
<polygon fill="#191970" stroke="#191970" points="256.3147,-112.692 266.9092,-112.6033 258.5718,-106.0659 256.3147,-112.692"/>
</g>
<!-- Node8 -->
<g id="node7" class="node">
<title>Node8</title>
<g id="a_node7"><a xlink:href="../../d8/d1d/boca__caixa_8h.html" target="_top" xlink:title="inc/boca_caixa.h">
<polygon fill="none" stroke="#000000" points="47,-56.5 47,-75.5 160,-75.5 160,-56.5 47,-56.5"/>
<text text-anchor="middle" x="103.5" y="-63.5" font-family="Fira Code" font-size="10.00" fill="#000000">inc/boca_caixa.h</text>
</a>
</g>
</g>
<!-- Node2&#45;&gt;Node8 -->
<g id="edge6" class="edge">
<title>Node2&#45;&gt;Node8</title>
<path fill="none" stroke="#191970" d="M268.2303,-109.7199C229.4324,-99.4228 174.8241,-84.9296 139.2989,-75.5011"/>
<polygon fill="#191970" stroke="#191970" points="267.6646,-113.1909 278.2278,-112.3733 269.4603,-106.4251 267.6646,-113.1909"/>
</g>
<!-- Node9 -->
<g id="node8" class="node">
<title>Node9</title>
<g id="a_node8"><a xlink:href="../../d3/d86/estoque_8h.html" target="_top" xlink:title="inc/estoque.h">
<polygon fill="none" stroke="#000000" points="217,-56.5 217,-75.5 312,-75.5 312,-56.5 217,-56.5"/>
<text text-anchor="middle" x="264.5" y="-63.5" font-family="Fira Code" font-size="10.00" fill="#000000">inc/estoque.h</text>
</a>
</g>
</g>
<!-- Node2&#45;&gt;Node9 -->
<g id="edge9" class="edge">
<title>Node2&#45;&gt;Node9</title>
<path fill="none" stroke="#191970" d="M298.8753,-104.5004C290.3727,-94.9775 280.1782,-83.5596 273.1095,-75.6427"/>
<polygon fill="#191970" stroke="#191970" points="296.5197,-107.1172 305.7907,-112.2455 301.7413,-102.4551 296.5197,-107.1172"/>
</g>
<!-- Node10 -->
<g id="node9" class="node">
<title>Node10</title>
<g id="a_node9"><a xlink:href="../../dd/d81/fsm_8h.html" target="_top" xlink:title="inc/fsm.h">
<polygon fill="none" stroke="#000000" points="330,-56.5 330,-75.5 401,-75.5 401,-56.5 330,-56.5"/>
<text text-anchor="middle" x="365.5" y="-63.5" font-family="Fira Code" font-size="10.00" fill="#000000">inc/fsm.h</text>
</a>
</g>
</g>
<!-- Node2&#45;&gt;Node10 -->
<g id="edge12" class="edge">
<title>Node2&#45;&gt;Node10</title>
<path fill="none" stroke="#191970" d="M330.1749,-104.7884C338.8994,-95.2085 349.4354,-83.6396 356.7183,-75.6427"/>
<polygon fill="#191970" stroke="#191970" points="327.5291,-102.4954 323.3835,-112.2455 332.7046,-107.2088 327.5291,-102.4954"/>
</g>
<!-- Node8&#45;&gt;Node3 -->
<g id="edge7" class="edge">
<title>Node8&#45;&gt;Node3</title>
<path fill="none" stroke="#191970" d="M88.8128,-48.5004C80.8204,-38.9775 71.2375,-27.5596 64.593,-19.6427"/>
<polygon fill="#191970" stroke="#191970" points="86.2036,-50.8358 95.3132,-56.2455 91.5654,-46.3357 86.2036,-50.8358"/>
</g>
<!-- Node8&#45;&gt;Node7 -->
<g id="edge8" class="edge">
<title>Node8&#45;&gt;Node7</title>
<path fill="none" stroke="#191970" d="M128.6005,-51.0465C145.326,-41.0824 166.8168,-28.2794 181.3141,-19.6427"/>
<polygon fill="#191970" stroke="#191970" points="126.6732,-48.1206 119.8736,-56.2455 130.2559,-54.1343 126.6732,-48.1206"/>
</g>
<!-- Node9&#45;&gt;Node5 -->
<g id="edge10" class="edge">
<title>Node9&#45;&gt;Node5</title>
<path fill="none" stroke="#191970" d="M285.3657,-50.2097C298.3625,-40.3743 314.6622,-28.0394 325.7579,-19.6427"/>
<polygon fill="#191970" stroke="#191970" points="283.2518,-47.4201 277.3898,-56.2455 287.476,-53.002 283.2518,-47.4201"/>
</g>
<!-- Node9&#45;&gt;Node7 -->
<g id="edge11" class="edge">
<title>Node9&#45;&gt;Node7</title>
<path fill="none" stroke="#191970" d="M244.9324,-49.645C233.2802,-39.9058 218.8916,-27.8795 209.0368,-19.6427"/>
<polygon fill="#191970" stroke="#191970" points="242.9121,-52.5179 252.8295,-56.2455 247.4012,-47.1469 242.9121,-52.5179"/>
</g>
<!-- Node10&#45;&gt;Node6 -->
<g id="edge13" class="edge">
<title>Node10&#45;&gt;Node6</title>
<path fill="none" stroke="#191970" d="M390.5224,-50.769C406.825,-40.8456 427.601,-28.1994 441.6585,-19.6427"/>
<polygon fill="#191970" stroke="#191970" points="388.2473,-48.0563 381.5252,-56.2455 391.887,-54.0357 388.2473,-48.0563"/>
</g>
<!-- Node10&#45;&gt;Node7 -->
<g id="edge14" class="edge">
<title>Node10&#45;&gt;Node7</title>
<path fill="none" stroke="#191970" d="M327.0714,-53.1905C296.2927,-42.9309 253.8074,-28.7691 226.0034,-19.5011"/>
<polygon fill="#191970" stroke="#191970" points="326.0261,-56.5313 336.6198,-56.3733 328.2398,-49.8905 326.0261,-56.5313"/>
</g>
</g>
</svg>
