<?xml version="1.0" encoding="UTF-8" standalone="no"?>
<!DOCTYPE svg PUBLIC "-//W3C//DTD SVG 1.1//EN"
 "http://www.w3.org/Graphics/SVG/1.1/DTD/svg11.dtd">
<!-- Generated by graphviz version 2.40.1 (20161225.0304)
 -->
<!-- Title: inc/definicoes_sistema.h Pages: 1 -->
<svg width="174pt" height="84pt"
 viewBox="0.00 0.00 174.00 84.00" xmlns="http://www.w3.org/2000/svg" xmlns:xlink="http://www.w3.org/1999/xlink">
<g id="graph0" class="graph" transform="scale(1 1) rotate(0) translate(4 80)">
<title>inc/definicoes_sistema.h</title>
<!-- Node2 -->
<g id="node1" class="node">
<title>Node2</title>
<polygon fill="#bfbfbf" stroke="#000000" points="4,-56.5 4,-75.5 165,-75.5 165,-56.5 4,-56.5"/>
<text text-anchor="middle" x="84.5" y="-63.5" font-family="Fira Code" font-size="10.00" fill="#000000">inc/definicoes_sistema.h</text>
</g>
<!-- Node3 -->
<g id="node2" class="node">
<title>Node3</title>
<g id="a_node2"><a xlink:href="../../d0/d29/main_8c.html" target="_top" xlink:title="src/main.c">
<polygon fill="none" stroke="#000000" points="0,-.5 0,-19.5 77,-19.5 77,-.5 0,-.5"/>
<text text-anchor="middle" x="38.5" y="-7.5" font-family="Fira Code" font-size="10.00" fill="#000000">src/main.c</text>
</a>
</g>
</g>
<!-- Node2&#45;&gt;Node3 -->
<g id="edge1" class="edge">
<title>Node2&#45;&gt;Node3</title>
<path fill="none" stroke="#191970" d="M70.1253,-48.5004C62.3029,-38.9775 52.924,-27.5596 46.4208,-19.6427"/>
<polygon fill="#191970" stroke="#191970" points="67.4354,-50.7399 76.4874,-56.2455 72.8445,-46.2967 67.4354,-50.7399"/>
</g>
<!-- Node4 -->
<g id="node3" class="node">
<title>Node4</title>
<g id="a_node3"><a xlink:href="../../dd/d81/fsm_8h.html" target="_top" xlink:title="Implementação de uma máquina de estados finitos (finite state machine) ">
<polygon fill="none" stroke="#000000" points="95,-.5 95,-19.5 166,-19.5 166,-.5 95,-.5"/>
<text text-anchor="middle" x="130.5" y="-7.5" font-family="Fira Code" font-size="10.00" fill="#000000">inc/fsm.h</text>
</a>
</g>
</g>
<!-- Node2&#45;&gt;Node4 -->
<g id="edge2" class="edge">
<title>Node2&#45;&gt;Node4</title>
<path fill="none" stroke="#191970" d="M98.8747,-48.5004C106.6971,-38.9775 116.076,-27.5596 122.5792,-19.6427"/>
<polygon fill="#191970" stroke="#191970" points="96.1555,-46.2967 92.5126,-56.2455 101.5646,-50.7399 96.1555,-46.2967"/>
</g>
</g>
</svg>
