<?xml version="1.0" encoding="UTF-8" standalone="no"?>
<!DOCTYPE svg PUBLIC "-//W3C//DTD SVG 1.1//EN"
 "http://www.w3.org/Graphics/SVG/1.1/DTD/svg11.dtd">
<!-- Generated by graphviz version 2.40.1 (20161225.0304)
 -->
<!-- Title: inc/fsm.h Pages: 1 -->
<svg width="174pt" height="84pt"
 viewBox="0.00 0.00 174.00 84.00" xmlns="http://www.w3.org/2000/svg" xmlns:xlink="http://www.w3.org/1999/xlink">
<g id="graph0" class="graph" transform="scale(1 1) rotate(0) translate(4 80)">
<title>inc/fsm.h</title>
<!-- Node3 -->
<g id="node1" class="node">
<title>Node3</title>
<polygon fill="#bfbfbf" stroke="#000000" points="46,-56.5 46,-75.5 117,-75.5 117,-56.5 46,-56.5"/>
<text text-anchor="middle" x="81.5" y="-63.5" font-family="Fira Code" font-size="10.00" fill="#000000">inc/fsm.h</text>
</g>
<!-- Node4 -->
<g id="node2" class="node">
<title>Node4</title>
<g id="a_node2"><a xlink:href="../../d8/db8/fsm_8c.html" target="_top" xlink:title="Implementação de uma máquina de estados finitos (finite state machine) ">
<polygon fill="none" stroke="#000000" points="0,-.5 0,-19.5 71,-19.5 71,-.5 0,-.5"/>
<text text-anchor="middle" x="35.5" y="-7.5" font-family="Fira Code" font-size="10.00" fill="#000000">src/fsm.c</text>
</a>
</g>
</g>
<!-- Node3&#45;&gt;Node4 -->
<g id="edge1" class="edge">
<title>Node3&#45;&gt;Node4</title>
<path fill="none" stroke="#191970" d="M67.1253,-48.5004C59.3029,-38.9775 49.924,-27.5596 43.4208,-19.6427"/>
<polygon fill="#191970" stroke="#191970" points="64.4354,-50.7399 73.4874,-56.2455 69.8445,-46.2967 64.4354,-50.7399"/>
</g>
<!-- Node5 -->
<g id="node3" class="node">
<title>Node5</title>
<g id="a_node3"><a xlink:href="../../d0/d29/main_8c.html" target="_top" xlink:title="src/main.c">
<polygon fill="none" stroke="#000000" points="89,-.5 89,-19.5 166,-19.5 166,-.5 89,-.5"/>
<text text-anchor="middle" x="127.5" y="-7.5" font-family="Fira Code" font-size="10.00" fill="#000000">src/main.c</text>
</a>
</g>
</g>
<!-- Node3&#45;&gt;Node5 -->
<g id="edge2" class="edge">
<title>Node3&#45;&gt;Node5</title>
<path fill="none" stroke="#191970" d="M95.8747,-48.5004C103.6971,-38.9775 113.076,-27.5596 119.5792,-19.6427"/>
<polygon fill="#191970" stroke="#191970" points="93.1555,-46.2967 89.5126,-56.2455 98.5646,-50.7399 93.1555,-46.2967"/>
</g>
</g>
</svg>
